{
.appVersion = "3133";
.formatVersion = 3;
DisplayStrings = (
"示立"
);
axes = (
{
name = Weight;
tag = wght;
},
{
name = Width;
tag = wdth;
}
);
date = "2023-07-26 03:34:22 +0000";
familyName = "AI Song font_Yu New";
fontMaster = (
{
axesValues = (
100,
100
);
customParameters = (
{
name = "CJK Guide";
value = "90";
}
);
guides = (
{
locked = 1;
pos = (985,689);
},
{
locked = 1;
pos = (-33,-58);
}
);
id = m01;
metricValues = (
{
over = 16;
pos = 800;
},
{
over = -16;
},
{
over = -16;
pos = -200;
}
);
name = Regular;
userData = {
GSCornerRadius = 8;
GSOffsetHorizontal = 0;
GSOffsetVertical = -2;
};
}
);
glyphs = (
{
glyphname = uni3405.001;
lastChange = "2023-09-21 14:49:36 +0000";
layers = (
{
layerId = m01;
shapes = (
{
closed = 1;
nodes = (
(478,147,o),
(648,324,o),
(734,623,cs),
(735,628,o),
(729,633,o),
(726,634,cs),
(651,658,l),
(572,371,o),
(432,199,o),
(185,27,cs),
(150,3,o),
(174,-7,o),
(194,3,cs)
);
},
{
closed = 1;
nodes = (
(663,194,o),
(722,60,cs),
(729,44,o),
(737,33,o),
(755,33,cs),
(789,33,o),
(806,69,o),
(803,100,cs),
(793,206,o),
(528,415,o),
(303,499,cs),
(289,504,o),
(279,508,o),
(273,498,cs),
(266,487,o),
(274,481,o),
(288,472,cs),
(478,348,o)
);
}
);
width = 1000;
}
);
},
{
glyphname = uni4491.001;
lastChange = "2023-09-21 14:49:36 +0000";
layers = (
{
layerId = m01;
shapes = (
{
closed = 1;
nodes = (
(436,350,o),
(455,384,o),
(447,407,cs),
(434,443,o),
(372,508,o),
(287,532,cs),
(266,537,o),
(258,529,o),
(275,516,cs),
(336,472,o),
(382,393,o),
(390,343,cs),
(392,335,o),
(401,331,o),
(413,337,cs)
);
},
{
closed = 1;
nodes = (
(669,549,ls),
(661,553,o),
(652,551,o),
(649,543,cs),
(634,474,o),
(589,400,o),
(550,366,cs),
(515,337,o),
(527,328,o),
(567,344,cs),
(628,370,o),
(686,435,o),
(725,503,cs),
(728,511,o),
(727,520,o),
(719,524,cs)
);
},
{
closed = 1;
nodes = (
(914,277,ls),
(931,277,o),
(941,283,o),
(941,292,cs),
(941,307,o),
(885,348,o),
(835,360,c),
(842,325,o),
(827,306,o),
(787,306,cs),
(63,306,l),
(63,291,o),
(68,277,o),
(84,277,cs)
);
}
);
width = 1000;
}
);
},
{
glyphname = uni4E00;
lastChange = "2023-09-21 14:49:36 +0000";
layers = (
{
layerId = m01;
shapes = (
{
closed = 1;
nodes = (
(908,320,ls),
(932,320,o),
(941,326,o),
(941,340,cs),
(941,361,o),
(857,404,o),
(821,417,c),
(813,376,o),
(794,354,o),
(762,354,cs),
(63,354,l),
(63,335,o),
(68,320,o),
(92,320,cs)
);
}
);
width = 1000;
}
);
unicode = 19968;
},
{
glyphname = uni4E01;
lastChange = "2023-09-21 14:49:36 +0000";
layers = (
{
layerId = m01;
shapes = (
{
closed = 1;
nodes = (
(857,584,ls),
(881,584,o),
(890,590,o),
(890,604,cs),
(890,625,o),
(806,668,o),
(770,681,c),
(762,640,o),
(743,618,o),
(711,618,cs),
(122,618,l),
(122,599,o),
(127,584,o),
(151,584,cs)
);
},
{
closed = 1;
nodes = (
(470,599,l),
(470,68,ls),
(470,39,o),
(457,25,o),
(396,25,cs),
(372,25,o),
(325,28,o),
(284,31,cs),
(253,33,o),
(245,2,o),
(284,-1,cs),
(430,-14,o),
(390,-47,o),
(445,-47,cs),
(495,-47,o),
(538,0,o),
(538,48,cs),
(538,599,l)
);
}
);
width = 1000;
}
);
unicode = 19969;
},
{
glyphname = uni4E0B.001;
lastChange = "2023-09-21 14:49:36 +0000";
layers = (
{
layerId = m01;
shapes = (
{
closed = 1;
nodes = (
(505,-72,o),
(520,-51,o),
(520,-33,cs),
(520,587,l),
(453,587,l),
(453,-51,ls),
(453,-61,o),
(453,-72,o),
(473,-72,cs)
);
},
{
closed = 1;
nodes = (
(798,224,o),
(822,244,o),
(821,272,cs),
(819,318,o),
(678,367,o),
(498,406,c),
(498,382,l),
(647,332,o),
(715,278,o),
(740,243,cs),
(748,232,o),
(758,221,o),
(772,222,cs)
);
},
{
closed = 1;
nodes = (
(908,570,ls),
(932,570,o),
(941,576,o),
(941,590,cs),
(941,611,o),
(857,654,o),
(821,667,c),
(813,626,o),
(794,604,o),
(762,604,cs),
(63,604,l),
(63,585,o),
(68,570,o),
(92,570,cs)
);
}
);
width = 1000;
}
);
},
{
glyphname = uni4E0D;
lastChange = "2023-09-21 14:49:36 +0000";
layers = (
{
layerId = m01;
shapes = (
{
closed = 1;
nodes = (
(898,577,ls),
(921,577,o),
(937,583,o),
(937,597,cs),
(937,620,o),
(869,657,o),
(806,673,c),
(817,633,o),
(801,607,o),
(756,607,cs),
(70,607,l),
(69,593,o),
(73,577,o),
(90,577,cs)
);
},
{
closed = 1;
nodes = (
(490,592,ls),
(484,595,o),
(478,601,o),
(475,595,cs),
(386,415,o),
(221,275,o),
(70,185,cs),
(28,160,o),
(35,130,o),
(87,155,cs),
(250,233,o),
(435,377,o),
(546,541,cs),
(550,546,o),
(554,555,o),
(548,558,cs)
);
},
{
closed = 1;
nodes = (
(528,433,ls),
(528,437,o),
(524,441,o),
(520,442,cs),
(503,449,o),
(483,453,o),
(459,454,c),
(459,-43,ls),
(459,-54,o),
(465,-62,o),
(481,-62,cs),
(506,-62,o),
(530,-43,o),
(530,-24,cs)
);
},
{
closed = 1;
nodes = (
(831,226,o),
(856,183,cs),
(864,170,o),
(875,160,o),
(892,163,cs),
(923,168,o),
(935,195,o),
(921,232,cs),
(904,278,o),
(756,355,o),
(631,405,cs),
(619,410,o),
(610,408,o),
(605,396,cs),
(602,389,o),
(610,385,o),
(625,377,cs),
(721,325,o)
);
}
);
width = 1000;
}
);
unicode = 19981;
},
{
glyphname = uni4E11;
lastChange = "2023-09-21 14:49:36 +0000";
layers = (
{
layerId = m01;
shapes = (
{
closed = 1;
nodes = (
(714,-13,l),
(743,586,l),
(765,588,o),
(776,595,o),
(776,605,cs),
(776,622,o),
(725,651,o),
(690,665,c),
(682,647,o),
(666,629,o),
(647,629,cs),
(193,630,l),
(194,619,o),
(197,598,o),
(217,598,cs),
(670,597,l),
(641,-13,l)
);
},
{
closed = 1;
nodes = (
(908,-30,ls),
(932,-30,o),
(941,-24,o),
(941,-10,cs),
(941,11,o),
(868,54,o),
(832,67,c),
(824,26,o),
(805,4,o),
(773,4,cs),
(63,4,l),
(63,-15,o),
(68,-30,o),
(92,-30,cs)
);
},
{
closed = 1;
nodes = (
(418,591,ls),
(419,598,o),
(413,603,o),
(408,605,cs),
(392,611,o),
(372,617,o),
(348,618,c),
(305,0,ls),
(304,-10,o),
(311,-18,o),
(326,-18,cs),
(353,-18,o),
(376,1,o),
(377,20,cs)
);
},
{
closed = 1;
nodes = (
(684,280,l),
(699,310,l),
(174,310,l),
(174,294,o),
(179,280,o),
(196,280,cs)
);
}
);
width = 1000;
}
);
unicode = 19985;
},
{
glyphname = uni4E14;
lastChange = "2023-09-21 14:49:36 +0000";
layers = (
{
layerId = m01;
shapes = (
{
closed = 1;
nodes = (
(678,594,l),
(678,-1,l),
(678,-13,o),
(680,-20,o),
(698,-20,c),
(732,-20,o),
(752,-17,o),
(752,-3,cs),
(753,579,l),
(775,583,o),
(785,590,o),
(785,602,cs),
(785,620,o),
(736,651,o),
(688,664,c),
(684,641,o),
(676,626,o),
(653,626,cs),
(330,626,l),
(308,642,o),
(280,657,o),
(250,668,c),
(250,-2,ls),
(250,-14,o),
(254,-20,o),
(272,-20,cs),
(305,-20,o),
(324,-18,o),
(324,-4,cs),
(324,594,l)
);
},
{
closed = 1;
nodes = (
(719,181,l),
(721,211,l),
(293,211,l),
(293,181,l)
);
},
{
closed = 1;
nodes = (
(729,388,l),
(719,417,l),
(277,419,l),
(277,387,l)
);
},
{
closed = 1;
nodes = (
(908,-30,ls),
(932,-30,o),
(941,-24,o),
(941,-10,cs),
(941,11,o),
(868,54,o),
(832,67,c),
(824,26,o),
(805,4,o),
(773,4,cs),
(63,4,l),
(63,-15,o),
(68,-30,o),
(92,-30,cs)
);
}
);
width = 1000;
}
);
unicode = 19988;
},
{
glyphname = uni4E28.001;
lastChange = "2023-09-21 14:49:36 +0000";
layers = (
{
layerId = m01;
shapes = (
{
closed = 1;
nodes = (
(515,679,ls),
(515,683,o),
(511,687,o),
(507,688,cs),
(490,695,o),
(470,699,o),
(446,700,c),
(446,-53,ls),
(446,-64,o),
(452,-72,o),
(468,-72,cs),
(493,-72,o),
(517,-52,o),
(517,-33,cs)
);
}
);
width = 1000;
}
);
},
{
glyphname = uni4E2D;
lastChange = "2023-09-21 14:49:36 +0000";
layers = (
{
layerId = m01;
shapes = (
{
closed = 1;
nodes = (
(793,244,l),
(793,276,l),
(211,276,l),
(211,244,l)
);
},
{
closed = 1;
nodes = (
(789,514,l),
(789,209,l),
(789,197,o),
(791,190,o),
(809,190,cs),
(843,190,o),
(859,213,o),
(859,227,cs),
(860,499,l),
(882,503,o),
(892,510,o),
(892,522,cs),
(892,540,o),
(843,571,o),
(795,584,c),
(791,561,o),
(783,546,o),
(760,546,cs),
(221,546,l),
(199,562,o),
(175,577,o),
(145,588,c),
(145,208,ls),
(145,196,o),
(149,190,o),
(167,190,cs),
(200,190,o),
(215,212,o),
(215,226,cs),
(215,514,l)
);
},
{
closed = 1;
nodes = (
(535,722,ls),
(535,729,o),
(530,734,o),
(525,736,cs),
(509,742,o),
(489,748,o),
(465,749,c),
(465,-40,ls),
(465,-50,o),
(471,-58,o),
(486,-58,cs),
(513,-58,o),
(537,-39,o),
(537,-20,cs)
);
}
);
width = 1000;
}
);
unicode = 20013;
},
{
glyphname = uni4E36;
lastChange = "2023-09-21 14:49:36 +0000";
layers = (
{
layerId = m01;
shapes = (
{
closed = 1;
nodes = (
(599,240,o),
(623,292,o),
(615,320,cs),
(599,380,o),
(528,434,o),
(409,466,cs),
(387,468,o),
(376,451,o),
(401,433,cs),
(481,379,o),
(521,282,o),
(528,254,cs),
(531,238,o),
(545,226,o),
(565,230,cs)
);
}
);
width = 1000;
}
);
unicode = 20022;
},
{
glyphname = uni4E37;
lastChange = "2023-09-21 14:49:36 +0000";
layers = (
{
layerId = m01;
shapes = (
{
closed = 1;
nodes = (
(415,296,o),
(439,330,o),
(438,355,cs),
(435,389,o),
(347,469,o),
(271,492,cs),
(246,500,o),
(236,484,o),
(256,468,cs),
(315,422,o),
(351,343,o),
(358,322,cs),
(362,309,o),
(368,292,o),
(390,294,cs)
);
},
{
closed = 1;
nodes = (
(665,519,ls),
(658,524,o),
(649,523,o),
(646,515,cs),
(622,440,o),
(577,371,o),
(533,332,cs),
(503,306,o),
(520,285,o),
(551,304,cs),
(616,343,o),
(677,393,o),
(731,456,cs),
(737,463,o),
(736,471,o),
(729,476,cs)
);
}
);
width = 1000;
}
);
unicode = 20023;
},
{
glyphname = uni4E3B;
lastChange = "2023-09-21 14:49:36 +0000";
layers = (
{
layerId = m01;
shapes = (
{
closed = 1;
nodes = (
(907,-17,ls),
(931,-17,o),
(940,-11,o),
(940,3,cs),
(940,24,o),
(856,67,o),
(820,80,c),
(812,39,o),
(793,17,o),
(761,17,cs),
(73,17,l),
(73,-2,o),
(78,-17,o),
(102,-17,cs)
);
},
{
closed = 1;
nodes = (
(535,505,ls),
(535,512,o),
(530,517,o),
(526,518,cs),
(509,525,o),
(489,529,o),
(465,530,c),
(465,17,ls),
(465,6,o),
(471,-2,o),
(487,-2,cs),
(512,-2,o),
(536,-12,o),
(536,7,cs)
);
},
{
closed = 1;
nodes = (
(854,513,ls),
(878,513,o),
(887,519,o),
(887,533,cs),
(887,554,o),
(816,595,o),
(780,608,c),
(772,567,o),
(753,547,o),
(721,547,cs),
(143,547,l),
(143,528,o),
(148,513,o),
(172,513,cs)
);
},
{
closed = 1;
nodes = (
(824,251,ls),
(848,251,o),
(857,257,o),
(857,271,cs),
(857,292,o),
(786,333,o),
(750,346,c),
(742,305,o),
(723,285,o),
(691,285,cs),
(183,285,l),
(183,266,o),
(188,251,o),
(212,251,cs)
);
},
{
closed = 1;
nodes = (
(542,551,o),
(559,587,o),
(556,605,cs),
(554,635,o),
(495,672,o),
(413,695,cs),
(390,701,o),
(382,689,o),
(398,677,cs),
(456,635,o),
(484,584,o),
(491,556,cs),
(493,548,o),
(501,544,o),
(516,546,cs)
);
}
);
width = 1000;
}
);
unicode = 20027;
},
{
glyphname = uni4E3F.001;
lastChange = "2023-09-21 14:49:36 +0000";
layers = (
{
layerId = m01;
shapes = (
{
closed = 1;
nodes = (
(270,-62,o),
(280,-57,o),
(294,-50,cs),
(499,59,o),
(535,234,o),
(551,474,cs),
(554,529,o),
(556,599,o),
(554,659,cs),
(554,665,o),
(552,674,o),
(544,677,cs),
(525,684,o),
(498,688,o),
(475,689,c),
(480,624,o),
(481,571,o),
(479,508,cs),
(475,277,o),
(441,94,o),
(276,-27,cs),
(266,-34,o),
(254,-45,o),
(262,-54,cs)
);
}
);
width = 1000;
}
);
},
{
glyphname = uni4E43;
lastChange = "2023-09-21 14:49:36 +0000";
layers = (
{
layerId = m01;
shapes = (
{
closed = 1;
nodes = (
(675,589,l),
(737,596,o),
(759,602,o),
(759,621,cs),
(759,645,o),
(697,674,o),
(652,691,c),
(650,666,o),
(627,650,o),
(604,650,cs),
(170,650,l),
(171,628,o),
(184,614,o),
(200,614,cs),
(641,614,l)
);
},
{
closed = 1;
nodes = (
(638,637,ls),
(631,640,o),
(624,637,o),
(622,630,cs),
(603,548,o),
(584,457,o),
(529,321,cs),
(524,310,o),
(529,303,o),
(543,303,cs),
(570,303,o),
(598,313,o),
(605,331,cs),
(614,351,o),
(657,494,o),
(696,604,cs),
(698,609,o),
(695,614,o),
(691,616,cs)
);
},
{
closed = 1;
nodes = (
(679,-62,o),
(702,-53,o),
(746,-5,cs),
(818,75,o),
(842,179,o),
(851,330,c),
(872,335,o),
(887,341,o),
(887,354,cs),
(887,377,o),
(829,402,o),
(802,411,c),
(797,396,o),
(787,385,o),
(773,385,cs),
(569,385,l),
(569,355,l),
(786,355,l),
(777,191,o),
(752,95,o),
(684,32,cs),
(670,19,o),
(660,17,o),
(651,18,cs),
(594,22,o),
(556,27,o),
(489,36,cs),
(456,40,o),
(452,13,o),
(484,8,cs),
(554,-2,o),
(600,-17,o),
(617,-29,cs),
(637,-43,o),
(640,-59,o),
(655,-60,cs)
);
},
{
closed = 1;
nodes = (
(345,634,l),
(344,344,o),
(305,140,o),
(61,-25,cs),
(26,-48,o),
(54,-68,o),
(82,-54,cs),
(380,99,o),
(406,343,o),
(420,633,c)
);
}
);
width = 1000;
}
);
unicode = 20035;
},
{
glyphname = uni4E4D;
lastChange = "2023-09-21 14:49:36 +0000";
layers = (
{
layerId = m01;
shapes = (
{
closed = 1;
nodes = (
(387,693,ls),
(381,696,o),
(373,695,o),
(371,689,cs),
(314,530,o),
(207,399,o),
(56,277,cs),
(42,265,o),
(48,245,o),
(73,259,cs),
(247,354,o),
(367,494,o),
(456,646,cs),
(459,652,o),
(457,660,o),
(451,663,cs)
);
},
{
closed = 1;
nodes = (
(302,494,l),
(887,494,ls),
(911,494,o),
(920,500,o),
(920,514,cs),
(920,535,o),
(836,578,o),
(800,591,c),
(792,550,o),
(773,528,o),
(741,528,cs),
(302,528,l)
);
},
{
closed = 1;
nodes = (
(475,-59,o),
(495,-47,o),
(495,-33,cs),
(495,512,l),
(423,512,l),
(423,-47,ls),
(423,-59,o),
(428,-59,o),
(445,-59,cs)
);
},
{
closed = 1;
nodes = (
(462,313,l),
(807,313,ls),
(831,313,o),
(840,319,o),
(840,333,cs),
(840,350,o),
(767,388,o),
(729,400,c),
(721,359,o),
(702,347,o),
(670,347,cs),
(462,347,l)
);
},
{
closed = 1;
nodes = (
(474,134,l),
(819,134,ls),
(843,134,o),
(852,140,o),
(852,154,cs),
(852,171,o),
(779,209,o),
(741,221,c),
(733,180,o),
(714,168,o),
(682,168,cs),
(474,168,l)
);
}
);
width = 1000;
}
);
unicode = 20045;
},
{
glyphname = uni4E5A;
lastChange = "2023-09-21 14:49:36 +0000";
layers = (
{
layerId = m01;
shapes = (
{
closed = 1;
nodes = (
(336,655,ls),
(336,659,o),
(332,663,o),
(327,666,cs),
(308,673,o),
(285,678,o),
(262,679,c),
(262,83,ls),
(262,0,o),
(329,-42,o),
(422,-52,cs),
(492,-60,o),
(583,-57,o),
(613,-55,cs),
(736,-47,o),
(779,-31,o),
(820,4,cs),
(829,10,o),
(831,20,o),
(828,30,cs),
(823,42,o),
(820,58,o),
(823,73,cs),
(828,103,o),
(839,160,o),
(841,181,cs),
(846,226,o),
(818,225,o),
(806,192,cs),
(769,88,o),
(733,28,o),
(600,12,cs),
(567,8,o),
(469,9,o),
(430,16,cs),
(402,22,o),
(336,30,o),
(336,88,cs)
);
}
);
width = 1000;
}
);
unicode = 20058;
},
{
glyphname = uni4E5D;
lastChange = "2023-09-21 14:49:36 +0000";
layers = (
{
layerId = m01;
shapes = (
{
closed = 1;
nodes = (
(101,-62,o),
(111,-57,o),
(125,-50,cs),
(330,59,o),
(405,234,o),
(421,474,cs),
(424,529,o),
(426,599,o),
(424,659,cs),
(424,665,o),
(422,674,o),
(414,677,cs),
(395,684,o),
(368,688,o),
(345,689,c),
(350,624,o),
(351,571,o),
(349,508,cs),
(345,277,o),
(265,95,o),
(106,-26,cs),
(96,-33,o),
(85,-45,o),
(93,-54,cs)
);
},
{
closed = 1;
nodes = (
(651,421,l),
(671,425,o),
(682,435,o),
(682,446,cs),
(682,464,o),
(633,505,o),
(585,518,c),
(581,485,o),
(567,470,o),
(535,470,cs),
(165,470,l),
(165,455,o),
(167,441,o),
(183,441,cs),
(580,441,l),
(580,82,ls),
(580,-44,o),
(687,-54,o),
(787,-51,cs),
(848,-49,o),
(896,-28,o),
(936,6,cs),
(943,12,o),
(946,21,o),
(943,31,cs),
(939,42,o),
(936,58,o),
(939,72,cs),
(943,101,o),
(954,157,o),
(956,177,cs),
(961,220,o),
(934,220,o),
(922,188,cs),
(886,87,o),
(874,19,o),
(775,13,cs),
(705,9,o),
(651,12,o),
(651,87,cs)
);
}
);
width = 1000;
}
);
unicode = 20061;
},
{
glyphname = uni4E5E;
lastChange = "2023-09-21 14:49:36 +0000";
layers = (
{
layerId = m01;
shapes = (
{
closed = 1;
nodes = (
(367,693,ls),
(361,696,o),
(353,695,o),
(351,689,cs),
(294,530,o),
(217,419,o),
(76,297,cs),
(62,285,o),
(67,264,o),
(93,279,cs),
(257,374,o),
(347,494,o),
(436,646,cs),
(439,652,o),
(437,660,o),
(431,663,cs)
);
},
{
closed = 1;
nodes = (
(302,494,l),
(847,494,ls),
(871,494,o),
(880,500,o),
(880,514,cs),
(880,535,o),
(796,578,o),
(760,591,c),
(752,550,o),
(733,528,o),
(701,528,cs),
(302,528,l)
);
},
{
closed = 1;
nodes = (
(280,367,o),
(283,346,o),
(303,346,cs),
(652,345,l),
(537,277,o),
(465,238,o),
(405,188,cs),
(261,68,o),
(303,-57,o),
(566,-51,cs),
(768,-46,o),
(839,-29,o),
(888,4,cs),
(893,7,o),
(897,21,o),
(887,26,cs),
(878,30,o),
(873,42,o),
(873,51,cs),
(873,67,o),
(910,210,o),
(914,228,cs),
(920,254,o),
(890,260,o),
(882,231,cs),
(831,48,o),
(812,15,o),
(569,1,cs),
(406,-8,o),
(299,44,o),
(457,164,cs),
(520,212,o),
(590,245,o),
(721,325,c),
(753,328,o),
(764,335,o),
(764,346,cs),
(764,363,o),
(712,390,o),
(678,402,c),
(669,382,o),
(656,377,o),
(647,377,cs),
(279,378,l)
);
}
);
width = 1000;
}
);
unicode = 20062;
},
{
glyphname = uni4E89;
lastChange = "2023-09-21 14:49:36 +0000";
layers = (
{
layerId = m01;
shapes = (
{
closed = 1;
nodes = (
(226,401,o),
(353,521,o),
(429,649,cs),
(433,655,o),
(430,663,o),
(426,665,cs),
(370,691,ls),
(366,693,o),
(361,692,o),
(359,686,cs),
(323,585,o),
(201,443,o),
(117,371,cs),
(108,364,o),
(122,351,o),
(130,355,cs)
);
},
{
closed = 1;
nodes = (
(303,541,l),
(566,541,l),
(556,515,o),
(525,461,o),
(511,440,c),
(545,434,l),
(571,458,o),
(615,497,o),
(644,520,c),
(679,527,o),
(693,534,o),
(693,547,cs),
(693,571,o),
(628,598,o),
(585,614,c),
(582,591,o),
(572,575,o),
(551,575,cs),
(320,575,l)
);
},
{
closed = 1;
nodes = (
(757,120,o),
(774,132,o),
(774,146,cs),
(774,401,l),
(802,407,o),
(818,411,o),
(818,426,cs),
(818,449,o),
(759,491,o),
(732,500,c),
(725,471,o),
(700,455,o),
(672,455,cs),
(221,456,l),
(221,437,o),
(227,426,o),
(251,426,cs),
(705,425,l),
(705,132,ls),
(705,120,o),
(710,120,o),
(727,120,cs)
);
},
{
closed = 1;
nodes = (
(747,163,l),
(751,197,l),
(203,197,l),
(203,178,o),
(208,163,o),
(232,163,cs)
);
},
{
closed = 1;
nodes = (
(452,435,l),
(452,56,ls),
(452,26,o),
(438,12,o),
(376,12,cs),
(352,12,o),
(274,17,o),
(243,19,cs),
(212,21,o),
(202,-5,o),
(241,-11,cs),
(274,-17,o),
(346,-26,o),
(361,-31,cs),
(402,-47,o),
(384,-62,o),
(426,-62,cs),
(477,-62,o),
(521,-14,o),
(521,36,cs),
(521,435,l)
);
},
{
closed = 1;
nodes = (
(907,290,ls),
(931,290,o),
(940,296,o),
(940,310,cs),
(940,331,o),
(873,364,o),
(837,377,c),
(829,336,o),
(814,324,o),
(782,324,cs),
(75,324,l),
(75,305,o),
(80,290,o),
(104,290,cs)
);
}
);
width = 1000;
}
);
unicode = 20105;
},
{
glyphname = uni4E8C;
lastChange = "2023-09-21 14:49:36 +0000";
layers = (
{
layerId = m01;
shapes = (
{
closed = 1;
nodes = (
(905,57,ls),
(922,57,o),
(932,63,o),
(932,72,cs),
(932,87,o),
(858,136,o),
(808,148,c),
(814,113,o),
(797,86,o),
(758,86,cs),
(67,86,l),
(67,71,o),
(72,57,o),
(88,57,cs)
);
},
{
closed = 1;
nodes = (
(767,528,ls),
(784,528,o),
(794,534,o),
(794,543,cs),
(794,558,o),
(728,605,o),
(678,617,c),
(684,582,o),
(669,557,o),
(630,557,cs),
(184,557,l),
(184,542,o),
(189,528,o),
(205,528,cs)
);
}
);
width = 1000;
}
);
unicode = 20108;
},
{
glyphname = uni4E91;
lastChange = "2023-09-21 14:49:36 +0000";
layers = (
{
layerId = m01;
shapes = (
{
closed = 1;
nodes = (
(905,343,ls),
(922,343,o),
(932,349,o),
(932,358,cs),
(932,373,o),
(858,422,o),
(808,434,c),
(814,399,o),
(797,372,o),
(758,372,cs),
(87,372,l),
(87,357,o),
(92,343,o),
(108,343,cs)
);
},
{
closed = 1;
nodes = (
(767,558,ls),
(784,558,o),
(794,564,o),
(794,573,cs),
(794,588,o),
(728,635,o),
(678,647,c),
(684,612,o),
(669,587,o),
(630,587,cs),
(184,587,l),
(184,572,o),
(189,558,o),
(205,558,cs)
);
},
{
closed = 1;
nodes = (
(519,322,o),
(518,333,o),
(508,337,cs),
(436,367,l),
(373,234,o),
(314,146,o),
(188,36,c),
(210,8,l),
(352,116,o),
(428,202,o),
(511,311,cs)
);
},
{
closed = 1;
nodes = (
(143,-18,ls),
(146,-37,o),
(160,-30,o),
(167,-29,cs),
(356,-10,o),
(572,33,o),
(752,93,c),
(737,122,l),
(560,73,o),
(354,44,o),
(132,51,c)
);
},
{
closed = 1;
nodes = (
(737,83,o),
(782,-16,cs),
(789,-30,o),
(792,-42,o),
(811,-41,cs),
(845,-39,o),
(862,-2,o),
(861,28,cs),
(858,85,o),
(727,172,o),
(588,234,cs),
(574,240,o),
(564,242,o),
(558,232,cs),
(552,220,o),
(560,214,o),
(574,207,cs),
(666,153,o)
);
}
);
width = 1000;
}
);
unicode = 20113;
},
{
glyphname = uni4E9A;
lastChange = "2023-09-21 14:49:36 +0000";
layers = (
{
layerId = m01;
shapes = (
{
closed = 1;
nodes = (
(834,583,ls),
(851,583,o),
(861,589,o),
(861,598,cs),
(861,613,o),
(805,654,o),
(755,666,c),
(762,631,o),
(747,612,o),
(707,612,cs),
(155,612,l),
(155,597,o),
(160,583,o),
(176,583,cs)
);
},
{
closed = 1;
nodes = (
(434,584,ls),
(434,588,o),
(430,592,o),
(426,593,cs),
(409,600,o),
(389,604,o),
(365,605,c),
(365,21,ls),
(365,10,o),
(371,2,o),
(387,2,cs),
(412,2,o),
(436,22,o),
(436,41,cs)
);
},
{
closed = 1;
nodes = (
(624,584,ls),
(624,588,o),
(620,592,o),
(616,593,cs),
(599,600,o),
(579,604,o),
(555,605,c),
(555,21,ls),
(555,10,o),
(561,2,o),
(577,2,cs),
(602,2,o),
(626,22,o),
(626,41,cs)
);
},
{
closed = 1;
nodes = (
(914,-3,ls),
(931,-3,o),
(941,3,o),
(941,12,cs),
(941,27,o),
(885,68,o),
(835,80,c),
(842,45,o),
(827,26,o),
(787,26,cs),
(65,26,l),
(65,11,o),
(70,-3,o),
(86,-3,cs)
);
},
{
closed = 1;
nodes = (
(229,264,o),
(239,184,cs),
(241,170,o),
(251,158,o),
(270,159,cs),
(304,161,o),
(319,198,o),
(318,228,cs),
(315,295,o),
(249,377,o),
(159,434,cs),
(135,449,o),
(122,437,o),
(145,410,cs),
(201,343,o)
);
},
{
closed = 1;
nodes = (
(783,465,ls),
(777,467,o),
(769,466,o),
(768,459,cs),
(757,368,o),
(728,279,o),
(672,188,cs),
(662,172,o),
(676,154,o),
(694,171,cs),
(775,249,o),
(826,346,o),
(865,424,cs),
(868,430,o),
(865,439,o),
(858,441,cs)
);
}
);
width = 1000;
}
);
unicode = 20122;
},
{
glyphname = uni4EA0.001;
lastChange = "2023-09-21 14:49:36 +0000";
layers = (
{
layerId = m01;
shapes = (
{
closed = 1;
nodes = (
(533,491,o),
(562,525,o),
(562,550,cs),
(562,585,o),
(508,637,o),
(412,681,cs),
(388,691,o),
(372,667,o),
(392,652,cs),
(463,594,o),
(473,543,o),
(478,521,cs),
(481,508,o),
(486,491,o),
(508,491,cs)
);
},
{
closed = 1;
nodes = (
(907,436,ls),
(931,436,o),
(940,442,o),
(940,456,cs),
(940,477,o),
(867,520,o),
(831,533,c),
(823,492,o),
(804,470,o),
(772,470,cs),
(62,470,l),
(62,451,o),
(67,436,o),
(91,436,cs)
);
}
);
width = 1000;
}
);
},
{
glyphname = uni4EA1;
lastChange = "2023-09-21 14:49:36 +0000";
layers = (
{
layerId = m01;
shapes = (
{
closed = 1;
nodes = (
(542,501,o),
(571,535,o),
(571,560,cs),
(571,595,o),
(517,647,o),
(421,691,cs),
(397,701,o),
(381,677,o),
(401,662,cs),
(472,604,o),
(482,553,o),
(487,531,cs),
(490,518,o),
(495,501,o),
(517,501,cs)
);
},
{
closed = 1;
nodes = (
(907,446,ls),
(931,446,o),
(940,452,o),
(940,466,cs),
(940,487,o),
(867,530,o),
(831,543,c),
(823,502,o),
(804,480,o),
(772,480,cs),
(62,480,l),
(62,461,o),
(67,446,o),
(91,446,cs)
);
},
{
closed = 1;
nodes = (
(300,455,l),
(225,467,l),
(225,-3,ls),
(225,-15,o),
(229,-21,o),
(247,-21,cs),
(280,-21,o),
(299,1,o),
(299,15,cs)
);
},
{
closed = 1;
nodes = (
(877,26,ls),
(901,26,o),
(910,32,o),
(910,46,cs),
(910,67,o),
(837,110,o),
(801,123,c),
(793,82,o),
(774,60,o),
(742,60,cs),
(242,60,l),
(242,41,o),
(247,26,o),
(271,26,cs)
);
}
);
width = 1000;
}
);
unicode = 20129;
},
{
glyphname = uni4EA2;
lastChange = "2023-09-21 14:49:36 +0000";
layers = (
{
layerId = m01;
shapes = (
{
closed = 1;
nodes = (
(871,473,ls),
(894,473,o),
(910,479,o),
(910,493,cs),
(910,516,o),
(842,553,o),
(779,569,c),
(790,529,o),
(774,503,o),
(729,503,cs),
(93,503,l),
(92,489,o),
(96,473,o),
(113,473,cs)
);
},
{
closed = 1;
nodes = (
(537,519,o),
(562,545,o),
(561,568,cs),
(560,602,o),
(512,657,o),
(412,690,cs),
(386,700,o),
(377,690,o),
(397,673,cs),
(465,615,o),
(480,557,o),
(484,536,cs),
(486,525,o),
(491,515,o),
(506,516,cs)
);
},
{
closed = 1;
nodes = (
(379,376,o),
(357,380,o),
(334,383,c),
(344,162,o),
(333,77,o),
(125,-36,cs),
(109,-45,o),
(115,-62,o),
(139,-56,cs),
(388,10,o),
(405,166,o),
(398,369,c)
);
},
{
closed = 1;
nodes = (
(385,332,l),
(574,332,l),
(574,45,ls),
(574,-15,o),
(596,-45,o),
(695,-44,cs),
(873,-42,o),
(918,-27,o),
(940,-1,cs),
(943,3,o),
(944,10,o),
(939,13,cs),
(927,19,o),
(920,30,o),
(920,44,cs),
(920,81,o),
(922,152,o),
(928,199,cs),
(931,225,o),
(905,229,o),
(900,204,cs),
(888,147,o),
(879,99,o),
(858,58,cs),
(839,22,o),
(770,16,o),
(692,16,cs),
(649,16,o),
(643,28,o),
(643,56,cs),
(643,311,l),
(662,314,o),
(674,322,o),
(674,334,cs),
(674,353,o),
(622,382,o),
(593,395,c),
(585,372,o),
(572,361,o),
(559,361,cs),
(383,361,l)
);
}
);
width = 1000;
}
);
unicode = 20130;
},
{
glyphname = uni4EA4;
lastChange = "2023-09-21 14:49:36 +0000";
layers = (
{
layerId = m01;
shapes = (
{
closed = 1;
nodes = (
(871,491,ls),
(894,491,o),
(910,497,o),
(910,511,cs),
(910,534,o),
(842,571,o),
(779,587,c),
(790,547,o),
(774,521,o),
(729,521,cs),
(93,521,l),
(92,507,o),
(96,491,o),
(113,491,cs)
);
},
{
closed = 1;
nodes = (
(528,538,o),
(553,564,o),
(552,587,cs),
(551,621,o),
(507,650,o),
(407,683,cs),
(381,693,o),
(370,680,o),
(392,666,cs),
(449,628,o),
(471,576,o),
(475,555,cs),
(477,544,o),
(482,534,o),
(497,535,cs)
);
},
{
closed = 1;
nodes = (
(370,474,ls),
(363,479,o),
(356,477,o),
(352,469,cs),
(313,382,o),
(227,302,o),
(139,248,cs),
(105,227,o),
(119,207,o),
(152,222,cs),
(245,264,o),
(344,340,o),
(416,421,cs),
(423,429,o),
(421,436,o),
(414,441,cs)
);
},
{
closed = 1;
nodes = (
(820,233,o),
(838,263,o),
(837,286,cs),
(835,353,o),
(681,432,o),
(584,468,cs),
(558,478,o),
(547,459,o),
(569,447,cs),
(662,398,o),
(748,313,o),
(764,254,cs),
(767,244,o),
(774,233,o),
(789,233,cs)
);
},
{
closed = 1;
nodes = (
(485,168,o),
(384,343,cs),
(371,365,o),
(344,350,o),
(358,325,c),
(446,142,o),
(572,-1,o),
(755,-57,cs),
(761,-59,o),
(767,-58,o),
(773,-57,cs),
(811,-50,o),
(867,-38,o),
(902,-29,cs),
(933,-21,o),
(937,-8,o),
(899,0,cs),
(625,60,o)
);
},
{
closed = 1;
nodes = (
(583,380,ls),
(576,383,o),
(571,379,o),
(569,372,cs),
(503,138,o),
(326,41,o),
(124,-25,cs),
(81,-39,o),
(97,-61,o),
(130,-55,cs),
(356,-13,o),
(560,108,o),
(648,336,c),
(651,341,o),
(648,347,o),
(643,349,cs)
);
}
);
width = 1000;
}
);
unicode = 20132;
},
{
glyphname = uni4EA5.001;
lastChange = "2023-09-21 14:49:36 +0000";
layers = (
{
layerId = m01;
shapes = (
{
closed = 1;
nodes = (
(889,519,ls),
(909,519,o),
(919,526,o),
(919,538,cs),
(919,559,o),
(845,594,o),
(812,607,c),
(804,580,o),
(784,554,o),
(760,554,cs),
(77,554,l),
(77,536,o),
(80,519,o),
(109,519,cs)
);
},
{
closed = 1;
nodes = (
(504,549,o),
(527,593,o),
(526,609,cs),
(526,634,o),
(484,668,o),
(423,686,cs),
(403,692,o),
(398,681,o),
(411,669,cs),
(441,643,o),
(464,586,o),
(466,562,cs),
(467,553,o),
(470,544,o),
(482,546,cs)
);
},
{
closed = 1;
nodes = (
(375,363,o),
(450,420,o),
(488,483,cs),
(492,489,o),
(489,491,o),
(484,493,cs),
(417,528,ls),
(414,529,o),
(409,528,o),
(408,525,cs),
(391,456,o),
(350,384,o),
(282,329,cs),
(276,323,o),
(287,316,o),
(296,320,cs)
);
},
{
closed = 1;
nodes = (
(253,281,ls),
(255,273,o),
(263,272,o),
(268,273,cs),
(372,288,o),
(481,308,o),
(591,351,c),
(586,379,l),
(478,349,o),
(355,336,o),
(235,354,c)
);
},
{
closed = 1;
nodes = (
(404,144,o),
(592,267,o),
(694,446,cs),
(697,452,o),
(695,458,o),
(689,460,cs),
(626,485,ls),
(620,487,o),
(614,484,o),
(611,477,cs),
(527,297,o),
(378,186,o),
(135,108,cs),
(114,101,o),
(122,85,o),
(143,89,cs)
);
},
{
closed = 1;
nodes = (
(432,-5,o),
(677,134,o),
(779,313,cs),
(782,319,o),
(780,325,o),
(774,327,cs),
(711,352,ls),
(705,354,o),
(699,351,o),
(696,344,cs),
(612,164,o),
(406,37,o),
(103,-41,cs),
(82,-46,o),
(90,-64,o),
(111,-60,cs)
);
},
{
closed = 1;
nodes = (
(892,-56,o),
(896,-28,o),
(892,-7,cs),
(881,43,o),
(677,114,o),
(549,130,cs),
(525,133,o),
(518,113,o),
(540,106,cs),
(656,71,o),
(785,-13,o),
(817,-47,cs),
(840,-72,o),
(854,-74,o),
(869,-67,cs)
);
}
);
width = 1000;
}
);
},
{
glyphname = uni4EA6;
lastChange = "2023-09-21 14:49:36 +0000";
layers = (
{
layerId = m01;
shapes = (
{
closed = 1;
nodes = (
(871,491,ls),
(894,491,o),
(910,497,o),
(910,511,cs),
(910,534,o),
(842,571,o),
(779,587,c),
(790,547,o),
(774,521,o),
(729,521,cs),
(93,521,l),
(92,507,o),
(96,491,o),
(113,491,cs)
);
},
{
closed = 1;
nodes = (
(528,538,o),
(553,564,o),
(552,587,cs),
(551,621,o),
(507,650,o),
(407,683,cs),
(381,693,o),
(370,680,o),
(392,666,cs),
(449,628,o),
(471,576,o),
(475,555,cs),
(477,544,o),
(482,534,o),
(497,535,cs)
);
},
{
closed = 1;
nodes = (
(152,-62,o),
(162,-57,o),
(175,-50,cs),
(371,54,o),
(420,214,o),
(420,397,cs),
(420,506,l),
(350,511,l),
(353,421,ls),
(359,240,o),
(314,92,o),
(157,-26,cs),
(147,-33,o),
(137,-45,o),
(145,-54,cs)
);
},
{
closed = 1;
nodes = (
(585,-62,o),
(628,-15,o),
(628,33,cs),
(628,495,ls),
(628,498,o),
(628,503,o),
(619,507,cs),
(604,514,o),
(573,515,o),
(560,515,c),
(560,53,ls),
(560,24,o),
(547,10,o),
(486,10,cs),
(462,10,o),
(444,11,o),
(406,14,cs),
(375,16,o),
(366,-10,o),
(404,-16,cs),
(530,-37,o),
(480,-62,o),
(535,-62,cs)
);
},
{
closed = 1;
nodes = (
(240,391,ls),
(232,394,o),
(226,390,o),
(224,381,cs),
(200,276,o),
(155,193,o),
(98,126,cs),
(79,103,o),
(96,93,o),
(116,107,cs),
(207,173,o),
(250,257,o),
(297,355,cs),
(300,364,o),
(297,371,o),
(289,374,cs)
);
},
{
closed = 1;
nodes = (
(827,97,o),
(853,121,o),
(858,143,cs),
(875,208,o),
(766,323,o),
(682,384,cs),
(660,401,o),
(645,386,o),
(662,368,cs),
(729,294,o),
(780,194,o),
(779,133,cs),
(780,122,o),
(783,110,o),
(798,106,cs)
);
}
);
width = 1000;
}
);
unicode = 20134;
},
{
glyphname = uni4EAC;
lastChange = "2023-09-21 14:49:36 +0000";
layers = (
{
layerId = m01;
shapes = (
{
closed = 1;
nodes = (
(531,545,o),
(557,575,o),
(557,597,cs),
(557,629,o),
(480,679,o),
(427,696,cs),
(405,704,o),
(396,688,o),
(412,673,cs),
(450,639,o),
(477,592,o),
(482,571,cs),
(484,560,o),
(489,545,o),
(509,545,cs)
);
},
{
closed = 1;
nodes = (
(894,520,ls),
(911,520,o),
(921,526,o),
(921,535,cs),
(921,550,o),
(845,599,o),
(795,611,c),
(802,576,o),
(787,549,o),
(747,549,cs),
(85,549,l),
(85,534,o),
(90,520,o),
(106,520,cs)
);
},
{
closed = 1;
nodes = (
(707,239,l),
(707,271,l),
(299,271,l),
(299,239,l)
);
},
{
closed = 1;
nodes = (
(676,398,l),
(676,233,ls),
(676,221,o),
(680,215,o),
(698,215,cs),
(732,215,o),
(750,237,o),
(750,251,cs),
(751,383,l),
(773,387,o),
(783,394,o),
(783,406,cs),
(783,424,o),
(734,455,o),
(686,468,c),
(682,445,o),
(674,430,o),
(651,430,cs),
(336,430,l),
(314,446,o),
(286,461,o),
(256,472,c),
(256,232,ls),
(256,220,o),
(260,214,o),
(278,214,cs),
(311,214,o),
(330,236,o),
(330,250,cs),
(330,398,l)
);
},
{
closed = 1;
nodes = (
(543,233,ls),
(543,238,o),
(542,242,o),
(538,243,cs),
(521,250,o),
(490,253,o),
(466,254,c),
(466,66,ls),
(466,31,o),
(447,12,o),
(397,12,cs),
(349,12,o),
(305,13,o),
(279,13,cs),
(241,13,o),
(251,-8,o),
(275,-10,cs),
(378,-21,o),
(382,-60,o),
(421,-60,cs),
(506,-60,o),
(543,-8,o),
(543,36,cs)
);
},
{
closed = 1;
nodes = (
(195,16,o),
(281,57,o),
(379,132,cs),
(384,136,o),
(385,143,o),
(381,147,cs),
(337,186,ls),
(334,188,o),
(330,189,o),
(327,185,cs),
(255,105,o),
(173,50,o),
(44,-5,cs),
(35,-9,o),
(42,-24,o),
(51,-22,cs)
);
},
{
closed = 1;
nodes = (
(707,107,o),
(798,22,o),
(838,-31,cs),
(848,-44,o),
(858,-50,o),
(874,-44,cs),
(898,-33,o),
(907,7,o),
(899,32,cs),
(884,78,o),
(723,150,o),
(618,178,cs),
(593,185,o),
(586,162,o),
(609,152,cs)
);
}
);
width = 1000;
}
);
unicode = 20140;
},
{
glyphname = uni4EBA;
lastChange = "2023-09-21 14:49:36 +0000";
layers = (
{
layerId = m01;
shapes = (
{
closed = 1;
nodes = (
(315,14,o),
(495,163,o),
(524,444,cs),
(529,492,o),
(530,575,o),
(529,675,cs),
(529,680,o),
(524,685,o),
(521,686,cs),
(500,693,o),
(478,697,o),
(455,698,c),
(457,628,o),
(458,550,o),
(455,488,cs),
(444,248,o),
(304,64,o),
(97,-39,cs),
(80,-47,o),
(76,-53,o),
(80,-61,cs),
(83,-69,o),
(93,-71,o),
(106,-66,cs)
);
},
{
closed = 1;
nodes = (
(715,70,o),
(566,305,o),
(498,516,c),
(491,432,l),
(538,219,o),
(696,17,o),
(800,-55,c),
(832,-55,o),
(869,-51,o),
(915,-46,cs),
(929,-44,o),
(935,-40,o),
(935,-32,cs),
(935,-25,o),
(928,-22,o),
(916,-17,cs)
);
}
);
width = 1000;
}
);
unicode = 20154;
},
{
glyphname = uni4EBB;
lastChange = "2023-09-21 14:49:36 +0000";
layers = (
{
layerId = m01;
shapes = (
{
closed = 1;
nodes = (
(264,336,o),
(403,488,o),
(527,652,cs),
(531,658,o),
(529,665,o),
(523,668,cs),
(458,704,ls),
(453,707,o),
(446,705,o),
(443,699,cs),
(371,539,o),
(201,354,o),
(42,243,cs),
(31,235,o),
(39,221,o),
(51,227,cs)
);
},
{
closed = 1;
nodes = (
(342,-64,o),
(370,-44,o),
(370,-25,cs),
(369,420,ls),
(369,424,o),
(365,428,o),
(361,429,cs),
(336,436,o),
(319,440,o),
(295,441,c),
(295,-45,ls),
(295,-56,o),
(301,-64,o),
(317,-64,cs)
);
}
);
width = 1000;
}
);
unicode = 20155;
},
{
glyphname = uni4ECA;
lastChange = "2023-09-21 14:49:36 +0000";
layers = (
{
layerId = m01;
shapes = (
{
closed = 1;
nodes = (
(246,338,o),
(422,447,o),
(561,629,cs),
(565,634,o),
(563,639,o),
(558,643,cs),
(499,684,ls),
(494,688,o),
(488,687,o),
(484,680,cs),
(380,509,o),
(235,388,o),
(75,296,cs),
(60,287,o),
(56,282,o),
(58,276,cs),
(61,267,o),
(71,266,o),
(86,272,cs)
);
},
{
closed = 1;
nodes = (
(877,283,o),
(900,287,o),
(929,297,cs),
(944,303,o),
(950,306,o),
(950,313,cs),
(950,320,o),
(934,328,o),
(920,334,cs),
(850,367,o),
(665,469,o),
(513,622,c),
(479,602,l),
(615,455,o),
(746,335,o),
(815,289,cs),
(832,278,o),
(838,278,o),
(859,281,cs)
);
},
{
closed = 1;
nodes = (
(560,276,o),
(579,313,o),
(572,334,cs),
(558,377,o),
(494,413,o),
(437,428,cs),
(421,432,o),
(413,418,o),
(431,404,cs),
(474,369,o),
(504,306,o),
(509,286,cs),
(511,275,o),
(521,266,o),
(536,269,cs)
);
},
{
closed = 1;
nodes = (
(203,220,o),
(216,206,o),
(232,206,cs),
(647,206,l),
(588,128,o),
(487,30,o),
(400,-34,cs),
(392,-40,o),
(400,-65,o),
(422,-54,cs),
(515,-10,o),
(629,81,o),
(741,185,c),
(778,191,o),
(792,198,o),
(792,213,cs),
(792,234,o),
(730,266,o),
(685,283,c),
(683,258,o),
(646,242,o),
(613,242,cs),
(202,242,l)
);
}
);
width = 1000;
}
);
unicode = 20170;
},
{
glyphname = uni4ED3;
lastChange = "2023-09-21 14:49:36 +0000";
layers = (
{
layerId = m01;
shapes = (
{
closed = 1;
nodes = (
(246,338,o),
(422,447,o),
(561,629,cs),
(565,634,o),
(563,639,o),
(558,643,cs),
(499,684,ls),
(494,688,o),
(488,687,o),
(484,680,cs),
(380,509,o),
(235,388,o),
(75,296,cs),
(60,287,o),
(56,282,o),
(58,276,cs),
(61,267,o),
(71,266,o),
(86,272,cs)
);
},
{
closed = 1;
nodes = (
(877,283,o),
(900,287,o),
(929,297,cs),
(944,303,o),
(950,306,o),
(950,313,cs),
(950,320,o),
(934,328,o),
(920,334,cs),
(850,367,o),
(665,469,o),
(513,622,c),
(479,602,l),
(615,455,o),
(746,335,o),
(815,289,cs),
(832,278,o),
(838,278,o),
(859,281,cs)
);
},
{
closed = 1;
nodes = (
(651,108,o),
(660,143,o),
(664,190,cs),
(674,301,l),
(697,304,o),
(708,311,o),
(708,322,cs),
(708,338,o),
(660,365,o),
(625,378,c),
(616,361,o),
(608,347,o),
(588,347,cs),
(333,348,l),
(348,314,l),
(605,313,l),
(600,221,ls),
(598,184,o),
(596,166,o),
(532,166,cs),
(525,166,o),
(503,166,o),
(495,166,cs),
(485,166,o),
(473,166,o),
(471,159,cs),
(468,149,o),
(479,142,o),
(491,141,cs),
(561,138,o),
(521,94,o),
(561,98,cs)
);
},
{
closed = 1;
nodes = (
(373,359,ls),
(373,363,o),
(369,367,o),
(365,369,cs),
(348,376,o),
(327,380,o),
(306,381,c),
(306,56,ls),
(306,8,o),
(328,-35,o),
(412,-44,cs),
(475,-51,o),
(578,-51,o),
(605,-49,cs),
(716,-42,o),
(765,-29,o),
(802,2,cs),
(810,8,o),
(812,17,o),
(809,26,cs),
(805,37,o),
(802,51,o),
(805,65,cs),
(809,92,o),
(819,140,o),
(821,159,cs),
(826,200,o),
(800,199,o),
(789,169,cs),
(756,75,o),
(723,16,o),
(603,6,cs),
(573,4,o),
(454,3,o),
(419,10,cs),
(394,15,o),
(373,31,o),
(373,57,cs)
);
}
);
width = 1000;
}
);
unicode = 20179;
},
{
glyphname = uni4EE4.001;
lastChange = "2023-09-21 14:49:36 +0000";
layers = (
{
layerId = m01;
shapes = (
{
closed = 1;
nodes = (
(246,351,o),
(425,465,o),
(564,640,cs),
(568,645,o),
(566,650,o),
(561,654,cs),
(502,693,ls),
(497,697,o),
(491,696,o),
(487,689,cs),
(383,525,o),
(235,399,o),
(75,311,cs),
(60,302,o),
(56,297,o),
(58,291,cs),
(61,283,o),
(71,282,o),
(86,287,cs)
);
},
{
closed = 1;
nodes = (
(877,301,o),
(900,305,o),
(929,315,cs),
(944,320,o),
(951,321,o),
(951,328,cs),
(951,335,o),
(942,334,o),
(928,340,cs),
(858,372,o),
(683,494,o),
(531,641,c),
(497,622,l),
(633,481,o),
(746,351,o),
(815,307,cs),
(832,296,o),
(838,296,o),
(859,299,cs)
);
},
{
closed = 1;
nodes = (
(560,306,o),
(579,343,o),
(572,364,cs),
(558,407,o),
(494,443,o),
(437,458,cs),
(421,462,o),
(413,448,o),
(431,434,cs),
(474,399,o),
(504,336,o),
(509,316,cs),
(511,305,o),
(521,296,o),
(536,299,cs)
);
},
{
closed = 1;
nodes = (
(212,250,o),
(225,236,o),
(241,236,cs),
(667,236,l),
(601,165,o),
(506,89,o),
(462,49,c),
(481,26,l),
(506,38,o),
(638,111,o),
(750,215,c),
(787,221,o),
(801,228,o),
(801,243,cs),
(801,267,o),
(739,296,o),
(694,313,c),
(692,288,o),
(661,272,o),
(628,272,cs),
(211,272,l)
);
},
{
closed = 1;
nodes = (
(591,-56,o),
(608,-19,o),
(603,2,cs),
(591,45,o),
(420,127,o),
(356,143,cs),
(340,147,o),
(331,131,o),
(350,119,cs),
(428,71,o),
(482,24,o),
(540,-46,cs),
(548,-55,o),
(552,-66,o),
(567,-63,cs)
);
}
);
width = 1000;
}
);
},
{
glyphname = uni4F1A;
lastChange = "2023-09-21 14:49:36 +0000";
layers = (
{
layerId = m01;
shapes = (
{
closed = 1;
nodes = (
(246,361,o),
(417,466,o),
(560,630,cs),
(564,635,o),
(562,640,o),
(557,644,cs),
(502,690,ls),
(497,694,o),
(491,693,o),
(487,686,cs),
(389,515,o),
(235,409,o),
(75,321,cs),
(46,304,o),
(55,287,o),
(86,297,cs)
);
},
{
closed = 1;
nodes = (
(877,331,o),
(900,336,o),
(929,345,cs),
(963,356,o),
(956,363,o),
(932,372,cs),
(870,395,o),
(663,484,o),
(531,631,c),
(500,602,l),
(635,452,o),
(736,381,o),
(815,337,cs),
(833,327,o),
(838,326,o),
(859,329,cs)
);
},
{
closed = 1;
nodes = (
(666,353,ls),
(683,353,o),
(693,359,o),
(693,368,cs),
(693,383,o),
(647,410,o),
(617,422,c),
(623,397,o),
(612,382,o),
(582,382,cs),
(306,382,l),
(306,367,o),
(311,353,o),
(327,353,cs)
);
},
{
closed = 1;
nodes = (
(851,224,ls),
(874,224,o),
(890,230,o),
(890,244,cs),
(890,267,o),
(822,304,o),
(759,320,c),
(770,280,o),
(754,254,o),
(709,254,cs),
(113,254,l),
(112,240,o),
(116,224,o),
(133,224,cs)
);
},
{
closed = 1;
nodes = (
(487,202,o),
(484,210,o),
(475,214,cs),
(406,245,l),
(353,156,o),
(304,90,o),
(228,18,c),
(250,-3,l),
(342,67,o),
(405,123,o),
(478,194,cs)
);
},
{
closed = 1;
nodes = (
(183,-23,ls),
(186,-37,o),
(200,-32,o),
(207,-31,cs),
(396,-17,o),
(562,7,o),
(742,52,c),
(727,82,l),
(550,45,o),
(394,32,o),
(172,37,c)
);
},
{
closed = 1;
nodes = (
(774,-50,o),
(803,-19,o),
(802,8,cs),
(801,48,o),
(734,133,o),
(616,172,cs),
(586,184,o),
(575,172,o),
(599,152,cs),
(679,84,o),
(707,-5,o),
(711,-30,cs),
(714,-43,o),
(720,-54,o),
(737,-53,cs)
);
}
);
width = 1000;
}
);
unicode = 20250;
},
{
glyphname = uni4F59;
lastChange = "2023-09-21 14:49:36 +0000";
layers = (
{
layerId = m01;
shapes = (
{
closed = 1;
nodes = (
(254,370,o),
(422,477,o),
(561,629,cs),
(565,634,o),
(567,638,o),
(554,647,cs),
(502,682,ls),
(492,689,o),
(489,687,o),
(484,680,cs),
(380,529,o),
(243,420,o),
(83,328,cs),
(68,319,o),
(64,314,o),
(66,308,cs),
(69,299,o),
(79,298,o),
(94,304,cs)
);
},
{
closed = 1;
nodes = (
(874,318,o),
(897,322,o),
(926,332,cs),
(941,338,o),
(947,341,o),
(947,348,cs),
(947,355,o),
(931,363,o),
(917,369,cs),
(847,402,o),
(665,492,o),
(513,635,c),
(479,615,l),
(615,478,o),
(743,370,o),
(812,324,cs),
(829,313,o),
(835,313,o),
(856,316,cs)
);
},
{
closed = 1;
nodes = (
(663,364,ls),
(680,364,o),
(690,370,o),
(690,379,cs),
(690,394,o),
(630,424,o),
(600,436,c),
(606,411,o),
(589,393,o),
(559,393,cs),
(312,393,l),
(312,378,o),
(317,364,o),
(333,364,cs)
);
},
{
closed = 1;
nodes = (
(808,229,ls),
(825,229,o),
(835,235,o),
(835,244,cs),
(835,259,o),
(775,289,o),
(745,301,c),
(751,276,o),
(734,258,o),
(704,258,cs),
(147,258,l),
(147,243,o),
(152,229,o),
(168,229,cs)
);
},
{
closed = 1;
nodes = (
(533,364,ls),
(533,369,o),
(532,373,o),
(528,374,cs),
(511,381,o),
(480,384,o),
(456,385,c),
(456,60,ls),
(456,25,o),
(437,10,o),
(387,10,cs),
(339,10,o),
(315,11,o),
(289,11,cs),
(251,11,o),
(261,-10,o),
(285,-12,cs),
(388,-23,o),
(372,-62,o),
(411,-62,cs),
(496,-62,o),
(533,-10,o),
(533,34,cs)
);
},
{
closed = 1;
nodes = (
(327,203,ls),
(323,206,o),
(318,206,o),
(315,201,cs),
(252,108,o),
(182,61,o),
(79,6,cs),
(67,-1,o),
(65,-22,o),
(84,-18,cs),
(196,4,o),
(290,63,o),
(376,148,cs),
(380,152,o),
(382,163,o),
(378,166,cs)
);
},
{
closed = 1;
nodes = (
(687,107,o),
(778,22,o),
(818,-31,cs),
(828,-44,o),
(838,-50,o),
(854,-44,cs),
(878,-33,o),
(881,4,o),
(873,29,cs),
(858,75,o),
(703,150,o),
(598,178,cs),
(573,185,o),
(566,162,o),
(589,152,cs)
);
}
);
width = 1000;
}
);
unicode = 20313;
},
{
glyphname = uni4F65;
lastChange = "2023-09-21 14:49:36 +0000";
layers = (
{
layerId = m01;
shapes = (
{
closed = 1;
nodes = (
(254,350,o),
(422,447,o),
(561,629,cs),
(565,634,o),
(563,639,o),
(558,643,cs),
(499,684,ls),
(494,688,o),
(488,687,o),
(484,680,cs),
(380,509,o),
(243,400,o),
(83,308,cs),
(68,299,o),
(64,294,o),
(66,288,cs),
(69,279,o),
(79,278,o),
(94,284,cs)
);
},
{
closed = 1;
nodes = (
(877,301,o),
(900,305,o),
(929,315,cs),
(944,321,o),
(950,324,o),
(950,331,cs),
(950,338,o),
(934,346,o),
(920,352,cs),
(850,385,o),
(665,469,o),
(513,622,c),
(479,602,l),
(615,455,o),
(746,353,o),
(815,307,cs),
(832,296,o),
(838,296,o),
(859,299,cs)
);
},
{
closed = 1;
nodes = (
(914,-34,ls),
(931,-34,o),
(941,-28,o),
(941,-19,cs),
(941,-4,o),
(885,37,o),
(835,49,c),
(842,14,o),
(827,-5,o),
(787,-5,cs),
(63,-5,l),
(63,-20,o),
(68,-34,o),
(84,-34,cs)
);
},
{
closed = 1;
nodes = (
(664,352,ls),
(681,352,o),
(691,358,o),
(691,367,cs),
(691,382,o),
(645,409,o),
(615,421,c),
(621,396,o),
(610,381,o),
(580,381,cs),
(293,381,l),
(293,366,o),
(298,352,o),
(314,352,cs)
);
},
{
closed = 1;
nodes = (
(382,49,o),
(390,74,o),
(382,101,cs),
(374,127,o),
(317,201,o),
(241,239,cs),
(223,248,o),
(216,240,o),
(229,225,cs),
(281,169,o),
(312,102,o),
(326,42,cs),
(328,34,o),
(337,27,o),
(350,33,cs)
);
},
{
closed = 1;
nodes = (
(545,103,o),
(553,128,o),
(545,155,cs),
(537,181,o),
(480,255,o),
(404,293,cs),
(386,302,o),
(379,294,o),
(392,279,cs),
(444,223,o),
(475,156,o),
(489,96,cs),
(491,88,o),
(500,81,o),
(513,87,cs)
);
},
{
closed = 1;
nodes = (
(711,290,ls),
(706,292,o),
(701,296,o),
(699,290,cs),
(660,185,o),
(604,117,o),
(517,39,cs),
(507,30,o),
(510,9,o),
(528,17,cs),
(631,65,o),
(709,144,o),
(772,247,cs),
(775,252,o),
(774,263,o),
(769,265,cs)
);
}
);
width = 1000;
}
);
unicode = 20325;
},
{
glyphname = uni4FDE;
lastChange = "2023-09-21 14:49:36 +0000";
layers = (
{
layerId = m01;
shapes = (
{
closed = 1;
nodes = (
(240,412,o),
(407,509,o),
(539,640,cs),
(544,645,o),
(541,650,o),
(536,654,cs),
(481,700,ls),
(476,704,o),
(470,703,o),
(466,696,cs),
(389,566,o),
(226,454,o),
(76,389,cs),
(45,376,o),
(55,355,o),
(87,365,cs)
);
},
{
closed = 1;
nodes = (
(885,382,o),
(907,390,o),
(934,403,cs),
(967,418,o),
(961,432,o),
(936,435,cs),
(873,443,o),
(670,525,o),
(500,651,c),
(469,628,l),
(640,486,o),
(736,427,o),
(820,383,cs),
(839,373,o),
(846,372,o),
(867,378,cs)
);
},
{
closed = 1;
nodes = (
(635,433,ls),
(652,433,o),
(662,439,o),
(662,448,cs),
(662,463,o),
(616,490,o),
(586,502,c),
(592,477,o),
(581,462,o),
(551,462,cs),
(275,462,l),
(275,447,o),
(280,433,o),
(296,433,cs)
);
},
{
closed = 1;
nodes = (
(243,-59,o),
(255,-37,o),
(255,-23,cs),
(255,349,l),
(243,366,o),
(223,381,o),
(191,388,c),
(191,-37,ls),
(191,-49,o),
(196,-59,o),
(213,-59,cs)
);
},
{
closed = 1;
nodes = (
(436,-59,o),
(475,-22,o),
(475,33,cs),
(475,301,l),
(499,305,o),
(513,311,o),
(513,326,cs),
(513,345,o),
(459,372,o),
(429,383,c),
(426,366,o),
(407,353,o),
(386,353,cs),
(209,353,l),
(209,322,l),
(411,322,l),
(411,50,ls),
(411,21,o),
(403,14,o),
(363,14,cs),
(339,14,o),
(309,16,o),
(299,17,cs),
(268,20,o),
(267,-8,o),
(297,-11,cs),
(376,-18,o),
(357,-59,o),
(384,-59,cs)
);
},
{
closed = 1;
nodes = (
(436,241,l),
(218,241,l),
(218,211,l),
(436,211,l)
);
},
{
closed = 1;
nodes = (
(436,128,l),
(218,128,l),
(218,98,l),
(436,98,l)
);
},
{
closed = 1;
nodes = (
(637,340,ls),
(637,343,o),
(634,347,o),
(630,348,cs),
(616,354,o),
(596,359,o),
(575,360,c),
(575,83,ls),
(575,74,o),
(580,67,o),
(594,67,cs),
(618,67,o),
(639,84,o),
(639,101,cs)
);
},
{
closed = 1;
nodes = (
(735,-62,o),
(778,-15,o),
(778,33,cs),
(778,375,ls),
(778,378,o),
(778,383,o),
(769,387,cs),
(754,394,o),
(723,400,o),
(710,400,c),
(710,53,ls),
(710,24,o),
(697,10,o),
(636,10,cs),
(612,10,o),
(594,11,o),
(556,14,cs),
(525,16,o),
(516,-10,o),
(554,-16,cs),
(680,-37,o),
(630,-62,o),
(685,-62,cs)
);
}
);
width = 1000;
}
);
unicode = 20446;
},
{
glyphname = uni5143;
lastChange = "2023-09-21 14:49:36 +0000";
layers = (
{
layerId = m01;
shapes = (
{
closed = 1;
nodes = (
(887,351,ls),
(911,351,o),
(920,357,o),
(920,371,cs),
(920,392,o),
(832,438,o),
(796,451,c),
(788,410,o),
(769,385,o),
(737,385,cs),
(91,385,l),
(91,366,o),
(96,351,o),
(120,351,cs)
);
},
{
closed = 1;
nodes = (
(764,573,ls),
(788,573,o),
(797,579,o),
(797,593,cs),
(797,614,o),
(726,650,o),
(690,663,c),
(682,622,o),
(663,607,o),
(631,607,cs),
(193,607,l),
(193,588,o),
(198,573,o),
(222,573,cs)
);
},
{
closed = 1;
nodes = (
(91,-62,o),
(101,-59,o),
(114,-54,cs),
(332,26,o),
(397,171,o),
(397,362,c),
(330,368,l),
(330,212,o),
(286,69,o),
(97,-28,cs),
(87,-33,o),
(76,-45,o),
(84,-54,cs)
);
},
{
closed = 1;
nodes = (
(627,345,ls),
(627,348,o),
(624,352,o),
(620,355,cs),
(602,362,o),
(579,367,o),
(558,368,c),
(558,78,ls),
(558,-24,o),
(623,-53,o),
(733,-54,cs),
(800,-55,o),
(848,-31,o),
(888,2,cs),
(895,8,o),
(897,17,o),
(894,27,cs),
(890,37,o),
(888,53,o),
(890,67,cs),
(894,95,o),
(905,149,o),
(907,169,cs),
(912,211,o),
(885,210,o),
(874,179,cs),
(832,59,o),
(805,7,o),
(739,6,cs),
(682,5,o),
(627,2,o),
(627,82,cs)
);
}
);
width = 1000;
}
);
unicode = 20803;
},
{
glyphname = uni5146;
lastChange = "2023-09-21 14:49:36 +0000";
layers = (
{
layerId = m01;
shapes = (
{
closed = 1;
nodes = (
(109,-62,o),
(119,-57,o),
(132,-50,cs),
(328,56,o),
(360,227,o),
(375,461,cs),
(378,514,o),
(379,587,o),
(377,645,cs),
(377,654,o),
(373,659,o),
(367,663,cs),
(348,675,o),
(331,680,o),
(303,685,c),
(308,622,o),
(311,554,o),
(310,493,cs),
(306,268,o),
(272,90,o),
(115,-28,cs),
(105,-35,o),
(94,-45,o),
(102,-54,cs)
);
},
{
closed = 1;
nodes = (
(627,665,ls),
(627,668,o),
(624,672,o),
(620,675,cs),
(602,682,o),
(579,687,o),
(558,688,c),
(558,97,ls),
(558,-5,o),
(631,-53,o),
(737,-54,cs),
(853,-55,o),
(897,-31,o),
(937,2,cs),
(944,8,o),
(946,17,o),
(943,27,cs),
(939,37,o),
(937,53,o),
(939,67,cs),
(943,95,o),
(954,149,o),
(956,169,cs),
(961,211,o),
(934,210,o),
(923,179,cs),
(881,59,o),
(866,11,o),
(741,10,cs),
(684,10,o),
(627,21,o),
(627,101,cs)
);
}
);
width = 1000;
}
);
unicode = 20806;
},
{
glyphname = uni5148;
lastChange = "2023-09-21 14:49:36 +0000";
layers = (
{
layerId = m01;
shapes = (
{
closed = 1;
nodes = (
(872,281,ls),
(896,281,o),
(905,287,o),
(905,301,cs),
(905,322,o),
(822,368,o),
(786,381,c),
(778,340,o),
(759,315,o),
(727,315,cs),
(91,315,l),
(91,296,o),
(96,281,o),
(120,281,cs)
);
},
{
closed = 1;
nodes = (
(764,483,ls),
(788,483,o),
(797,489,o),
(797,503,cs),
(797,524,o),
(726,560,o),
(690,573,c),
(682,532,o),
(663,517,o),
(631,517,cs),
(253,517,l),
(253,498,o),
(258,483,o),
(282,483,cs)
);
},
{
closed = 1;
nodes = (
(91,-62,o),
(101,-59,o),
(114,-54,cs),
(332,26,o),
(397,115,o),
(397,306,c),
(330,306,l),
(330,150,o),
(286,69,o),
(97,-28,cs),
(87,-33,o),
(76,-45,o),
(84,-54,cs)
);
},
{
closed = 1;
nodes = (
(617,305,l),
(548,308,l),
(548,78,ls),
(548,-24,o),
(603,-53,o),
(713,-54,cs),
(780,-55,o),
(833,-31,o),
(873,2,cs),
(880,8,o),
(882,17,o),
(879,27,cs),
(875,37,o),
(873,53,o),
(875,67,cs),
(879,95,o),
(890,149,o),
(892,169,cs),
(897,211,o),
(868,210,o),
(859,179,cs),
(820,49,o),
(785,7,o),
(719,6,cs),
(662,5,o),
(617,2,o),
(617,82,cs)
);
},
{
closed = 1;
nodes = (
(516,642,ls),
(516,646,o),
(512,650,o),
(508,651,cs),
(491,658,o),
(471,662,o),
(447,663,c),
(447,307,ls),
(447,296,o),
(453,288,o),
(469,288,cs),
(494,288,o),
(518,308,o),
(518,327,cs)
);
},
{
closed = 1;
nodes = (
(302,641,ls),
(296,644,o),
(288,642,o),
(286,635,cs),
(254,543,o),
(201,470,o),
(131,399,cs),
(119,386,o),
(125,374,o),
(148,387,cs),
(237,435,o),
(305,497,o),
(355,602,cs),
(358,609,o),
(356,617,o),
(349,620,cs)
);
}
);
width = 1000;
}
);
unicode = 20808;
},
{
glyphname = uni514D;
lastChange = "2023-09-21 14:49:36 +0000";
layers = (
{
layerId = m01;
shapes = (
{
closed = 1;
nodes = (
(408,688,ls),
(403,691,o),
(394,690,o),
(391,684,cs),
(323,548,o),
(222,448,o),
(56,353,cs),
(41,344,o),
(45,329,o),
(71,339,cs),
(252,408,o),
(376,501,o),
(464,637,cs),
(468,643,o),
(469,651,o),
(461,656,cs)
);
},
{
closed = 1;
nodes = (
(646,515,l),
(708,522,o),
(730,528,o),
(730,547,cs),
(730,571,o),
(668,600,o),
(623,617,c),
(621,592,o),
(598,576,o),
(575,576,cs),
(342,576,l),
(343,554,o),
(356,540,o),
(372,540,cs),
(612,540,l)
);
},
{
closed = 1;
nodes = (
(536,402,l),
(584,439,o),
(631,488,o),
(681,546,c),
(612,569,l),
(579,513,o),
(539,458,o),
(484,403,c)
);
},
{
closed = 1;
nodes = (
(771,212,l),
(771,244,l),
(249,244,l),
(249,212,l)
);
},
{
closed = 1;
nodes = (
(740,391,l),
(740,191,ls),
(740,179,o),
(744,173,o),
(762,173,cs),
(796,173,o),
(814,195,o),
(814,209,cs),
(814,376,l),
(837,380,o),
(847,387,o),
(847,399,cs),
(847,417,o),
(798,448,o),
(750,461,c),
(746,438,o),
(738,423,o),
(715,423,cs),
(286,423,l),
(206,445,l),
(206,190,ls),
(206,178,o),
(210,172,o),
(228,172,cs),
(261,172,o),
(280,194,o),
(280,208,cs),
(280,391,l)
);
},
{
closed = 1;
nodes = (
(437,-8,o),
(524,125,o),
(540,398,cs),
(540,401,o),
(536,406,o),
(532,406,cs),
(466,413,l),
(455,163,o),
(387,54,o),
(56,-36,cs),
(22,-45,o),
(44,-65,o),
(64,-62,cs)
);
},
{
closed = 1;
nodes = (
(542,234,l),
(542,74,ls),
(542,-15,o),
(553,-45,o),
(689,-54,cs),
(719,-56,o),
(769,-56,o),
(839,-49,cs),
(882,-45,o),
(910,-37,o),
(928,-27,cs),
(937,-22,o),
(938,-5,o),
(929,2,cs),
(920,9,o),
(914,21,o),
(914,35,cs),
(914,57,o),
(925,107,o),
(938,160,cs),
(945,189,o),
(909,192,o),
(902,163,cs),
(875,57,o),
(857,23,o),
(806,12,cs),
(770,4,o),
(703,1,o),
(665,5,cs),
(632,8,o),
(606,21,o),
(606,75,cs),
(606,234,l)
);
}
);
width = 1000;
}
);
unicode = 20813;
},
{
glyphname = uni516B;
lastChange = "2023-09-21 14:49:36 +0000";
layers = (
{
layerId = m01;
shapes = (
{
closed = 1;
nodes = (
(354,503,ls),
(347,505,o),
(341,501,o),
(341,493,cs),
(330,291,o),
(252,161,o),
(75,6,cs),
(54,-12,o),
(68,-30,o),
(94,-15,cs),
(310,109,o),
(400,259,o),
(422,478,cs),
(423,483,o),
(419,487,o),
(415,488,cs)
);
},
{
closed = 1;
nodes = (
(436,564,o),
(444,553,o),
(466,553,cs),
(544,553,l),
(591,288,o),
(675,98,o),
(808,-23,cs),
(813,-28,o),
(819,-31,o),
(829,-29,cs),
(857,-24,o),
(903,-11,o),
(931,-1,cs),
(960,9,o),
(961,20,o),
(932,33,cs),
(781,102,o),
(650,300,o),
(596,544,c),
(614,548,o),
(623,551,o),
(623,560,cs),
(623,576,o),
(575,603,o),
(547,614,c),
(548,597,o),
(538,585,o),
(525,585,cs),
(435,585,l)
);
}
);
width = 1000;
}
);
unicode = 20843;
},
{
glyphname = uni516C;
lastChange = "2023-09-21 14:49:36 +0000";
layers = (
{
layerId = m01;
shapes = (
{
closed = 1;
nodes = (
(287,336,o),
(378,478,o),
(430,606,cs),
(432,612,o),
(431,618,o),
(425,620,cs),
(362,645,ls),
(356,647,o),
(349,644,o),
(347,637,cs),
(313,508,o),
(249,378,o),
(47,241,cs),
(27,228,o),
(48,212,o),
(67,222,cs)
);
},
{
closed = 1;
nodes = (
(516,641,ls),
(512,640,o),
(512,635,o),
(514,631,cs),
(586,468,o),
(678,333,o),
(814,235,cs),
(818,232,o),
(824,233,o),
(828,235,cs),
(854,246,o),
(899,264,o),
(926,274,cs),
(935,278,o),
(943,280,o),
(942,288,cs),
(942,294,o),
(934,295,o),
(925,299,cs),
(770,368,o),
(637,490,o),
(557,643,cs),
(555,646,o),
(551,648,o),
(548,647,cs)
);
},
{
closed = 1;
nodes = (
(519,322,o),
(518,333,o),
(508,337,cs),
(436,367,l),
(373,234,o),
(314,146,o),
(188,36,c),
(210,8,l),
(352,116,o),
(428,202,o),
(511,311,cs)
);
},
{
closed = 1;
nodes = (
(143,-18,ls),
(146,-37,o),
(160,-30,o),
(167,-29,cs),
(356,-10,o),
(558,25,o),
(738,85,c),
(723,114,l),
(546,65,o),
(354,44,o),
(132,51,c)
);
},
{
closed = 1;
nodes = (
(703,66,o),
(738,-37,cs),
(743,-52,o),
(745,-64,o),
(764,-65,cs),
(798,-66,o),
(819,-31,o),
(821,-1,cs),
(823,56,o),
(702,155,o),
(570,231,cs),
(556,238,o),
(547,241,o),
(540,232,cs),
(532,221,o),
(540,214,o),
(553,206,cs),
(639,143,o)
);
}
);
width = 1000;
}
);
unicode = 20844;
},
{
glyphname = uni5171;
lastChange = "2023-09-21 14:49:36 +0000";
layers = (
{
layerId = m01;
shapes = (
{
closed = 1;
nodes = (
(905,203,ls),
(922,203,o),
(932,209,o),
(932,218,cs),
(932,233,o),
(858,282,o),
(808,294,c),
(814,259,o),
(797,232,o),
(758,232,cs),
(87,232,l),
(87,217,o),
(92,203,o),
(108,203,cs)
);
},
{
closed = 1;
nodes = (
(837,438,ls),
(854,438,o),
(864,444,o),
(864,453,cs),
(864,468,o),
(798,515,o),
(748,527,c),
(754,492,o),
(739,467,o),
(700,467,cs),
(164,467,l),
(164,452,o),
(169,438,o),
(185,438,cs)
);
},
{
closed = 1;
nodes = (
(396,630,ls),
(396,633,o),
(393,637,o),
(389,638,cs),
(375,644,o),
(343,649,o),
(322,650,c),
(324,232,ls),
(324,223,o),
(335,216,o),
(349,216,cs),
(373,216,o),
(398,233,o),
(398,250,cs)
);
},
{
closed = 1;
nodes = (
(652,630,ls),
(652,633,o),
(649,637,o),
(645,638,cs),
(631,644,o),
(599,649,o),
(578,650,c),
(580,232,ls),
(580,223,o),
(591,216,o),
(605,216,cs),
(629,216,o),
(654,233,o),
(654,250,cs)
);
},
{
closed = 1;
nodes = (
(740,28,o),
(793,-45,cs),
(802,-56,o),
(806,-68,o),
(823,-64,cs),
(854,-57,o),
(863,-22,o),
(860,5,cs),
(856,46,o),
(720,108,o),
(586,147,cs),
(573,150,o),
(563,151,o),
(558,141,cs),
(555,130,o),
(563,124,o),
(577,120,cs),
(667,84,o)
);
},
{
closed = 1;
nodes = (
(378,157,ls),
(372,162,o),
(363,165,o),
(358,158,cs),
(307,81,o),
(213,7,o),
(123,-32,cs),
(86,-48,o),
(101,-74,o),
(134,-63,cs),
(278,-14,o),
(358,37,o),
(430,97,cs),
(437,102,o),
(441,110,o),
(433,116,cs)
);
}
);
width = 1000;
}
);
unicode = 20849;
},
{
glyphname = uni5176;
lastChange = "2023-09-21 14:49:36 +0000";
layers = (
{
layerId = m01;
shapes = (
{
closed = 1;
nodes = (
(898,128,ls),
(922,128,o),
(931,134,o),
(931,148,cs),
(931,169,o),
(847,212,o),
(811,225,c),
(803,184,o),
(784,162,o),
(752,162,cs),
(73,162,l),
(73,143,o),
(78,128,o),
(102,128,cs)
);
},
{
closed = 1;
nodes = (
(848,528,ls),
(872,528,o),
(881,534,o),
(881,548,cs),
(881,569,o),
(817,602,o),
(781,615,c),
(773,582,o),
(750,562,o),
(718,562,cs),
(133,562,l),
(133,543,o),
(138,528,o),
(162,528,cs)
);
},
{
closed = 1;
nodes = (
(682,399,l),
(682,431,l),
(289,431,l),
(289,399,l)
);
},
{
closed = 1;
nodes = (
(682,261,l),
(682,293,l),
(289,293,l),
(289,261,l)
);
},
{
closed = 1;
nodes = (
(334,659,ls),
(334,663,o),
(330,667,o),
(326,668,cs),
(309,675,o),
(289,679,o),
(265,680,c),
(265,158,ls),
(265,147,o),
(271,139,o),
(287,139,cs),
(312,139,o),
(336,159,o),
(336,178,cs)
);
},
{
closed = 1;
nodes = (
(704,659,ls),
(704,663,o),
(700,667,o),
(696,668,cs),
(679,675,o),
(659,679,o),
(635,680,c),
(635,156,ls),
(635,145,o),
(641,137,o),
(657,137,cs),
(682,137,o),
(706,157,o),
(706,176,cs)
);
},
{
closed = 1;
nodes = (
(713,0,o),
(777,-55,cs),
(788,-65,o),
(795,-71,o),
(808,-71,cs),
(832,-71,o),
(844,-37,o),
(842,-10,cs),
(839,27,o),
(686,85,o),
(559,103,cs),
(546,105,o),
(537,107,o),
(532,98,cs),
(529,88,o),
(536,80,o),
(549,76,cs),
(640,49,o)
);
},
{
closed = 1;
nodes = (
(360,103,ls),
(354,108,o),
(347,111,o),
(340,104,cs),
(262,27,o),
(213,5,o),
(123,-34,cs),
(86,-50,o),
(101,-71,o),
(134,-63,cs),
(254,-35,o),
(329,-5,o),
(409,45,cs),
(416,50,o),
(420,58,o),
(412,64,cs)
);
}
);
width = 1000;
}
);
unicode = 20854;
},
{
glyphname = uni5185;
lastChange = "2023-09-21 14:49:36 +0000";
layers = (
{
layerId = m01;
shapes = (
{
closed = 1;
nodes = (
(207,-60,o),
(223,-38,o),
(223,-24,cs),
(223,523,l),
(211,540,o),
(187,555,o),
(155,562,c),
(155,-38,ls),
(155,-50,o),
(160,-60,o),
(177,-60,cs)
);
},
{
closed = 1;
nodes = (
(799,-59,o),
(842,-12,o),
(842,36,cs),
(842,474,l),
(866,478,o),
(878,484,o),
(878,499,cs),
(878,518,o),
(824,545,o),
(794,556,c),
(791,539,o),
(772,526,o),
(751,526,cs),
(217,526,l),
(217,495,l),
(774,495,l),
(774,56,ls),
(774,27,o),
(761,13,o),
(700,13,cs),
(676,13,o),
(619,15,o),
(589,17,cs),
(558,19,o),
(549,-7,o),
(587,-13,cs),
(619,-18,o),
(671,-24,o),
(685,-29,cs),
(725,-45,o),
(708,-59,o),
(749,-59,cs)
);
},
{
closed = 1;
nodes = (
(487,239,o),
(544,346,o),
(550,665,cs),
(550,670,o),
(545,675,o),
(542,676,cs),
(476,688,l),
(475,372,o),
(429,290,o),
(270,155,cs),
(243,132,o),
(258,122,o),
(280,133,cs)
);
},
{
closed = 1;
nodes = (
(639,200,o),
(664,157,cs),
(672,144,o),
(683,134,o),
(700,137,cs),
(731,142,o),
(743,169,o),
(729,206,cs),
(712,252,o),
(607,320,o),
(482,370,cs),
(470,375,o),
(461,373,o),
(456,361,cs),
(453,354,o),
(461,350,o),
(476,342,cs),
(572,290,o)
);
}
);
width = 1000;
}
);
unicode = 20869;
},
{
glyphname = uni5196.001;
lastChange = "2023-09-21 14:49:36 +0000";
layers = (
{
layerId = m01;
shapes = (
{
closed = 1;
nodes = (
(174,594,l),
(799,594,l),
(789,572,o),
(775,547,o),
(765,523,c),
(752,505,o),
(762,479,o),
(793,502,cs),
(815,519,o),
(849,548,o),
(875,573,c),
(911,579,o),
(924,587,o),
(924,601,cs),
(924,625,o),
(860,657,o),
(819,674,c),
(817,648,o),
(807,631,o),
(785,631,cs),
(169,631,l)
);
},
{
closed = 1;
nodes = (
(187,578,o),
(184,625,o),
(169,667,cs),
(153,702,o),
(134,685,o),
(138,666,cs),
(148,591,o),
(125,555,o),
(80,524,c),
(54,502,o),
(67,461,o),
(107,461,cs),
(153,461,o),
(181,501,o),
(185,549,cs)
);
}
);
width = 1000;
}
);
},
{
glyphname = uni519B;
lastChange = "2023-09-21 14:49:36 +0000";
layers = (
{
layerId = m01;
shapes = (
{
closed = 1;
nodes = (
(174,594,l),
(799,594,l),
(789,572,o),
(775,547,o),
(765,523,c),
(752,505,o),
(762,479,o),
(793,502,cs),
(815,519,o),
(849,548,o),
(875,573,c),
(911,579,o),
(924,587,o),
(924,601,cs),
(924,625,o),
(860,657,o),
(819,674,c),
(817,648,o),
(807,631,o),
(785,631,cs),
(169,631,l)
);
},
{
closed = 1;
nodes = (
(187,578,o),
(184,625,o),
(169,667,cs),
(153,702,o),
(134,685,o),
(138,666,cs),
(148,591,o),
(125,555,o),
(80,524,c),
(54,502,o),
(67,461,o),
(107,461,cs),
(153,461,o),
(181,501,o),
(185,549,cs)
);
},
{
closed = 1;
nodes = (
(729,416,ls),
(752,416,o),
(768,422,o),
(768,436,cs),
(768,459,o),
(724,486,o),
(661,502,c),
(662,462,o),
(646,446,o),
(611,446,cs),
(195,446,l),
(194,432,o),
(198,416,o),
(215,416,cs)
);
},
{
closed = 1;
nodes = (
(877,62,ls),
(900,62,o),
(916,68,o),
(916,82,cs),
(916,105,o),
(858,142,o),
(795,158,c),
(806,118,o),
(790,92,o),
(745,92,cs),
(91,92,l),
(90,78,o),
(94,62,o),
(111,62,cs)
);
},
{
closed = 1;
nodes = (
(541,360,ls),
(541,365,o),
(540,369,o),
(536,370,cs),
(519,377,o),
(496,380,o),
(472,381,c),
(472,-53,ls),
(472,-64,o),
(478,-72,o),
(494,-72,cs),
(519,-72,o),
(541,-52,o),
(541,-33,cs)
);
},
{
closed = 1;
nodes = (
(470,521,ls),
(475,529,o),
(473,538,o),
(469,543,cs),
(458,557,o),
(439,569,o),
(415,576,c),
(203,220,ls),
(197,209,o),
(204,202,o),
(220,201,cs),
(245,199,o),
(271,202,o),
(284,223,cs)
);
},
{
closed = 1;
nodes = (
(772,226,ls),
(795,226,o),
(811,232,o),
(811,246,cs),
(811,269,o),
(762,298,o),
(699,314,c),
(707,274,o),
(694,256,o),
(649,256,cs),
(243,256,l),
(242,242,o),
(246,226,o),
(263,226,cs)
);
}
);
width = 1000;
}
);
unicode = 20891;
},
{
glyphname = uni51AB;
lastChange = "2023-09-21 14:49:36 +0000";
layers = (
{
layerId = m01;
shapes = (
{
closed = 1;
nodes = (
(274,-41,o),
(285,-23,o),
(283,3,cs),
(281,25,o),
(279,42,o),
(274,105,cs),
(269,190,o),
(309,272,o),
(385,443,cs),
(395,473,o),
(371,483,o),
(356,455,cs),
(228,207,l),
(130,221,ls),
(102,225,o),
(97,203,o),
(121,196,cs),
(145,189,o),
(169,177,o),
(196,164,cs),
(214,155,o),
(221,137,o),
(221,106,cs),
(221,69,o),
(210,27,o),
(190,-12,cs),
(171,-52,o),
(187,-65,o),
(225,-54,cs)
);
},
{
closed = 1;
nodes = (
(251,465,o),
(281,498,o),
(282,521,cs),
(284,569,o),
(245,625,o),
(166,678,cs),
(151,684,o),
(139,674,o),
(153,655,cs),
(199,596,o),
(204,515,o),
(203,493,cs),
(202,480,o),
(209,468,o),
(224,467,cs)
);
}
);
width = 1000;
}
);
unicode = 20907;
},
{
glyphname = uni51E0;
lastChange = "2023-09-21 14:49:36 +0000";
layers = (
{
layerId = m01;
shapes = (
{
closed = 1;
nodes = (
(109,-62,o),
(119,-57,o),
(132,-50,cs),
(328,56,o),
(360,227,o),
(375,461,cs),
(378,514,o),
(379,576,o),
(377,634,cs),
(377,643,o),
(373,648,o),
(367,652,cs),
(348,664,o),
(330,669,o),
(302,674,c),
(307,611,o),
(310,554,o),
(309,493,cs),
(305,268,o),
(272,90,o),
(115,-28,cs),
(105,-35,o),
(94,-45,o),
(102,-54,cs)
);
},
{
closed = 1;
nodes = (
(657,586,l),
(677,590,o),
(686,597,o),
(686,608,cs),
(686,626,o),
(637,667,o),
(589,680,c),
(585,647,o),
(571,632,o),
(539,632,cs),
(326,632,l),
(326,617,o),
(311,603,o),
(327,603,cs),
(588,603,l),
(588,97,ls),
(588,-5,o),
(661,-53,o),
(767,-54,cs),
(883,-55,o),
(897,-31,o),
(937,2,cs),
(944,8,o),
(946,17,o),
(943,27,cs),
(939,37,o),
(937,53,o),
(939,67,cs),
(943,95,o),
(954,149,o),
(956,169,cs),
(961,211,o),
(934,210,o),
(923,179,cs),
(881,59,o),
(896,11,o),
(771,10,cs),
(714,10,o),
(657,21,o),
(657,101,cs)
);
}
);
width = 1000;
}
);
unicode = 20960;
},
{
glyphname = uni51FA.001;
lastChange = "2023-09-21 14:49:36 +0000";
layers = (
{
layerId = m01;
shapes = (
{
closed = 1;
nodes = (
(261,581,ls),
(261,584,o),
(258,588,o),
(254,589,cs),
(240,595,o),
(220,600,o),
(197,601,c),
(197,314,ls),
(197,305,o),
(202,298,o),
(216,298,cs),
(242,298,o),
(263,315,o),
(263,332,cs)
);
},
{
closed = 1;
nodes = (
(769,364,l),
(769,396,l),
(234,396,l),
(234,364,l)
);
},
{
closed = 1;
nodes = (
(815,581,ls),
(815,585,o),
(811,589,o),
(806,591,cs),
(789,598,o),
(768,602,o),
(747,603,c),
(747,326,ls),
(747,317,o),
(749,307,o),
(767,307,cs),
(796,307,o),
(815,324,o),
(815,336,cs)
);
},
{
closed = 1;
nodes = (
(537,670,ls),
(537,675,o),
(536,679,o),
(532,680,cs),
(515,687,o),
(492,690,o),
(468,691,c),
(468,19,l),
(537,19,l)
);
},
{
closed = 1;
nodes = (
(201,235,ls),
(201,238,o),
(198,242,o),
(194,243,cs),
(180,249,o),
(160,254,o),
(137,255,c),
(137,-32,ls),
(137,-41,o),
(142,-48,o),
(156,-48,cs),
(182,-48,o),
(203,-31,o),
(203,-14,cs)
);
},
{
closed = 1;
nodes = (
(824,18,l),
(824,50,l),
(174,50,l),
(174,18,l)
);
},
{
closed = 1;
nodes = (
(870,235,ls),
(870,239,o),
(866,243,o),
(861,245,cs),
(844,252,o),
(823,256,o),
(802,257,c),
(802,-20,ls),
(802,-29,o),
(804,-39,o),
(822,-39,cs),
(851,-39,o),
(870,-22,o),
(870,-10,cs)
);
}
);
width = 1000;
}
);
},
{
glyphname = uni5202;
lastChange = "2023-09-21 14:49:36 +0000";
layers = (
{
layerId = m01;
shapes = (
{
closed = 1;
nodes = (
(631,532,ls),
(631,535,o),
(628,539,o),
(624,540,cs),
(610,546,o),
(590,551,o),
(569,552,c),
(569,179,ls),
(569,170,o),
(574,163,o),
(588,163,cs),
(612,163,o),
(633,180,o),
(633,197,cs)
);
},
{
closed = 1;
nodes = (
(809,-69,o),
(852,-22,o),
(852,26,cs),
(852,668,ls),
(852,671,o),
(852,676,o),
(843,680,cs),
(828,687,o),
(797,693,o),
(784,693,c),
(784,46,ls),
(784,17,o),
(771,3,o),
(710,3,cs),
(686,3,o),
(671,7,o),
(630,7,cs),
(599,9,o),
(590,-17,o),
(628,-23,cs),
(754,-44,o),
(704,-69,o),
(759,-69,cs)
);
}
);
width = 1000;
}
);
unicode = 20994;
},
{
glyphname = uni5206;
lastChange = "2023-09-21 14:49:36 +0000";
layers = (
{
layerId = m01;
shapes = (
{
closed = 1;
nodes = (
(454,624,o),
(462,613,o),
(484,613,cs),
(552,613,l),
(602,478,o),
(678,386,o),
(816,287,cs),
(822,283,o),
(827,279,o),
(837,281,cs),
(865,286,o),
(911,299,o),
(939,309,cs),
(968,319,o),
(972,336,o),
(940,343,cs),
(799,372,o),
(658,480,o),
(604,604,c),
(622,608,o),
(631,611,o),
(631,620,cs),
(631,636,o),
(583,663,o),
(555,674,c),
(556,657,o),
(546,645,o),
(533,645,cs),
(453,645,l)
);
},
{
closed = 1;
nodes = (
(230,337,o),
(355,466,o),
(416,625,cs),
(418,631,o),
(416,634,o),
(411,636,cs),
(354,662,ls),
(349,664,o),
(344,663,o),
(343,657,cs),
(308,509,o),
(207,382,o),
(50,287,cs),
(38,279,o),
(42,262,o),
(64,271,cs)
);
},
{
closed = 1;
nodes = (
(561,-63,o),
(586,-53,o),
(628,-6,cs),
(681,54,o),
(700,178,o),
(702,299,c),
(723,304,o),
(738,310,o),
(738,323,cs),
(738,346,o),
(680,371,o),
(653,380,c),
(648,365,o),
(638,354,o),
(624,354,cs),
(221,354,l),
(221,335,o),
(227,324,o),
(251,324,cs),
(637,324,l),
(635,190,o),
(614,85,o),
(566,31,cs),
(553,17,o),
(542,16,o),
(533,17,cs),
(476,21,o),
(438,26,o),
(371,35,cs),
(338,39,o),
(334,12,o),
(366,7,cs),
(436,-3,o),
(482,-18,o),
(499,-30,cs),
(519,-44,o),
(522,-60,o),
(537,-61,cs)
);
},
{
closed = 1;
nodes = (
(392,347,l),
(368,201,o),
(285,60,o),
(80,-27,cs),
(51,-39,o),
(61,-62,o),
(86,-55,cs),
(322,11,o),
(427,172,o),
(467,347,c)
);
}
);
width = 1000;
}
);
unicode = 20998;
},
{
glyphname = uni52A0;
lastChange = "2023-09-21 14:49:36 +0000";
layers = (
{
layerId = m01;
shapes = (
{
closed = 1;
nodes = (
(823,87,l),
(823,116,l),
(665,116,l),
(665,87,l)
);
},
{
closed = 1;
nodes = (
(816,526,l),
(816,28,l),
(816,17,o),
(818,11,o),
(834,11,c),
(865,11,o),
(883,32,o),
(883,45,cs),
(884,512,l),
(904,516,o),
(913,522,o),
(913,533,cs),
(913,549,o),
(868,577,o),
(825,589,c),
(821,568,o),
(814,555,o),
(793,555,cs),
(678,555,l),
(658,569,o),
(632,583,o),
(605,593,c),
(605,27,ls),
(605,17,o),
(609,11,o),
(625,11,cs),
(655,11,o),
(672,31,o),
(672,44,cs),
(672,526,l)
);
},
{
closed = 1;
nodes = (
(448,-48,o),
(478,4,o),
(482,48,cs),
(495,192,o),
(499,336,o),
(506,480,c),
(527,482,o),
(538,489,o),
(538,499,cs),
(538,516,o),
(493,541,o),
(458,554,c),
(450,537,o),
(442,523,o),
(423,523,cs),
(103,524,l),
(104,513,o),
(107,492,o),
(127,492,cs),
(439,491,l),
(435,353,o),
(429,216,o),
(418,78,cs),
(415,43,o),
(399,24,o),
(339,24,cs),
(318,24,o),
(289,25,o),
(271,25,cs),
(260,25,o),
(249,25,o),
(247,18,cs),
(245,9,o),
(255,3,o),
(267,2,cs),
(382,-8,o),
(324,-48,o),
(363,-48,cs)
);
},
{
closed = 1;
nodes = (
(67,-62,o),
(78,-58,o),
(90,-49,cs),
(244,70,o),
(310,249,o),
(333,475,cs),
(338,527,o),
(343,598,o),
(342,655,cs),
(342,661,o),
(339,671,o),
(330,674,cs),
(312,680,o),
(291,684,o),
(269,685,c),
(271,624,o),
(267,566,o),
(264,507,cs),
(252,289,o),
(194,104,o),
(69,-28,cs),
(61,-37,o),
(50,-48,o),
(58,-55,cs)
);
}
);
width = 1000;
}
);
unicode = 21152;
},
{
glyphname = uni52F9;
lastChange = "2023-09-21 14:49:36 +0000";
layers = (
{
layerId = m01;
shapes = (
{
closed = 1;
nodes = (
(772,-56,o),
(808,-3,o),
(808,41,cs),
(808,493,l),
(829,495,o),
(840,502,o),
(840,512,cs),
(840,529,o),
(795,555,o),
(759,568,c),
(751,551,o),
(743,536,o),
(724,536,cs),
(258,537,l),
(259,526,o),
(262,505,o),
(282,505,cs),
(740,504,l),
(741,77,ls),
(741,41,o),
(723,22,o),
(662,22,cs),
(641,22,o),
(602,23,o),
(514,23,cs),
(503,23,o),
(489,23,o),
(489,11,cs),
(489,2,o),
(498,-4,o),
(510,-5,cs),
(696,-15,o),
(647,-56,o),
(687,-56,cs)
);
},
{
closed = 1;
nodes = (
(237,390,o),
(316,504,o),
(362,661,cs),
(364,666,o),
(362,675,o),
(357,677,cs),
(299,697,ls),
(294,699,o),
(290,698,o),
(289,693,cs),
(259,544,o),
(190,419,o),
(78,293,cs),
(69,283,o),
(84,272,o),
(92,278,cs)
);
}
);
width = 1000;
}
);
unicode = 21241;
},
{
glyphname = uni52FA;
lastChange = "2023-09-21 14:49:36 +0000";
layers = (
{
layerId = m01;
shapes = (
{
closed = 1;
nodes = (
(279,384,o),
(367,502,o),
(413,659,cs),
(415,664,o),
(413,673,o),
(408,675,cs),
(350,695,ls),
(345,697,o),
(341,696,o),
(340,691,cs),
(310,542,o),
(232,413,o),
(89,291,cs),
(79,282,o),
(95,271,o),
(103,276,cs)
);
},
{
closed = 1;
nodes = (
(628,-81,o),
(656,-77,o),
(695,-24,cs),
(777,86,o),
(809,240,o),
(818,471,c),
(839,476,o),
(854,482,o),
(854,495,cs),
(854,518,o),
(796,543,o),
(769,552,c),
(764,537,o),
(754,526,o),
(740,526,cs),
(337,526,l),
(335,496,l),
(753,496,l),
(744,252,o),
(711,106,o),
(633,13,cs),
(621,-2,o),
(609,-2,o),
(600,-1,cs),
(543,3,o),
(505,8,o),
(438,17,cs),
(405,21,o),
(401,-6,o),
(433,-11,cs),
(503,-21,o),
(549,-36,o),
(566,-48,cs),
(586,-62,o),
(589,-78,o),
(604,-79,cs)
);
},
{
closed = 1;
nodes = (
(574,161,o),
(583,187,o),
(582,209,cs),
(580,260,o),
(453,325,o),
(339,362,cs),
(316,369,o),
(306,351,o),
(326,340,cs),
(425,286,o),
(476,221,o),
(502,182,cs),
(520,153,o),
(534,149,o),
(549,154,cs)
);
}
);
width = 1000;
}
);
unicode = 21242;
},
{
glyphname = uni5305;
lastChange = "2023-09-21 14:49:36 +0000";
layers = (
{
layerId = m01;
shapes = (
{
closed = 1;
nodes = (
(227,380,o),
(327,485,o),
(403,636,cs),
(406,642,o),
(405,651,o),
(401,653,cs),
(344,685,ls),
(340,687,o),
(335,687,o),
(333,681,cs),
(284,538,o),
(185,413,o),
(49,310,cs),
(39,303,o),
(52,288,o),
(61,293,cs)
);
},
{
closed = 1;
nodes = (
(637,79,o),
(660,88,o),
(704,136,cs),
(776,216,o),
(799,360,o),
(808,511,c),
(829,516,o),
(844,522,o),
(844,535,cs),
(844,558,o),
(786,583,o),
(759,592,c),
(754,577,o),
(744,566,o),
(730,566,cs),
(327,566,l),
(327,536,l),
(743,536,l),
(734,372,o),
(710,236,o),
(642,173,cs),
(628,160,o),
(618,158,o),
(609,159,cs),
(552,163,o),
(514,168,o),
(447,177,cs),
(414,181,o),
(410,154,o),
(442,149,cs),
(512,139,o),
(558,124,o),
(575,112,cs),
(595,98,o),
(598,82,o),
(613,81,cs)
);
},
{
closed = 1;
nodes = (
(506,226,ls),
(506,215,o),
(509,209,o),
(524,209,cs),
(553,209,o),
(573,228,o),
(573,243,cs),
(573,381,l),
(589,382,o),
(602,390,o),
(602,402,cs),
(602,418,o),
(554,438,o),
(522,452,c),
(515,431,o),
(509,423,o),
(500,423,cs),
(263,422,l),
(266,392,l),
(506,393,l)
);
},
{
closed = 1;
nodes = (
(543,235,l),
(543,265,l),
(258,265,l),
(258,235,l)
);
},
{
closed = 1;
nodes = (
(235,430,l),
(235,70,ls),
(235,-19,o),
(267,-54,o),
(503,-57,cs),
(735,-60,o),
(870,-52,o),
(919,-25,cs),
(928,-20,o),
(931,-2,o),
(922,4,cs),
(913,10,o),
(907,22,o),
(907,36,cs),
(907,58,o),
(908,163,o),
(913,225,cs),
(915,255,o),
(881,258,o),
(878,228,cs),
(870,136,o),
(862,79,o),
(821,47,cs),
(772,8,o),
(676,-4,o),
(479,1,cs),
(346,4,o),
(299,17,o),
(299,71,cs),
(299,401,l),
(309,418,l),
(293,431,o),
(272,445,o),
(253,455,c)
);
}
);
width = 1000;
}
);
unicode = 21253;
},
{
glyphname = uni5315;
lastChange = "2023-09-21 14:49:36 +0000";
layers = (
{
layerId = m01;
shapes = (
{
closed = 1;
nodes = (
(404,284,o),
(651,404,o),
(729,466,cs),
(736,472,o),
(738,480,o),
(732,486,cs),
(681,530,ls),
(672,538,o),
(664,537,o),
(656,528,cs),
(570,429,o),
(339,320,o),
(257,290,c),
(258,253,l)
);
},
{
closed = 1;
nodes = (
(276,655,ls),
(276,659,o),
(272,663,o),
(267,666,cs),
(248,673,o),
(225,678,o),
(202,679,c),
(202,83,ls),
(202,0,o),
(268,-42,o),
(361,-52,cs),
(431,-60,o),
(572,-55,o),
(602,-53,cs),
(725,-45,o),
(779,-31,o),
(820,4,cs),
(829,10,o),
(831,20,o),
(828,30,cs),
(823,42,o),
(820,58,o),
(823,73,cs),
(828,103,o),
(839,160,o),
(841,181,cs),
(846,226,o),
(818,225,o),
(806,192,cs),
(769,88,o),
(733,23,o),
(600,12,cs),
(567,10,o),
(408,9,o),
(369,16,cs),
(341,22,o),
(276,30,o),
(276,88,cs)
);
}
);
width = 1000;
}
);
unicode = 21269;
},
{
glyphname = uni531A;
lastChange = "2023-09-21 14:49:36 +0000";
layers = (
{
layerId = m01;
shapes = (
{
closed = 1;
nodes = (
(239,-14,ls),
(239,-28,o),
(220,-50,o),
(187,-50,cs),
(169,-50,o),
(165,-44,o),
(165,-32,cs),
(165,688,l),
(193,683,o),
(213,679,o),
(227,668,cs),
(237,660,o),
(239,655,o),
(239,641,cs),
(239,614,l)
);
},
{
closed = 1;
nodes = (
(206,0,o),
(203,16,o),
(203,34,c),
(759,34,ls),
(783,34,o),
(799,58,o),
(807,85,c),
(840,72,o),
(908,40,o),
(908,19,cs),
(908,7,o),
(898,0,o),
(878,0,cs),
(235,0,ls)
);
},
{
closed = 1;
nodes = (
(206,600,o),
(203,616,o),
(203,634,c),
(729,634,ls),
(753,634,o),
(769,658,o),
(777,685,c),
(810,672,o),
(878,640,o),
(878,619,cs),
(878,607,o),
(868,600,o),
(848,600,cs),
(235,600,ls)
);
}
);
width = 1000;
}
);
unicode = 21274;
},
{
glyphname = uni533A;
lastChange = "2023-09-21 14:49:36 +0000";
layers = (
{
layerId = m01;
shapes = (
{
closed = 1;
nodes = (
(816,571,ls),
(840,571,o),
(849,577,o),
(849,591,cs),
(849,612,o),
(765,655,o),
(729,668,c),
(721,627,o),
(702,605,o),
(670,605,cs),
(201,605,l),
(201,586,o),
(206,571,o),
(230,571,cs)
);
},
{
closed = 1;
nodes = (
(215,-31,o),
(233,-12,o),
(233,0,cs),
(233,581,l),
(244,595,l),
(221,614,o),
(193,628,o),
(167,639,c),
(167,-17,ls),
(167,-28,o),
(169,-31,o),
(186,-31,cs)
);
},
{
closed = 1;
nodes = (
(878,1,ls),
(902,1,o),
(911,7,o),
(911,21,cs),
(911,42,o),
(827,85,o),
(791,98,c),
(783,57,o),
(764,35,o),
(732,35,cs),
(201,35,l),
(201,16,o),
(206,1,o),
(230,1,cs)
);
},
{
closed = 1;
nodes = (
(473,210,o),
(600,318,o),
(680,460,cs),
(683,465,o),
(683,474,o),
(679,477,cs),
(627,510,ls),
(622,513,o),
(618,513,o),
(616,508,cs),
(553,370,o),
(434,248,o),
(299,161,cs),
(289,154,o),
(300,139,o),
(310,143,cs)
);
},
{
closed = 1;
nodes = (
(713,123,o),
(730,135,o),
(736,166,cs),
(739,184,o),
(737,204,o),
(711,230,cs),
(669,272,o),
(476,421,o),
(376,465,cs),
(346,479,o),
(335,457,o),
(353,445,cs),
(449,387,o),
(606,239,o),
(663,153,cs),
(672,140,o),
(682,129,o),
(697,126,cs)
);
}
);
width = 1000;
}
);
unicode = 21306;
},
{
glyphname = uni5341;
lastChange = "2023-09-21 14:49:36 +0000";
layers = (
{
layerId = m01;
shapes = (
{
closed = 1;
nodes = (
(534,659,ls),
(534,663,o),
(530,667,o),
(526,668,cs),
(509,675,o),
(489,679,o),
(465,680,c),
(465,-35,ls),
(465,-46,o),
(471,-54,o),
(487,-54,cs),
(512,-54,o),
(536,-34,o),
(536,-15,cs)
);
},
{
closed = 1;
nodes = (
(898,328,ls),
(922,328,o),
(931,334,o),
(931,348,cs),
(931,369,o),
(847,412,o),
(811,425,c),
(803,384,o),
(784,362,o),
(752,362,cs),
(73,362,l),
(73,343,o),
(78,328,o),
(102,328,cs)
);
}
);
width = 1000;
}
);
unicode = 21313;
},
{
glyphname = uni5343;
lastChange = "2023-09-21 14:49:36 +0000";
layers = (
{
layerId = m01;
shapes = (
{
closed = 1;
nodes = (
(908,290,ls),
(928,290,o),
(938,297,o),
(938,309,cs),
(938,330,o),
(870,362,o),
(837,375,c),
(829,348,o),
(813,324,o),
(789,324,cs),
(63,324,l),
(63,306,o),
(66,290,o),
(95,290,cs)
);
},
{
closed = 1;
nodes = (
(534,559,ls),
(534,563,o),
(530,567,o),
(526,568,cs),
(509,575,o),
(489,579,o),
(465,580,c),
(465,-53,ls),
(465,-64,o),
(471,-72,o),
(487,-72,cs),
(512,-72,o),
(536,-52,o),
(536,-33,cs)
);
},
{
closed = 1;
nodes = (
(356,527,o),
(592,548,o),
(743,620,cs),
(747,622,o),
(751,626,o),
(746,633,cs),
(708,685,ls),
(705,689,o),
(697,688,o),
(693,686,cs),
(578,621,o),
(358,567,o),
(205,539,cs),
(195,537,o),
(198,521,o),
(209,521,cs)
);
}
);
width = 1000;
}
);
unicode = 21315;
},
{
glyphname = uni534A;
lastChange = "2023-09-21 14:49:36 +0000";
layers = (
{
layerId = m01;
shapes = (
{
closed = 1;
nodes = (
(878,347,ls),
(898,347,o),
(908,354,o),
(908,366,cs),
(908,387,o),
(831,424,o),
(798,437,c),
(790,410,o),
(763,381,o),
(739,381,cs),
(133,381,l),
(133,363,o),
(136,347,o),
(165,347,cs)
);
},
{
closed = 1;
nodes = (
(534,669,ls),
(534,673,o),
(530,677,o),
(526,678,cs),
(509,685,o),
(489,689,o),
(465,690,c),
(465,-43,ls),
(465,-54,o),
(471,-62,o),
(487,-62,cs),
(512,-62,o),
(536,-43,o),
(536,-24,cs)
);
},
{
closed = 1;
nodes = (
(928,147,ls),
(948,147,o),
(958,154,o),
(958,166,cs),
(958,187,o),
(881,224,o),
(848,237,c),
(840,210,o),
(813,181,o),
(789,181,cs),
(68,181,l),
(68,163,o),
(71,147,o),
(100,147,cs)
);
},
{
closed = 1;
nodes = (
(350,430,o),
(373,454,o),
(372,475,cs),
(372,506,o),
(317,576,o),
(225,607,cs),
(201,616,o),
(194,607,o),
(211,591,cs),
(274,529,o),
(297,485,o),
(301,445,cs),
(302,435,o),
(308,426,o),
(322,427,cs)
);
},
{
closed = 1;
nodes = (
(739,634,ls),
(731,638,o),
(725,635,o),
(722,626,cs),
(700,570,o),
(657,509,o),
(613,463,cs),
(589,437,o),
(596,422,o),
(632,443,cs),
(697,481,o),
(754,528,o),
(805,583,cs),
(811,590,o),
(806,598,o),
(798,602,cs)
);
}
);
width = 1000;
}
);
unicode = 21322;
},
{
glyphname = uni5351;
lastChange = "2023-09-21 14:49:36 +0000";
layers = (
{
layerId = m01;
shapes = (
{
closed = 1;
nodes = (
(757,279,l),
(757,311,l),
(249,311,l),
(249,279,l)
);
},
{
closed = 1;
nodes = (
(726,548,l),
(726,273,ls),
(726,261,o),
(730,255,o),
(748,255,cs),
(782,255,o),
(800,277,o),
(800,291,cs),
(801,533,l),
(823,537,o),
(833,544,o),
(833,556,cs),
(833,574,o),
(784,605,o),
(736,618,c),
(732,595,o),
(724,580,o),
(701,580,cs),
(286,580,l),
(264,596,o),
(236,611,o),
(206,622,c),
(206,272,ls),
(206,260,o),
(210,254,o),
(228,254,cs),
(261,254,o),
(280,276,o),
(280,290,cs),
(280,548,l)
);
},
{
closed = 1;
nodes = (
(757,421,l),
(757,453,l),
(249,453,l),
(249,421,l)
);
},
{
closed = 1;
nodes = (
(433,554,l),
(465,578,o),
(498,611,o),
(527,646,cs),
(533,653,o),
(533,661,o),
(525,666,cs),
(471,697,ls),
(463,702,o),
(454,701,o),
(452,693,cs),
(439,635,o),
(410,588,o),
(379,559,c)
);
},
{
closed = 1;
nodes = (
(479,570,l),
(470,346,o),
(487,262,o),
(191,183,cs),
(151,173,o),
(163,149,o),
(194,155,cs),
(553,220,o),
(545,347,o),
(549,570,c)
);
},
{
closed = 1;
nodes = (
(896,109,ls),
(920,109,o),
(929,115,o),
(929,129,cs),
(929,150,o),
(845,193,o),
(809,206,c),
(801,165,o),
(782,143,o),
(750,143,cs),
(83,143,l),
(83,124,o),
(88,109,o),
(112,109,cs)
);
},
{
closed = 1;
nodes = (
(567,235,ls),
(567,238,o),
(564,242,o),
(560,243,cs),
(546,249,o),
(526,254,o),
(505,255,c),
(505,-46,ls),
(505,-55,o),
(510,-62,o),
(524,-62,cs),
(548,-62,o),
(569,-45,o),
(569,-28,cs)
);
}
);
width = 1000;
}
);
unicode = 21329;
},
{
glyphname = uni5353;
lastChange = "2023-09-21 14:49:36 +0000";
layers = (
{
layerId = m01;
shapes = (
{
closed = 1;
nodes = (
(898,101,ls),
(922,101,o),
(931,107,o),
(931,121,cs),
(931,142,o),
(848,175,o),
(812,188,c),
(804,147,o),
(784,135,o),
(752,135,cs),
(73,135,l),
(73,116,o),
(78,101,o),
(102,101,cs)
);
},
{
closed = 1;
nodes = (
(538,230,ls),
(538,234,o),
(534,238,o),
(530,239,cs),
(513,246,o),
(493,250,o),
(469,251,c),
(469,-43,ls),
(469,-54,o),
(475,-62,o),
(491,-62,cs),
(516,-62,o),
(540,-42,o),
(540,-23,cs)
);
},
{
closed = 1;
nodes = (
(723,236,l),
(723,266,l),
(283,266,l),
(283,236,l)
);
},
{
closed = 1;
nodes = (
(715,481,l),
(715,213,ls),
(715,201,o),
(717,194,o),
(735,194,cs),
(769,194,o),
(789,217,o),
(789,231,cs),
(790,470,l),
(812,474,o),
(822,485,o),
(822,497,cs),
(822,515,o),
(773,535,o),
(725,548,c),
(721,525,o),
(713,511,o),
(690,511,cs),
(297,511,l),
(275,527,o),
(247,534,o),
(217,545,c),
(217,192,ls),
(217,180,o),
(221,174,o),
(239,174,cs),
(272,174,o),
(291,196,o),
(291,210,cs),
(291,481,l)
);
},
{
closed = 1;
nodes = (
(750,385,l),
(274,386,l),
(270,356,l),
(750,355,l)
);
},
{
closed = 1;
nodes = (
(503,672,ls),
(503,676,o),
(499,680,o),
(495,681,cs),
(478,688,o),
(458,692,o),
(434,693,c),
(434,507,ls),
(434,496,o),
(440,488,o),
(456,488,cs),
(481,488,o),
(505,508,o),
(505,527,cs)
);
},
{
closed = 1;
nodes = (
(791,585,ls),
(809,585,o),
(821,587,o),
(821,601,cs),
(821,618,o),
(760,651,o),
(724,661,c),
(716,636,o),
(712,614,o),
(670,614,cs),
(469,616,l),
(469,590,o),
(476,585,o),
(507,585,cs)
);
}
);
width = 1000;
}
);
unicode = 21331;
},
{
glyphname = uni5355;
lastChange = "2023-09-21 14:49:36 +0000";
layers = (
{
layerId = m01;
shapes = (
{
closed = 1;
nodes = (
(898,101,ls),
(922,101,o),
(931,107,o),
(931,121,cs),
(931,142,o),
(848,175,o),
(812,188,c),
(804,147,o),
(784,135,o),
(752,135,cs),
(73,135,l),
(73,116,o),
(78,101,o),
(102,101,cs)
);
},
{
closed = 1;
nodes = (
(534,519,ls),
(534,523,o),
(530,527,o),
(526,528,cs),
(509,535,o),
(489,539,o),
(465,540,c),
(465,-43,ls),
(465,-54,o),
(471,-62,o),
(487,-62,cs),
(512,-62,o),
(536,-42,o),
(536,-23,cs)
);
},
{
closed = 1;
nodes = (
(733,247,l),
(733,277,l),
(263,277,l),
(263,247,l)
);
},
{
closed = 1;
nodes = (
(725,524,l),
(725,232,ls),
(725,220,o),
(727,213,o),
(745,213,cs),
(779,213,o),
(799,236,o),
(799,250,cs),
(800,509,l),
(822,513,o),
(832,520,o),
(832,532,cs),
(832,550,o),
(783,581,o),
(735,594,c),
(731,571,o),
(723,554,o),
(700,554,cs),
(277,554,l),
(255,570,o),
(227,577,o),
(197,588,c),
(197,211,ls),
(197,199,o),
(201,193,o),
(219,193,cs),
(252,193,o),
(271,215,o),
(271,229,cs),
(271,524,l)
);
},
{
closed = 1;
nodes = (
(760,412,l),
(254,413,l),
(250,383,l),
(760,382,l)
);
},
{
closed = 1;
nodes = (
(413,559,o),
(436,580,o),
(436,605,cs),
(436,640,o),
(376,678,o),
(321,687,cs),
(295,692,o),
(285,681,o),
(306,664,cs),
(336,640,o),
(362,605,o),
(368,584,cs),
(372,571,o),
(377,559,o),
(392,559,cs)
);
},
{
closed = 1;
nodes = (
(630,697,ls),
(620,702,o),
(617,698,o),
(615,688,cs),
(603,642,o),
(566,580,o),
(529,547,c),
(570,543,l),
(611,566,o),
(667,611,o),
(698,651,cs),
(703,658,o),
(700,664,o),
(692,668,cs)
);
}
);
width = 1000;
}
);
unicode = 21333;
},
{
glyphname = uni5356.001;
lastChange = "2023-09-21 14:49:36 +0000";
layers = (
{
layerId = m01;
shapes = (
{
closed = 1;
nodes = (
(826,544,ls),
(843,544,o),
(853,550,o),
(853,559,cs),
(853,574,o),
(797,615,o),
(747,627,c),
(754,592,o),
(739,573,o),
(699,573,cs),
(166,573,l),
(166,558,o),
(171,544,o),
(187,544,cs)
);
},
{
closed = 1;
nodes = (
(537,670,ls),
(537,675,o),
(536,679,o),
(532,680,cs),
(515,687,o),
(492,690,o),
(468,691,c),
(468,447,l),
(537,447,l)
);
},
{
closed = 1;
nodes = (
(104,438,o),
(114,423,o),
(127,423,cs),
(786,423,l),
(777,398,o),
(763,369,o),
(751,346,cs),
(740,327,o),
(748,312,o),
(779,325,cs),
(805,336,o),
(835,371,o),
(861,396,c),
(897,402,o),
(910,410,o),
(910,424,cs),
(910,448,o),
(846,480,o),
(805,497,c),
(803,471,o),
(793,454,o),
(771,454,cs),
(105,454,l)
);
},
{
closed = 1;
nodes = (
(404,267,o),
(421,302,o),
(420,318,cs),
(420,343,o),
(393,370,o),
(321,399,cs),
(302,408,o),
(294,400,o),
(307,387,cs),
(353,341,o),
(364,297,o),
(366,283,cs),
(367,274,o),
(370,267,o),
(382,267,cs)
);
},
{
closed = 1;
nodes = (
(285,217,o),
(306,245,o),
(295,275,cs),
(285,301,o),
(261,324,o),
(197,351,cs),
(177,359,o),
(172,352,o),
(185,337,cs),
(233,282,o),
(243,236,o),
(242,214,cs),
(242,205,o),
(252,203,o),
(264,208,cs)
);
},
{
closed = 1;
nodes = (
(914,157,ls),
(931,157,o),
(941,163,o),
(941,172,cs),
(941,187,o),
(885,228,o),
(835,240,c),
(842,205,o),
(827,186,o),
(787,186,cs),
(63,186,l),
(63,171,o),
(68,157,o),
(84,157,cs)
);
},
{
closed = 1;
nodes = (
(492,399,ls),
(486,400,o),
(482,396,o),
(482,390,cs),
(477,170,o),
(410,73,o),
(73,-38,cs),
(58,-43,o),
(59,-62,o),
(84,-57,cs),
(474,15,o),
(557,141,o),
(557,376,cs),
(557,380,o),
(558,384,o),
(551,386,cs)
);
},
{
closed = 1;
nodes = (
(918,-41,o),
(922,-12,o),
(918,10,cs),
(907,61,o),
(758,105,o),
(582,135,cs),
(557,139,o),
(546,118,o),
(569,110,cs),
(738,52,o),
(807,3,o),
(840,-32,cs),
(864,-58,o),
(879,-60,o),
(894,-53,cs)
);
}
);
width = 1000;
}
);
},
{
glyphname = uni5357;
lastChange = "2023-09-21 14:49:36 +0000";
layers = (
{
layerId = m01;
shapes = (
{
closed = 1;
nodes = (
(227,-70,o),
(243,-48,o),
(243,-34,cs),
(243,441,l),
(231,458,o),
(207,473,o),
(175,480,c),
(175,-48,ls),
(175,-60,o),
(180,-70,o),
(197,-70,cs)
);
},
{
closed = 1;
nodes = (
(522,-51,o),
(540,-31,o),
(540,-14,cs),
(540,257,l),
(478,257,l),
(477,-33,ls),
(477,-42,o),
(479,-51,o),
(496,-51,cs)
);
},
{
closed = 1;
nodes = (
(740,121,ls),
(758,121,o),
(770,126,o),
(770,137,cs),
(770,156,o),
(718,184,o),
(687,195,c),
(683,170,o),
(672,151,o),
(652,151,cs),
(279,151,l),
(279,126,o),
(286,121,o),
(314,121,cs)
);
},
{
closed = 1;
nodes = (
(461,280,o),
(478,293,o),
(478,316,cs),
(478,348,o),
(441,383,o),
(385,392,cs),
(363,395,o),
(355,385,o),
(374,371,cs),
(407,347,o),
(419,317,o),
(422,304,cs),
(424,292,o),
(430,280,o),
(443,280,cs)
);
},
{
closed = 1;
nodes = (
(809,-69,o),
(852,-22,o),
(852,26,cs),
(852,392,l),
(876,396,o),
(888,402,o),
(888,417,cs),
(888,436,o),
(834,463,o),
(804,474,c),
(801,457,o),
(782,444,o),
(761,444,cs),
(237,444,l),
(237,413,l),
(784,413,l),
(784,46,ls),
(784,17,o),
(771,3,o),
(710,3,cs),
(686,3,o),
(660,5,o),
(630,7,cs),
(599,9,o),
(590,-17,o),
(628,-23,cs),
(660,-28,o),
(681,-34,o),
(695,-39,cs),
(735,-55,o),
(718,-69,o),
(759,-69,cs)
);
},
{
closed = 1;
nodes = (
(710,243,ls),
(728,243,o),
(740,245,o),
(740,259,cs),
(740,276,o),
(690,303,o),
(664,313,c),
(663,288,o),
(652,272,o),
(630,272,cs),
(298,274,l),
(298,248,o),
(305,243,o),
(336,243,cs)
);
},
{
closed = 1;
nodes = (
(915,548,ls),
(939,548,o),
(952,552,o),
(952,567,cs),
(952,590,o),
(881,623,o),
(841,637,c),
(832,603,o),
(809,578,o),
(784,578,cs),
(62,578,l),
(62,556,o),
(65,548,o),
(89,548,cs)
);
},
{
closed = 1;
nodes = (
(601,406,ls),
(591,410,o),
(588,407,o),
(586,398,cs),
(577,346,o),
(550,289,o),
(512,256,c),
(544,256,l),
(583,277,o),
(636,323,o),
(666,362,cs),
(671,369,o),
(668,375,o),
(660,379,cs)
);
},
{
closed = 1;
nodes = (
(515,717,o),
(495,721,o),
(474,722,c),
(474,426,l),
(540,426,l),
(540,700,ls),
(540,704,o),
(536,708,o),
(532,710,cs)
);
}
);
width = 1000;
},
{
associatedMasterId = m01;
layerId = "36EE263A-7FA8-485E-8EC6-DB18B6AE1936";
name = "23年7月27日 00:03";
shapes = (
{
closed = 1;
nodes = (
(227,-70,o),
(243,-48,o),
(243,-34,cs),
(243,441,l),
(231,458,o),
(207,473,o),
(175,480,c),
(175,-48,ls),
(175,-60,o),
(180,-70,o),
(197,-70,cs)
);
},
{
closed = 1;
nodes = (
(522,-51,o),
(540,-31,o),
(540,-14,cs),
(540,257,l),
(478,257,l),
(477,-33,ls),
(477,-42,o),
(479,-51,o),
(496,-51,cs)
);
},
{
closed = 1;
nodes = (
(740,121,ls),
(758,121,o),
(770,126,o),
(770,137,cs),
(770,156,o),
(718,184,o),
(687,195,c),
(683,170,o),
(672,151,o),
(652,151,cs),
(279,151,l),
(279,126,o),
(286,121,o),
(314,121,cs)
);
},
{
closed = 1;
nodes = (
(461,276,o),
(478,289,o),
(478,312,cs),
(478,344,o),
(441,379,o),
(385,388,cs),
(363,391,o),
(354,380,o),
(374,367,cs),
(406,342,o),
(419,313,o),
(422,300,cs),
(424,288,o),
(430,276,o),
(443,276,cs)
);
},
{
closed = 1;
nodes = (
(809,-69,o),
(852,-22,o),
(852,26,cs),
(852,392,l),
(876,396,o),
(888,402,o),
(888,417,cs),
(888,436,o),
(834,463,o),
(804,474,c),
(801,457,o),
(782,444,o),
(761,444,cs),
(237,444,l),
(237,413,l),
(784,413,l),
(784,46,ls),
(784,17,o),
(771,3,o),
(710,3,cs),
(686,3,o),
(671,7,o),
(630,7,cs),
(599,9,o),
(590,-15,o),
(628,-23,cs),
(754,-42,o),
(704,-69,o),
(759,-69,cs)
);
},
{
closed = 1;
nodes = (
(710,243,ls),
(728,243,o),
(740,245,o),
(740,259,cs),
(740,276,o),
(690,303,o),
(664,313,c),
(663,288,o),
(652,272,o),
(630,272,cs),
(298,274,l),
(298,248,o),
(305,243,o),
(336,243,cs)
);
},
{
closed = 1;
nodes = (
(537,268,l),
(576,289,o),
(607,313,o),
(631,344,c),
(658,342,o),
(668,348,o),
(668,357,cs),
(668,371,o),
(630,396,o),
(579,407,c),
(579,354,o),
(543,301,o),
(505,268,c)
);
},
{
closed = 1;
nodes = (
(540,426,l),
(540,647,l),
(567,647,o),
(580,654,o),
(580,667,cs),
(580,685,o),
(543,695,o),
(474,700,c),
(474,426,l)
);
},
{
closed = 1;
nodes = (
(915,548,ls),
(939,548,o),
(952,552,o),
(952,567,cs),
(952,590,o),
(881,623,o),
(841,637,c),
(832,603,o),
(809,578,o),
(784,578,cs),
(62,578,l),
(62,556,o),
(65,548,o),
(89,548,cs)
);
}
);
width = 1000;
}
);
unicode = 21335;
},
{
glyphname = uni535C;
lastChange = "2023-09-21 14:49:36 +0000";
layers = (
{
layerId = m01;
shapes = (
{
closed = 1;
nodes = (
(534,689,ls),
(534,693,o),
(530,697,o),
(526,698,cs),
(509,705,o),
(489,709,o),
(465,710,c),
(465,-53,ls),
(465,-64,o),
(471,-72,o),
(487,-72,cs),
(512,-72,o),
(536,-52,o),
(536,-33,cs)
);
},
{
closed = 1;
nodes = (
(721,264,o),
(740,297,o),
(733,319,cs),
(721,367,o),
(664,417,o),
(568,443,cs),
(551,444,o),
(542,431,o),
(561,415,cs),
(609,376,o),
(656,297,o),
(662,276,cs),
(666,263,o),
(678,251,o),
(694,256,cs)
);
}
);
width = 1000;
}
);
unicode = 21340;
},
{
glyphname = uni5360;
lastChange = "2023-09-21 14:49:36 +0000";
layers = (
{
layerId = m01;
shapes = (
{
closed = 1;
nodes = (
(737,14,l),
(737,46,l),
(277,46,l),
(277,14,l)
);
},
{
closed = 1;
nodes = (
(729,294,l),
(729,-31,l),
(729,-43,o),
(731,-50,o),
(749,-50,c),
(783,-50,o),
(803,-27,o),
(803,-13,cs),
(804,279,l),
(826,283,o),
(836,290,o),
(836,302,cs),
(836,320,o),
(787,351,o),
(739,364,c),
(735,341,o),
(727,326,o),
(704,326,cs),
(291,326,l),
(269,342,o),
(241,357,o),
(211,368,c),
(211,-32,ls),
(211,-44,o),
(215,-50,o),
(233,-50,cs),
(266,-50,o),
(285,-28,o),
(285,-14,cs),
(285,294,l)
);
},
{
closed = 1;
nodes = (
(878,510,ls),
(898,510,o),
(908,517,o),
(908,529,cs),
(908,550,o),
(840,582,o),
(807,595,c),
(799,568,o),
(783,544,o),
(759,544,cs),
(483,544,l),
(483,526,o),
(486,510,o),
(515,510,cs)
);
},
{
closed = 1;
nodes = (
(531,672,ls),
(531,675,o),
(528,679,o),
(524,680,cs),
(510,686,o),
(490,691,o),
(469,692,c),
(469,319,ls),
(469,310,o),
(474,303,o),
(488,303,cs),
(512,303,o),
(533,320,o),
(533,337,cs)
);
}
);
width = 1000;
}
);
unicode = 21344;
},
{
glyphname = uni5382;
lastChange = "2023-09-21 14:49:36 +0000";
layers = (
{
layerId = m01;
shapes = (
{
closed = 1;
nodes = (
(908,619,ls),
(928,619,o),
(938,626,o),
(938,638,cs),
(938,659,o),
(870,691,o),
(837,704,c),
(829,677,o),
(813,653,o),
(789,653,cs),
(263,653,l),
(263,635,o),
(266,619,o),
(295,619,cs)
);
},
{
closed = 1;
nodes = (
(70,-62,o),
(80,-60,o),
(94,-50,cs),
(251,64,o),
(285,267,o),
(295,470,cs),
(298,525,o),
(300,602,o),
(298,662,cs),
(298,668,o),
(296,677,o),
(288,680,cs),
(269,687,o),
(245,691,o),
(222,692,c),
(227,627,o),
(228,571,o),
(226,508,cs),
(222,277,o),
(191,94,o),
(76,-27,cs),
(66,-37,o),
(54,-45,o),
(62,-54,cs)
);
}
);
width = 1000;
}
);
unicode = 21378;
},
{
glyphname = uni53B6;
lastChange = "2023-09-21 14:49:36 +0000";
layers = (
{
layerId = m01;
shapes = (
{
closed = 1;
nodes = (
(729,308,o),
(769,208,cs),
(776,193,o),
(778,181,o),
(796,181,cs),
(830,181,o),
(850,217,o),
(850,248,cs),
(850,304,o),
(733,385,o),
(578,459,cs),
(564,466,o),
(554,468,o),
(548,458,cs),
(541,447,o),
(549,441,o),
(563,432,cs),
(652,374,o)
);
},
{
closed = 1;
nodes = (
(547,597,o),
(547,606,o),
(537,612,cs),
(472,654,l),
(408,506,o),
(314,398,o),
(178,283,c),
(200,255,l),
(352,367,o),
(456,463,o),
(540,586,cs)
);
},
{
closed = 1;
nodes = (
(134,218,ls),
(136,210,o),
(140,206,o),
(148,207,cs),
(326,222,o),
(611,261,o),
(754,301,c),
(734,330,l),
(594,302,o),
(319,274,o),
(113,294,c)
);
}
);
width = 1000;
}
);
unicode = 21430;
},
{
glyphname = uni53C8;
lastChange = "2023-09-21 14:49:36 +0000";
layers = (
{
layerId = m01;
shapes = (
{
closed = 1;
nodes = (
(698,575,l),
(760,582,o),
(782,588,o),
(782,607,cs),
(782,631,o),
(720,660,o),
(675,677,c),
(673,652,o),
(650,636,o),
(627,636,cs),
(181,636,l),
(182,614,o),
(195,600,o),
(211,600,cs),
(664,600,l)
);
},
{
closed = 1;
nodes = (
(671,277,o),
(724,597,c),
(652,624,l),
(615,339,o),
(369,116,o),
(67,-26,cs),
(29,-44,o),
(49,-62,o),
(72,-54,cs),
(403,59,o)
);
},
{
closed = 1;
nodes = (
(316,332,o),
(521,99,o),
(775,-28,cs),
(782,-31,o),
(790,-32,o),
(798,-31,cs),
(835,-24,o),
(885,-11,o),
(908,-4,cs),
(947,7,o),
(948,24,o),
(914,32,cs),
(552,118,o),
(373,370,o),
(337,620,c),
(284,617,l)
);
}
);
width = 1000;
}
);
unicode = 21448;
},
{
glyphname = uni53CA;
lastChange = "2023-09-21 14:49:36 +0000";
layers = (
{
layerId = m01;
shapes = (
{
closed = 1;
nodes = (
(655,589,l),
(717,596,o),
(739,602,o),
(739,621,cs),
(739,645,o),
(677,674,o),
(632,691,c),
(630,666,o),
(607,650,o),
(584,650,cs),
(170,650,l),
(171,628,o),
(184,614,o),
(200,614,cs),
(621,614,l)
);
},
{
closed = 1;
nodes = (
(618,637,ls),
(611,640,o),
(604,637,o),
(602,630,cs),
(583,548,o),
(563,481,o),
(508,345,cs),
(503,334,o),
(508,327,o),
(522,327,cs),
(549,327,o),
(577,337,o),
(584,355,cs),
(593,375,o),
(637,494,o),
(676,604,cs),
(678,609,o),
(675,614,o),
(671,616,cs)
);
},
{
closed = 1;
nodes = (
(517,-17,o),
(723,105,o),
(816,376,c),
(742,391,l),
(664,145,o),
(481,43,o),
(218,-32,cs),
(188,-41,o),
(194,-61,o),
(217,-58,cs)
);
},
{
closed = 1;
nodes = (
(569,371,l),
(735,371,l),
(769,346,l),
(831,353,o),
(853,359,o),
(853,378,cs),
(853,402,o),
(791,431,o),
(746,448,c),
(744,423,o),
(721,407,o),
(698,407,cs),
(577,407,l)
);
},
{
closed = 1;
nodes = (
(345,634,l),
(324,374,o),
(274,146,o),
(60,-29,cs),
(29,-55,o),
(54,-75,o),
(81,-58,cs),
(349,105,o),
(386,373,o),
(420,633,c)
);
},
{
closed = 1;
nodes = (
(327,425,l),
(410,236,o),
(580,55,o),
(776,-53,cs),
(779,-55,o),
(787,-56,o),
(793,-56,cs),
(827,-54,o),
(856,-50,o),
(927,-41,cs),
(941,-39,o),
(945,-35,o),
(945,-27,cs),
(945,-20,o),
(939,-20,o),
(927,-15,cs),
(636,93,o),
(480,243,o),
(376,425,c)
);
}
);
width = 1000;
}
);
unicode = 21450;
},
{
glyphname = uni53CD;
lastChange = "2023-09-21 14:49:36 +0000";
layers = (
{
layerId = m01;
shapes = (
{
closed = 1;
nodes = (
(811,669,ls),
(808,675,o),
(805,680,o),
(798,677,cs),
(650,625,o),
(473,588,o),
(277,572,cs),
(260,571,o),
(253,541,o),
(280,541,cs),
(477,542,o),
(666,569,o),
(829,607,cs),
(835,608,o),
(840,616,o),
(837,622,cs)
);
},
{
closed = 1;
nodes = (
(283,610,o),
(253,617,o),
(230,622,c),
(240,270,o),
(211,99,o),
(62,-43,cs),
(42,-63,o),
(58,-82,o),
(85,-63,cs),
(273,70,o),
(309,240,o),
(302,599,c)
);
},
{
closed = 1;
nodes = (
(471,1,o),
(709,175,o),
(761,347,c),
(809,354,o),
(826,360,o),
(826,377,cs),
(826,401,o),
(764,430,o),
(719,447,c),
(717,422,o),
(694,406,o),
(671,406,cs),
(283,406,l),
(284,384,o),
(297,370,o),
(313,370,cs),
(686,370,l),
(642,204,o),
(430,54,o),
(195,-33,cs),
(165,-44,o),
(181,-60,o),
(204,-55,cs)
);
},
{
closed = 1;
nodes = (
(354,383,l),
(451,155,o),
(647,-18,o),
(768,-53,cs),
(775,-55,o),
(781,-56,o),
(790,-56,cs),
(818,-55,o),
(879,-51,o),
(919,-47,cs),
(947,-43,o),
(948,-24,o),
(923,-18,cs),
(736,24,o),
(525,179,o),
(409,383,c)
);
}
);
width = 1000;
}
);
unicode = 21453;
},
{
glyphname = uni53E3;
lastChange = "2023-09-21 14:49:36 +0000";
layers = (
{
layerId = m01;
shapes = (
{
closed = 1;
nodes = (
(231,96,l),
(771,96,l),
(771,64,l),
(231,64,l)
);
},
{
closed = 1;
nodes = (
(239,16,ls),
(239,2,o),
(220,-20,o),
(187,-20,cs),
(169,-20,o),
(165,-14,o),
(165,-2,cs),
(165,638,l),
(195,627,o),
(223,612,o),
(245,596,c),
(738,596,ls),
(761,596,o),
(769,611,o),
(773,634,c),
(821,621,o),
(870,590,o),
(870,572,cs),
(870,560,o),
(860,553,o),
(838,549,c),
(837,17,ls),
(837,3,o),
(817,-20,o),
(783,-20,c),
(765,-20,o),
(763,-13,o),
(763,-1,c),
(763,564,l),
(239,564,l)
);
}
);
width = 1000;
}
);
unicode = 21475;
},
{
glyphname = uni53E4;
lastChange = "2023-09-21 14:49:36 +0000";
layers = (
{
layerId = m01;
shapes = (
{
closed = 1;
nodes = (
(898,498,ls),
(922,498,o),
(931,504,o),
(931,518,cs),
(931,539,o),
(847,582,o),
(811,595,c),
(803,554,o),
(784,532,o),
(752,532,cs),
(73,532,l),
(73,513,o),
(78,498,o),
(102,498,cs)
);
},
{
closed = 1;
nodes = (
(701,24,l),
(701,56,l),
(291,56,l),
(291,24,l)
);
},
{
closed = 1;
nodes = (
(693,274,l),
(693,-41,ls),
(693,-53,o),
(695,-60,o),
(713,-60,cs),
(747,-60,o),
(767,-37,o),
(767,-23,cs),
(768,259,l),
(790,263,o),
(800,270,o),
(800,282,cs),
(800,300,o),
(751,331,o),
(703,344,c),
(699,321,o),
(691,306,o),
(668,306,cs),
(305,306,l),
(283,322,o),
(255,337,o),
(225,348,c),
(225,-42,ls),
(225,-54,o),
(229,-60,o),
(247,-60,cs),
(280,-60,o),
(299,-38,o),
(299,-24,cs),
(299,274,l)
);
},
{
closed = 1;
nodes = (
(533,293,l),
(531,674,ls),
(531,677,o),
(528,681,o),
(524,682,cs),
(510,688,o),
(490,693,o),
(469,694,c),
(469,291,l)
);
}
);
width = 1000;
}
);
unicode = 21476;
},
{
glyphname = uni53E5;
lastChange = "2023-09-21 14:49:36 +0000";
layers = (
{
layerId = m01;
shapes = (
{
closed = 1;
nodes = (
(785,-60,o),
(820,-7,o),
(821,37,cs),
(830,503,l),
(851,505,o),
(862,512,o),
(862,522,cs),
(862,539,o),
(817,565,o),
(781,578,c),
(773,561,o),
(765,546,o),
(746,546,cs),
(278,547,l),
(279,536,o),
(282,515,o),
(302,515,cs),
(762,514,l),
(754,73,ls),
(753,37,o),
(736,18,o),
(675,18,cs),
(654,18,o),
(613,19,o),
(525,19,cs),
(514,19,o),
(500,19,o),
(500,7,cs),
(500,-2,o),
(509,-8,o),
(521,-9,cs),
(709,-19,o),
(660,-60,o),
(700,-60,cs)
);
},
{
closed = 1;
nodes = (
(231,390,o),
(319,498,o),
(377,651,cs),
(379,656,o),
(378,665,o),
(373,667,cs),
(317,692,ls),
(312,694,o),
(308,693,o),
(307,688,cs),
(265,542,o),
(187,423,o),
(65,306,cs),
(56,297,o),
(70,284,o),
(78,290,cs)
);
},
{
closed = 1;
nodes = (
(559,152,l),
(559,184,l),
(329,184,l),
(329,152,l)
);
},
{
closed = 1;
nodes = (
(535,353,l),
(535,136,ls),
(535,124,o),
(537,117,o),
(555,117,cs),
(588,117,o),
(606,140,o),
(606,153,cs),
(607,338,l),
(628,342,o),
(638,349,o),
(638,361,cs),
(638,378,o),
(590,409,o),
(543,421,c),
(539,399,o),
(532,384,o),
(509,384,cs),
(351,384,l),
(329,398,o),
(304,404,o),
(274,410,c),
(274,135,ls),
(274,123,o),
(278,117,o),
(296,117,cs),
(328,117,o),
(345,139,o),
(345,152,cs),
(345,353,l)
);
}
);
width = 1000;
}
);
unicode = 21477;
},
{
glyphname = uni53EC;
lastChange = "2023-09-21 14:49:36 +0000";
layers = (
{
layerId = m01;
shapes = (
{
closed = 1;
nodes = (
(699,315,o),
(727,323,o),
(766,372,cs),
(790,402,o),
(817,486,o),
(822,577,c),
(843,582,o),
(858,588,o),
(858,601,cs),
(858,624,o),
(800,649,o),
(773,658,c),
(768,643,o),
(758,632,o),
(744,632,cs),
(162,633,l),
(162,614,o),
(168,603,o),
(192,603,cs),
(757,602,l),
(752,498,o),
(723,433,o),
(704,409,cs),
(692,393,o),
(680,394,o),
(671,395,cs),
(614,399,o),
(570,403,o),
(489,413,cs),
(456,417,o),
(452,390,o),
(484,385,cs),
(554,375,o),
(620,360,o),
(637,348,cs),
(657,334,o),
(660,318,o),
(675,317,cs)
);
},
{
closed = 1;
nodes = (
(438,624,l),
(414,478,o),
(301,383,o),
(96,318,cs),
(66,308,o),
(77,285,o),
(102,290,cs),
(338,334,o),
(472,459,o),
(513,624,c)
);
},
{
closed = 1;
nodes = (
(724,-5,l),
(724,27,l),
(292,27,l),
(292,-5,l)
);
},
{
closed = 1;
nodes = (
(716,225,l),
(716,-40,ls),
(716,-52,o),
(720,-58,o),
(738,-58,cs),
(772,-58,o),
(790,-36,o),
(790,-22,cs),
(791,210,l),
(813,214,o),
(823,221,o),
(823,233,cs),
(823,251,o),
(774,282,o),
(726,295,c),
(722,272,o),
(714,257,o),
(691,257,cs),
(306,257,l),
(284,273,o),
(256,288,o),
(226,299,c),
(226,-41,ls),
(226,-53,o),
(230,-59,o),
(248,-59,cs),
(281,-59,o),
(300,-37,o),
(300,-23,cs),
(300,225,l)
);
}
);
width = 1000;
}
);
unicode = 21484;
},
{
glyphname = uni53EF;
lastChange = "2023-09-21 14:49:36 +0000";
layers = (
{
layerId = m01;
shapes = (
{
closed = 1;
nodes = (
(875,581,ls),
(898,581,o),
(914,587,o),
(914,601,cs),
(914,624,o),
(846,661,o),
(783,677,c),
(794,637,o),
(778,611,o),
(733,611,cs),
(89,611,l),
(88,597,o),
(92,581,o),
(109,581,cs)
);
},
{
closed = 1;
nodes = (
(710,-45,o),
(753,2,o),
(753,50,cs),
(753,603,l),
(685,603,l),
(685,70,ls),
(685,41,o),
(672,27,o),
(611,27,cs),
(587,27,o),
(535,28,o),
(490,31,cs),
(459,33,o),
(451,6,o),
(489,1,cs),
(665,-20,o),
(605,-45,o),
(660,-45,cs)
);
},
{
closed = 1;
nodes = (
(469,176,l),
(469,208,l),
(259,208,l),
(259,176,l)
);
},
{
closed = 1;
nodes = (
(451,416,l),
(451,151,ls),
(451,139,o),
(453,132,o),
(471,132,cs),
(505,132,o),
(523,155,o),
(523,169,cs),
(524,401,l),
(546,405,o),
(556,412,o),
(556,424,cs),
(556,442,o),
(507,473,o),
(459,486,c),
(455,463,o),
(447,448,o),
(424,448,cs),
(283,448,l),
(261,462,o),
(235,473,o),
(205,480,c),
(205,150,ls),
(205,138,o),
(209,132,o),
(227,132,cs),
(260,132,o),
(277,154,o),
(277,168,cs),
(277,416,l)
);
}
);
width = 1000;
}
);
unicode = 21487;
},
{
glyphname = uni53F0;
lastChange = "2023-09-21 14:49:36 +0000";
layers = (
{
layerId = m01;
shapes = (
{
closed = 1;
nodes = (
(701,24,l),
(701,56,l),
(300,56,l),
(300,24,l)
);
},
{
closed = 1;
nodes = (
(693,227,l),
(693,-41,ls),
(693,-53,o),
(695,-60,o),
(713,-60,cs),
(747,-60,o),
(767,-37,o),
(767,-23,cs),
(768,212,l),
(790,216,o),
(800,224,o),
(800,235,cs),
(800,248,o),
(751,284,o),
(703,297,c),
(699,274,o),
(691,259,o),
(668,259,cs),
(314,259,l),
(292,275,o),
(264,290,o),
(234,301,c),
(234,-42,ls),
(234,-54,o),
(238,-60,o),
(256,-60,cs),
(289,-60,o),
(308,-38,o),
(308,-24,cs),
(308,227,l)
);
},
{
closed = 1;
nodes = (
(757,408,o),
(802,309,cs),
(809,295,o),
(812,283,o),
(831,284,cs),
(865,286,o),
(882,323,o),
(881,353,cs),
(878,410,o),
(747,497,o),
(608,559,cs),
(594,565,o),
(584,567,o),
(578,557,cs),
(572,545,o),
(580,539,o),
(594,532,cs),
(686,478,o)
);
},
{
closed = 1;
nodes = (
(539,635,o),
(541,645,o),
(531,651,cs),
(463,689,l),
(395,557,o),
(304,456,o),
(178,365,c),
(197,335,l),
(338,421,o),
(446,519,o),
(531,625,cs)
);
},
{
closed = 1;
nodes = (
(136,329,ls),
(138,309,o),
(152,317,o),
(160,318,cs),
(338,333,o),
(663,372,o),
(806,412,c),
(786,441,l),
(646,413,o),
(339,388,o),
(128,398,c)
);
}
);
width = 1000;
}
);
unicode = 21488;
},
{
glyphname = uni5404;
lastChange = "2023-09-21 14:49:36 +0000";
layers = (
{
background = {
shapes = (
{
closed = 1;
nodes = (
(399,547,l),
(407,559,ls),
(424,583,o),
(438,607,o),
(452,630,c),
(480,627,o),
(495,632,o),
(495,643,cs),
(495,657,o),
(446,681,o),
(397,689,c),
(351,518,o),
(197,391,o),
(114,338,cs),
(104,332,o),
(94,326,o),
(101,319,cs),
(108,311,o),
(121,314,o),
(135,321,cs),
(213,362,o),
(304,431,o),
(376,521,c)
);
},
{
closed = 1;
nodes = (
(490,383,l),
(367,292,o),
(196,236,o),
(45,211,cs),
(33,209,o),
(21,206,o),
(23,195,cs),
(25,183,o),
(37,184,o),
(52,186,cs),
(135,200,o),
(216,219,o),
(290,242,c),
(297,244,ls),
(380,271,o),
(456,304,o),
(522,349,cs),
(548,367,ls),
(607,410,o),
(658,462,o),
(700,523,c),
(731,524,o),
(744,531,o),
(744,542,cs),
(744,559,o),
(688,587,o),
(651,600,c),
(640,588,o),
(631,577,o),
(624,565,c),
(404,565,l),
(387,541,l),
(629,541,l),
(600,487,o),
(569,444,o),
(505,395,cs)
);
},
{
closed = 1;
nodes = (
(367,518,l),
(401,466,o),
(419,432,o),
(489,374,cs),
(512,356,ls),
(606,285,o),
(710,240,o),
(821,223,c),
(827,234,o),
(885,238,o),
(950,245,cs),
(965,246,o),
(972,249,o),
(972,257,cs),
(972,268,o),
(964,269,o),
(949,270,cs),
(863,273,o),
(695,286,o),
(529,378,c),
(517,389,l),
(461,434,o),
(422,479,o),
(382,537,c)
);
}
);
};
layerId = m01;
shapes = (
{
closed = 1;
nodes = (
(681,-24,l),
(681,8,l),
(321,8,l),
(321,-24,l)
);
},
{
closed = 1;
nodes = (
(671,188,l),
(671,-44,ls),
(671,-56,o),
(675,-63,o),
(693,-63,cs),
(727,-63,o),
(747,-42,o),
(747,-28,cs),
(748,173,l),
(770,177,o),
(790,184,o),
(790,196,cs),
(790,224,o),
(731,245,o),
(683,258,c),
(679,235,o),
(671,220,o),
(648,220,cs),
(335,220,l),
(313,236,o),
(285,251,o),
(255,262,c),
(255,-45,ls),
(255,-57,o),
(259,-60,o),
(277,-60,cs),
(300,-60,o),
(329,-41,o),
(329,-27,cs),
(329,188,l)
);
},
{
closed = 1;
nodes = (
(540,384,o),
(285,263,o),
(65,199,cs),
(29,188,o),
(36,167,o),
(72,174,cs),
(304,219,o),
(591,340,o),
(711,543,c),
(742,544,o),
(755,551,o),
(755,562,cs),
(755,579,o),
(691,615,o),
(652,628,c),
(652,609,o),
(639,593,o),
(615,593,cs),
(364,593,l),
(347,561,l),
(640,561,l)
);
},
{
closed = 1;
nodes = (
(327,548,l),
(432,388,o),
(622,243,o),
(809,212,cs),
(816,210,o),
(829,210,o),
(836,211,cs),
(869,216,o),
(905,223,o),
(940,230,cs),
(972,236,o),
(971,256,o),
(939,258,cs),
(701,266,o),
(492,375,o),
(352,577,c)
);
},
{
closed = 1;
nodes = (
(291,410,o),
(351,479,o),
(437,667,cs),
(440,673,o),
(438,679,o),
(432,681,cs),
(372,704,ls),
(366,706,o),
(359,703,o),
(357,696,cs),
(320,543,o),
(253,442,o),
(137,353,cs),
(118,338,o),
(138,323,o),
(157,334,cs)
);
}
);
width = 1000;
}
);
unicode = 21508;
},
{
glyphname = uni5408;
lastChange = "2023-09-21 14:49:36 +0000";
layers = (
{
layerId = m01;
shapes = (
{
closed = 1;
nodes = (
(246,341,o),
(417,466,o),
(560,630,cs),
(564,635,o),
(562,640,o),
(557,644,cs),
(502,690,ls),
(497,694,o),
(491,693,o),
(487,686,cs),
(389,515,o),
(235,389,o),
(75,301,cs),
(46,284,o),
(55,267,o),
(86,277,cs)
);
},
{
closed = 1;
nodes = (
(877,311,o),
(900,316,o),
(929,325,cs),
(963,336,o),
(956,343,o),
(932,352,cs),
(870,375,o),
(663,484,o),
(531,631,c),
(500,602,l),
(635,452,o),
(736,361,o),
(815,317,cs),
(833,307,o),
(838,306,o),
(859,309,cs)
);
},
{
closed = 1;
nodes = (
(666,343,ls),
(683,343,o),
(693,349,o),
(693,358,cs),
(693,373,o),
(647,400,o),
(617,412,c),
(623,387,o),
(612,372,o),
(582,372,cs),
(306,372,l),
(306,357,o),
(311,343,o),
(327,343,cs)
);
},
{
closed = 1;
nodes = (
(686,-20,l),
(686,12,l),
(306,12,l),
(306,-20,l)
);
},
{
closed = 1;
nodes = (
(668,192,l),
(668,-46,ls),
(668,-58,o),
(670,-65,o),
(688,-65,cs),
(722,-65,o),
(742,-42,o),
(742,-28,cs),
(743,177,l),
(765,181,o),
(775,188,o),
(775,200,cs),
(775,218,o),
(726,249,o),
(678,262,c),
(674,239,o),
(666,224,o),
(643,224,cs),
(330,224,l),
(308,238,o),
(280,249,o),
(250,256,c),
(250,-47,ls),
(250,-59,o),
(254,-65,o),
(272,-65,cs),
(305,-65,o),
(324,-43,o),
(324,-29,cs),
(324,192,l)
);
}
);
width = 1000;
}
);
unicode = 21512;
},
{
glyphname = uni5409;
lastChange = "2023-09-21 14:49:36 +0000";
layers = (
{
layerId = m01;
shapes = (
{
closed = 1;
nodes = (
(898,518,ls),
(922,518,o),
(931,524,o),
(931,538,cs),
(931,559,o),
(847,602,o),
(811,615,c),
(803,574,o),
(784,552,o),
(752,552,cs),
(73,552,l),
(73,533,o),
(78,518,o),
(102,518,cs)
);
},
{
closed = 1;
nodes = (
(704,-6,l),
(704,26,l),
(284,26,l),
(284,-6,l)
);
},
{
closed = 1;
nodes = (
(696,224,l),
(696,-41,l),
(696,-53,o),
(698,-60,o),
(716,-60,c),
(750,-60,o),
(770,-37,o),
(770,-23,cs),
(771,209,l),
(793,213,o),
(803,220,o),
(803,232,cs),
(803,250,o),
(754,281,o),
(706,294,c),
(702,271,o),
(694,256,o),
(671,256,cs),
(298,256,l),
(276,272,o),
(248,287,o),
(218,298,c),
(218,-42,ls),
(218,-54,o),
(222,-60,o),
(240,-60,cs),
(273,-60,o),
(292,-38,o),
(292,-24,cs),
(292,224,l)
);
},
{
closed = 1;
nodes = (
(531,674,ls),
(531,677,o),
(528,681,o),
(524,682,cs),
(510,688,o),
(490,693,o),
(469,694,c),
(469,371,ls),
(469,362,o),
(474,355,o),
(488,355,cs),
(512,355,o),
(533,372,o),
(533,389,cs)
);
},
{
closed = 1;
nodes = (
(818,348,ls),
(842,348,o),
(851,354,o),
(851,368,cs),
(851,389,o),
(777,423,o),
(741,436,c),
(733,395,o),
(714,382,o),
(682,382,cs),
(173,382,l),
(173,363,o),
(178,348,o),
(202,348,cs)
);
}
);
width = 1000;
}
);
unicode = 21513;
},
{
glyphname = uni540C;
lastChange = "2023-09-21 14:49:36 +0000";
layers = (
{
layerId = m01;
shapes = (
{
closed = 1;
nodes = (
(804,-61,o),
(840,-8,o),
(840,36,cs),
(840,584,l),
(861,586,o),
(872,593,o),
(872,603,cs),
(872,620,o),
(827,646,o),
(791,659,c),
(783,642,o),
(775,627,o),
(756,627,cs),
(170,628,l),
(171,617,o),
(174,596,o),
(194,596,cs),
(772,595,l),
(773,72,ls),
(773,36,o),
(755,17,o),
(694,17,cs),
(673,17,o),
(634,18,o),
(546,18,cs),
(535,18,o),
(521,18,o),
(521,6,cs),
(521,-3,o),
(530,-9,o),
(542,-10,cs),
(728,-20,o),
(679,-61,o),
(719,-61,cs)
);
},
{
closed = 1;
nodes = (
(207,629,ls),
(207,633,o),
(203,637,o),
(199,638,cs),
(182,645,o),
(162,649,o),
(138,650,c),
(138,-40,ls),
(138,-51,o),
(144,-59,o),
(160,-59,cs),
(185,-59,o),
(209,-40,o),
(209,-21,cs)
);
},
{
closed = 1;
nodes = (
(693,449,ls),
(710,449,o),
(720,455,o),
(720,464,cs),
(720,479,o),
(674,506,o),
(644,518,c),
(650,493,o),
(639,478,o),
(609,478,cs),
(263,478,l),
(263,463,o),
(268,449,o),
(284,449,cs)
);
},
{
closed = 1;
nodes = (
(591,122,l),
(591,154,l),
(371,154,l),
(371,122,l)
);
},
{
closed = 1;
nodes = (
(567,313,l),
(567,106,ls),
(567,94,o),
(569,87,o),
(587,87,cs),
(617,87,o),
(635,110,o),
(635,123,cs),
(636,298,l),
(657,302,o),
(667,309,o),
(667,321,cs),
(667,338,o),
(622,364,o),
(575,376,c),
(571,354,o),
(564,344,o),
(541,344,cs),
(393,344,l),
(371,358,o),
(350,364,o),
(320,370,c),
(320,105,ls),
(320,93,o),
(324,87,o),
(342,87,cs),
(374,87,o),
(387,109,o),
(387,122,cs),
(387,313,l)
);
}
);
width = 1000;
}
);
unicode = 21516;
},
{
glyphname = uni543E;
lastChange = "2023-09-21 14:49:36 +0000";
layers = (
{
layerId = m01;
shapes = (
{
closed = 1;
nodes = (
(687,-6,l),
(687,26,l),
(275,26,l),
(275,-6,l)
);
},
{
closed = 1;
nodes = (
(679,194,l),
(679,-41,l),
(679,-53,o),
(681,-60,o),
(699,-60,c),
(733,-60,o),
(753,-37,o),
(753,-23,cs),
(754,179,l),
(776,183,o),
(786,190,o),
(786,202,cs),
(786,220,o),
(737,251,o),
(689,264,c),
(685,241,o),
(677,226,o),
(654,226,cs),
(287,226,l),
(265,242,o),
(237,251,o),
(209,260,c),
(209,-42,ls),
(209,-54,o),
(213,-60,o),
(231,-60,cs),
(264,-60,o),
(283,-38,o),
(283,-24,cs),
(283,194,l)
);
},
{
closed = 1;
nodes = (
(898,308,ls),
(922,308,o),
(931,314,o),
(931,328,cs),
(931,349,o),
(854,392,o),
(818,405,c),
(810,364,o),
(791,342,o),
(759,342,cs),
(73,342,l),
(73,323,o),
(78,308,o),
(102,308,cs)
);
},
{
closed = 1;
nodes = (
(818,598,ls),
(842,598,o),
(851,604,o),
(851,618,cs),
(851,639,o),
(777,673,o),
(741,686,c),
(733,645,o),
(714,632,o),
(682,632,cs),
(143,632,l),
(143,613,o),
(148,598,o),
(172,598,cs)
);
},
{
closed = 1;
nodes = (
(413,594,ls),
(413,597,o),
(410,601,o),
(406,602,cs),
(392,608,o),
(372,613,o),
(351,614,c),
(319,331,ls),
(318,322,o),
(326,315,o),
(340,315,cs),
(364,315,o),
(383,322,o),
(385,339,cs)
);
},
{
closed = 1;
nodes = (
(657,464,l),
(657,329,l),
(731,337,l),
(732,449,l),
(754,453,o),
(764,460,o),
(764,472,cs),
(764,490,o),
(715,521,o),
(667,534,c),
(663,511,o),
(655,496,o),
(632,496,cs),
(169,496,l),
(169,478,o),
(178,464,o),
(192,464,c)
);
}
);
width = 1000;
}
);
unicode = 21566;
},
{
glyphname = uni544A;
lastChange = "2023-09-21 14:49:36 +0000";
layers = (
{
layerId = m01;
shapes = (
{
closed = 1;
nodes = (
(767,480,ls),
(784,480,o),
(794,486,o),
(794,495,cs),
(794,510,o),
(739,547,o),
(698,559,c),
(704,534,o),
(693,509,o),
(663,509,cs),
(282,509,l),
(282,494,o),
(287,480,o),
(303,480,cs)
);
},
{
closed = 1;
nodes = (
(530,330,l),
(530,663,ls),
(530,667,o),
(526,671,o),
(522,673,cs),
(505,680,o),
(483,684,o),
(462,685,c),
(462,330,l)
);
},
{
closed = 1;
nodes = (
(916,311,ls),
(933,311,o),
(943,317,o),
(943,326,cs),
(943,341,o),
(887,382,o),
(837,394,c),
(844,359,o),
(829,340,o),
(789,340,cs),
(54,340,l),
(54,325,o),
(59,311,o),
(75,311,cs)
);
},
{
closed = 1;
nodes = (
(312,631,ls),
(306,634,o),
(298,632,o),
(296,625,cs),
(264,533,o),
(211,460,o),
(141,389,cs),
(129,376,o),
(135,364,o),
(158,377,cs),
(247,425,o),
(315,487,o),
(365,592,cs),
(368,599,o),
(366,607,o),
(359,610,cs)
);
},
{
closed = 1;
nodes = (
(690,-13,l),
(690,19,l),
(279,19,l),
(279,-13,l)
);
},
{
closed = 1;
nodes = (
(682,185,l),
(682,-52,ls),
(682,-64,o),
(684,-71,o),
(702,-71,cs),
(736,-71,o),
(756,-48,o),
(756,-34,cs),
(757,170,l),
(779,174,o),
(789,182,o),
(789,193,cs),
(789,206,o),
(740,242,o),
(692,255,c),
(688,232,o),
(680,217,o),
(657,217,cs),
(293,217,l),
(271,233,o),
(243,248,o),
(213,259,c),
(213,-53,ls),
(213,-65,o),
(217,-71,o),
(235,-71,cs),
(268,-71,o),
(287,-49,o),
(287,-35,cs),
(287,185,l)
);
}
);
width = 1000;
}
);
unicode = 21578;
},
{
glyphname = uni5459;
lastChange = "2023-09-21 14:49:36 +0000";
layers = (
{
layerId = m01;
shapes = (
{
closed = 1;
nodes = (
(709,437,l),
(709,469,l),
(328,469,l),
(328,437,l)
);
},
{
closed = 1;
nodes = (
(701,615,l),
(701,398,ls),
(701,386,o),
(703,379,o),
(721,379,cs),
(755,379,o),
(775,402,o),
(775,416,cs),
(776,600,l),
(798,604,o),
(808,612,o),
(808,623,cs),
(808,636,o),
(759,672,o),
(711,685,c),
(707,662,o),
(699,647,o),
(676,647,cs),
(342,647,l),
(320,663,o),
(292,678,o),
(262,689,c),
(262,397,ls),
(262,385,o),
(266,379,o),
(284,379,cs),
(317,379,o),
(336,401,o),
(336,415,cs),
(336,615,l)
);
},
{
closed = 1;
nodes = (
(227,-52,o),
(243,-30,o),
(243,-16,cs),
(243,311,l),
(231,328,o),
(207,343,o),
(175,350,c),
(175,-30,ls),
(175,-42,o),
(180,-52,o),
(197,-52,cs)
);
},
{
closed = 1;
nodes = (
(819,-51,o),
(862,-4,o),
(862,44,cs),
(862,262,l),
(886,266,o),
(898,272,o),
(898,287,cs),
(898,306,o),
(844,333,o),
(814,344,c),
(811,327,o),
(792,314,o),
(771,314,cs),
(237,314,l),
(237,283,l),
(794,283,l),
(794,64,ls),
(794,35,o),
(781,21,o),
(720,21,cs),
(696,21,o),
(670,23,o),
(640,25,cs),
(609,27,o),
(600,1,o),
(638,-5,cs),
(670,-10,o),
(691,-16,o),
(705,-21,cs),
(745,-37,o),
(728,-51,o),
(769,-51,cs)
);
},
{
closed = 1;
nodes = (
(492,124,o),
(547,235,o),
(552,444,cs),
(552,449,o),
(548,453,o),
(545,454,cs),
(487,464,l),
(486,237,o),
(436,163,o),
(316,68,cs),
(297,53,o),
(308,39,o),
(327,48,cs)
);
},
{
closed = 1;
nodes = (
(639,106,o),
(661,69,cs),
(668,57,o),
(678,49,o),
(693,51,cs),
(720,56,o),
(730,79,o),
(718,112,cs),
(703,152,o),
(611,212,o),
(502,256,cs),
(491,260,o),
(483,258,o),
(479,248,cs),
(476,242,o),
(483,238,o),
(496,231,cs),
(580,185,o)
);
}
);
width = 1000;
}
);
unicode = 21593;
},
{
glyphname = uni5468;
lastChange = "2023-09-21 14:49:36 +0000";
layers = (
{
layerId = m01;
shapes = (
{
closed = 1;
nodes = (
(814,-61,o),
(850,-8,o),
(850,36,cs),
(850,584,l),
(871,586,o),
(882,593,o),
(882,603,cs),
(882,620,o),
(837,646,o),
(801,659,c),
(793,642,o),
(785,627,o),
(766,627,cs),
(230,628,l),
(231,617,o),
(234,596,o),
(254,596,cs),
(782,595,l),
(783,72,ls),
(783,36,o),
(765,17,o),
(704,17,cs),
(683,17,o),
(644,18,o),
(556,18,cs),
(545,18,o),
(531,18,o),
(531,6,cs),
(531,-3,o),
(540,-9,o),
(552,-10,cs),
(738,-20,o),
(689,-61,o),
(729,-61,cs)
);
},
{
closed = 1;
nodes = (
(703,449,ls),
(720,449,o),
(730,455,o),
(730,464,cs),
(730,479,o),
(684,506,o),
(654,518,c),
(660,493,o),
(649,478,o),
(619,478,cs),
(323,478,l),
(323,463,o),
(328,449,o),
(344,449,cs)
);
},
{
closed = 1;
nodes = (
(625,100,l),
(625,132,l),
(399,132,l),
(399,100,l)
);
},
{
closed = 1;
nodes = (
(602,232,l),
(602,84,ls),
(602,73,o),
(603,66,o),
(621,66,cs),
(651,66,o),
(668,88,o),
(668,101,cs),
(669,217,l),
(690,221,o),
(700,228,o),
(700,240,cs),
(700,256,o),
(655,282,o),
(609,294,c),
(605,272,o),
(599,262,o),
(576,262,cs),
(421,262,l),
(399,276,o),
(379,282,o),
(349,288,c),
(349,83,ls),
(349,72,o),
(353,66,o),
(371,66,cs),
(402,66,o),
(415,87,o),
(415,100,cs),
(415,232,l)
);
},
{
closed = 1;
nodes = (
(254,639,o),
(222,646,o),
(199,651,c),
(209,354,o),
(200,130,o),
(53,-30,cs),
(34,-50,o),
(49,-70,o),
(75,-50,cs),
(272,102,o),
(280,321,o),
(273,628,c)
);
},
{
closed = 1;
nodes = (
(723,334,ls),
(740,334,o),
(750,340,o),
(750,349,cs),
(750,364,o),
(704,391,o),
(674,403,c),
(680,378,o),
(669,363,o),
(639,363,cs),
(293,363,l),
(293,348,o),
(298,334,o),
(314,334,cs)
);
},
{
closed = 1;
nodes = (
(547,358,l),
(547,553,ls),
(547,556,o),
(544,560,o),
(540,561,cs),
(526,567,o),
(502,572,o),
(481,573,c),
(481,358,l)
);
}
);
width = 1000;
}
);
unicode = 21608;
},
{
glyphname = uni5485;
lastChange = "2023-09-21 14:49:36 +0000";
layers = (
{
layerId = m01;
shapes = (
{
closed = 1;
nodes = (
(531,545,o),
(557,575,o),
(557,597,cs),
(557,629,o),
(493,673,o),
(440,690,cs),
(418,698,o),
(407,680,o),
(423,665,cs),
(461,631,o),
(477,592,o),
(482,571,cs),
(484,560,o),
(489,545,o),
(509,545,cs)
);
},
{
closed = 1;
nodes = (
(898,326,ls),
(922,326,o),
(931,332,o),
(931,346,cs),
(931,367,o),
(847,410,o),
(811,423,c),
(803,382,o),
(784,360,o),
(752,360,cs),
(73,360,l),
(73,341,o),
(78,326,o),
(102,326,cs)
);
},
{
closed = 1;
nodes = (
(818,537,ls),
(842,537,o),
(851,543,o),
(851,557,cs),
(851,578,o),
(777,612,o),
(741,625,c),
(733,584,o),
(714,571,o),
(682,571,cs),
(173,571,l),
(173,552,o),
(178,537,o),
(202,537,cs)
);
},
{
closed = 1;
nodes = (
(695,-6,l),
(695,26,l),
(295,26,l),
(295,-6,l)
);
},
{
closed = 1;
nodes = (
(687,194,l),
(687,-41,l),
(687,-53,o),
(689,-60,o),
(707,-60,c),
(741,-60,o),
(761,-37,o),
(761,-23,cs),
(762,179,l),
(784,183,o),
(794,190,o),
(794,202,cs),
(794,220,o),
(745,251,o),
(697,264,c),
(693,241,o),
(685,226,o),
(662,226,cs),
(309,226,l),
(287,242,o),
(259,257,o),
(229,268,c),
(229,-42,ls),
(229,-54,o),
(233,-60,o),
(251,-60,cs),
(284,-60,o),
(303,-38,o),
(303,-24,cs),
(303,194,l)
);
},
{
closed = 1;
nodes = (
(389,359,o),
(412,374,o),
(412,400,cs),
(412,438,o),
(357,482,o),
(302,492,cs),
(276,497,o),
(266,485,o),
(287,467,cs),
(317,442,o),
(338,408,o),
(344,386,cs),
(348,372,o),
(353,359,o),
(368,359,cs)
);
},
{
closed = 1;
nodes = (
(648,507,ls),
(637,512,o),
(634,508,o),
(631,497,cs),
(618,445,o),
(590,389,o),
(550,352,c),
(583,337,l),
(627,362,o),
(688,412,o),
(722,456,cs),
(727,464,o),
(724,471,o),
(715,475,cs)
);
}
);
width = 1000;
}
);
unicode = 21637;
},
{
glyphname = uni56D7;
lastChange = "2023-09-21 14:49:36 +0000";
layers = (
{
layerId = m01;
shapes = (
{
closed = 1;
nodes = (
(245,36,l),
(785,36,l),
(785,4,l),
(245,4,l)
);
},
{
closed = 1;
nodes = (
(253,-24,ls),
(253,-38,o),
(234,-60,o),
(201,-60,cs),
(183,-60,o),
(179,-54,o),
(179,-42,cs),
(179,698,l),
(209,687,o),
(237,672,o),
(259,656,c),
(752,656,ls),
(775,656,o),
(783,671,o),
(787,694,c),
(835,681,o),
(884,650,o),
(884,632,cs),
(884,620,o),
(874,613,o),
(852,609,c),
(851,-23,ls),
(851,-37,o),
(831,-60,o),
(797,-60,c),
(779,-60,o),
(777,-53,o),
(777,-41,c),
(777,624,l),
(253,624,l)
);
}
);
width = 1000;
}
);
unicode = 22231;
},
{
glyphname = uni571F;
lastChange = "2023-09-21 14:49:36 +0000";
layers = (
{
background = {
shapes = (
{
closed = 1;
nodes = (
(904,5,o),
(896,0,o),
(874,0,c),
(184,0,l),
(144,0,o),
(100,2,o),
(90,37,c),
(206,25,o),
(353,23,o),
(466,23,c),
(466,319,l),
(265,319,l),
(227,319,o),
(182,319,o),
(169,357,c),
(274,344,o),
(381,342,o),
(466,342,c),
(466,673,l),
(523,669,o),
(565,657,o),
(565,642,c),
(565,632,o),
(556,625,o),
(526,623,c),
(526,342,l),
(687,342,l),
(700,362,o),
(712,380,o),
(729,398,c),
(763,385,o),
(818,354,o),
(818,337,c),
(818,325,o),
(809,319,o),
(787,319,c),
(526,319,l),
(526,23,l),
(764,23,l),
(776,44,o),
(789,62,o),
(807,80,c),
(842,68,o),
(904,33,o),
(904,16,c)
);
}
);
};
layerId = m01;
shapes = (
{
closed = 1;
nodes = (
(898,-22,ls),
(922,-22,o),
(931,-16,o),
(931,-2,cs),
(931,19,o),
(847,62,o),
(811,75,c),
(803,34,o),
(784,12,o),
(752,12,cs),
(73,12,l),
(73,-7,o),
(78,-22,o),
(102,-22,cs)
);
},
{
closed = 1;
nodes = (
(803,307,ls),
(827,307,o),
(836,313,o),
(836,327,cs),
(836,348,o),
(757,386,o),
(721,399,c),
(713,358,o),
(694,341,o),
(662,341,cs),
(163,341,l),
(163,322,o),
(168,307,o),
(192,307,cs)
);
},
{
closed = 1;
nodes = (
(536,-6,l),
(534,689,ls),
(534,693,o),
(530,697,o),
(526,698,cs),
(509,705,o),
(489,709,o),
(465,710,c),
(465,-6,l)
);
}
);
width = 1000;
}
);
unicode = 22303;
},
{
glyphname = uni572D;
lastChange = "2023-09-21 14:49:36 +0000";
layers = (
{
layerId = m01;
shapes = (
{
closed = 1;
nodes = (
(792,505,ls),
(809,505,o),
(819,511,o),
(819,520,cs),
(819,535,o),
(773,562,o),
(743,574,c),
(749,549,o),
(738,534,o),
(708,534,cs),
(173,534,l),
(173,519,o),
(178,505,o),
(194,505,cs)
);
},
{
closed = 1;
nodes = (
(530,341,l),
(530,663,ls),
(530,667,o),
(526,671,o),
(522,673,cs),
(505,680,o),
(483,684,o),
(462,685,c),
(462,341,l)
);
},
{
closed = 1;
nodes = (
(855,331,ls),
(872,331,o),
(882,337,o),
(882,346,cs),
(882,361,o),
(826,402,o),
(776,414,c),
(783,379,o),
(768,360,o),
(728,360,cs),
(124,360,l),
(124,345,o),
(129,331,o),
(145,331,cs)
);
},
{
closed = 1;
nodes = (
(787,149,ls),
(804,149,o),
(814,155,o),
(814,164,cs),
(814,179,o),
(768,206,o),
(738,218,c),
(744,193,o),
(733,178,o),
(703,178,cs),
(178,178,l),
(178,163,o),
(183,149,o),
(199,149,cs)
);
},
{
closed = 1;
nodes = (
(530,-21,l),
(530,293,ls),
(530,297,o),
(526,301,o),
(522,303,cs),
(505,310,o),
(483,314,o),
(462,315,c),
(462,-21,l)
);
},
{
closed = 1;
nodes = (
(885,-35,ls),
(902,-35,o),
(912,-29,o),
(912,-20,cs),
(912,-5,o),
(856,36,o),
(806,48,c),
(813,13,o),
(798,-6,o),
(758,-6,cs),
(98,-6,l),
(98,-21,o),
(103,-35,o),
(119,-35,cs)
);
}
);
width = 1000;
}
);
unicode = 22317;
},
{
glyphname = uni57CE;
lastChange = "2023-09-21 14:49:36 +0000";
layers = (
{
layerId = m01;
shapes = (
{
closed = 1;
nodes = (
(113,21,o),
(103,45,o),
(116,51,cs),
(216,97,o),
(345,163,o),
(380,185,c),
(387,215,l),
(273,164,o),
(157,126,o),
(43,103,c),
(54,53,o),
(77,12,o),
(96,17,cs)
);
},
{
closed = 1;
nodes = (
(352,411,ls),
(369,411,o),
(379,417,o),
(379,430,cs),
(379,447,o),
(330,470,o),
(307,479,c),
(308,457,o),
(297,445,o),
(277,445,cs),
(56,445,l),
(56,420,o),
(61,411,o),
(81,411,cs)
);
},
{
closed = 1;
nodes = (
(540,63,o),
(587,120,o),
(596,181,cs),
(599,215,o),
(606,272,o),
(606,312,c),
(626,313,o),
(637,321,o),
(637,332,cs),
(637,351,o),
(591,371,o),
(559,387,c),
(553,367,o),
(544,361,o),
(535,361,cs),
(424,361,l),
(424,326,l),
(544,326,l),
(544,281,o),
(539,222,o),
(532,189,cs),
(523,150,o),
(509,127,o),
(472,127,cs),
(457,127,o),
(446,127,o),
(438,129,c),
(429,129,o),
(422,131,o),
(420,122,cs),
(417,110,o),
(422,109,o),
(435,105,c),
(470,88,o),
(461,63,o),
(486,63,cs)
);
},
{
closed = 1;
nodes = (
(436,65,o),
(447,277,o),
(456,479,c),
(900,479,ls),
(914,479,o),
(924,485,o),
(924,495,cs),
(924,512,o),
(876,538,o),
(845,551,c),
(844,525,o),
(832,513,o),
(811,513,cs),
(459,513,l),
(438,526,o),
(410,538,o),
(385,547,c),
(393,271,o),
(377,101,o),
(248,-52,cs),
(222,-81,o),
(252,-91,o),
(276,-71,cs)
);
},
{
closed = 1;
nodes = (
(745,88,o),
(818,197,o),
(885,396,cs),
(887,401,o),
(883,408,o),
(879,410,cs),
(835,430,ls),
(828,433,o),
(821,429,o),
(819,420,cs),
(773,228,o),
(697,114,o),
(560,9,cs),
(530,-12,o),
(546,-37,o),
(579,-15,cs)
);
},
{
closed = 1;
nodes = (
(845,558,o),
(863,578,o),
(863,597,cs),
(863,622,o),
(813,649,o),
(768,669,cs),
(741,681,o),
(731,667,o),
(752,649,cs),
(784,621,o),
(800,591,o),
(803,578,cs),
(806,567,o),
(809,558,o),
(824,558,cs)
);
},
{
closed = 1;
nodes = (
(657,701,o),
(638,707,o),
(615,709,c),
(613,524,o),
(655,-37,o),
(885,-72,cs),
(923,-77,o),
(927,-52,o),
(926,-28,cs),
(924,19,o),
(942,89,o),
(956,145,cs),
(962,170,o),
(937,181,o),
(926,151,cs),
(914,114,o),
(882,12,o),
(846,26,cs),
(763,59,o),
(678,368,o),
(681,684,cs),
(681,688,o),
(678,691,o),
(674,693,cs)
);
},
{
closed = 1;
nodes = (
(264,659,ls),
(264,663,o),
(260,667,o),
(256,669,cs),
(239,676,o),
(217,680,o),
(196,681,c),
(196,125,l),
(264,151,l)
);
}
);
width = 1000;
}
);
unicode = 22478;
},
{
glyphname = uni58EB;
lastChange = "2023-09-21 14:49:36 +0000";
layers = (
{
layerId = m01;
shapes = (
{
closed = 1;
nodes = (
(871,356,ls),
(894,356,o),
(910,362,o),
(910,376,cs),
(910,399,o),
(842,436,o),
(779,452,c),
(790,412,o),
(774,386,o),
(729,386,cs),
(93,386,l),
(92,372,o),
(96,356,o),
(113,356,cs)
);
},
{
closed = 1;
nodes = (
(541,649,ls),
(541,652,o),
(538,656,o),
(534,657,cs),
(520,663,o),
(488,668,o),
(461,669,c),
(463,21,ls),
(463,12,o),
(474,5,o),
(488,5,cs),
(512,5,o),
(543,22,o),
(543,39,cs)
);
},
{
closed = 1;
nodes = (
(811,0,ls),
(834,0,o),
(850,6,o),
(850,20,cs),
(850,43,o),
(782,80,o),
(719,96,c),
(730,56,o),
(714,30,o),
(669,30,cs),
(153,30,l),
(152,16,o),
(156,0,o),
(173,0,cs)
);
}
);
width = 1000;
}
);
unicode = 22763;
},
{
glyphname = uni5902;
lastChange = "2023-09-21 14:49:36 +0000";
layers = (
{
layerId = m01;
shapes = (
{
closed = 1;
nodes = (
(244,448,o),
(353,535,o),
(439,641,cs),
(443,646,o),
(444,654,o),
(439,657,cs),
(390,688,ls),
(386,690,o),
(382,690,o),
(379,686,cs),
(304,571,o),
(225,494,o),
(99,408,cs),
(91,402,o),
(100,388,o),
(109,392,cs)
);
},
{
closed = 1;
nodes = (
(660,537,l),
(722,544,o),
(744,550,o),
(744,569,cs),
(744,593,o),
(682,622,o),
(637,639,c),
(635,614,o),
(612,598,o),
(589,598,cs),
(326,598,l),
(327,576,o),
(340,562,o),
(356,562,cs),
(626,562,l)
);
},
{
closed = 1;
nodes = (
(624,436,o),
(707,567,c),
(633,592,l),
(565,486,o),
(369,326,o),
(75,262,cs),
(45,256,o),
(50,235,o),
(73,237,cs),
(404,266,o)
);
},
{
closed = 1;
nodes = (
(825,232,o),
(899,244,o),
(922,250,cs),
(949,257,o),
(950,276,o),
(923,279,cs),
(738,300,o),
(459,423,o),
(344,554,c),
(312,540,l),
(441,376,o),
(646,258,o),
(771,233,cs),
(787,230,o),
(792,228,o),
(810,230,cs)
);
}
);
width = 1000;
}
);
unicode = 22786;
},
{
glyphname = uni590B.001;
lastChange = "2023-09-21 14:49:36 +0000";
layers = (
{
layerId = m01;
shapes = (
{
closed = 1;
nodes = (
(676,549,o),
(726,519,o),
(774,455,cs),
(784,442,o),
(786,432,o),
(803,435,cs),
(832,440,o),
(844,475,o),
(840,502,cs),
(833,551,o),
(716,590,o),
(609,606,cs),
(594,609,o),
(587,612,o),
(583,601,cs),
(578,591,o),
(585,586,o),
(599,581,cs)
);
},
{
closed = 1;
nodes = (
(540,636,o),
(543,642,o),
(536,648,cs),
(482,696,l),
(399,612,o),
(312,560,o),
(186,503,c),
(208,475,l),
(350,521,o),
(455,574,o),
(529,628,cs)
);
},
{
closed = 1;
nodes = (
(158,465,ls),
(158,457,o),
(164,454,o),
(172,454,cs),
(370,465,o),
(629,487,o),
(772,527,c),
(752,556,l),
(612,528,o),
(384,512,o),
(157,519,c)
);
},
{
closed = 1;
nodes = (
(252,314,o),
(336,348,o),
(418,394,cs),
(424,397,o),
(424,405,o),
(420,409,cs),
(385,449,ls),
(383,452,o),
(378,451,o),
(374,448,cs),
(317,400,o),
(240,356,o),
(111,313,cs),
(102,310,o),
(109,295,o),
(118,296,cs)
);
},
{
closed = 1;
nodes = (
(853,292,o),
(857,320,o),
(853,341,cs),
(842,391,o),
(696,432,o),
(568,448,cs),
(544,451,o),
(537,431,o),
(559,424,cs),
(675,389,o),
(746,335,o),
(778,301,cs),
(801,276,o),
(815,274,o),
(830,281,cs)
);
},
{
closed = 1;
nodes = (
(252,162,o),
(367,217,o),
(475,302,cs),
(480,306,o),
(481,313,o),
(477,317,cs),
(434,357,ls),
(431,359,o),
(427,360,o),
(423,356,cs),
(332,266,o),
(240,204,o),
(101,141,cs),
(92,137,o),
(99,122,o),
(108,124,cs)
);
},
{
closed = 1;
nodes = (
(660,217,l),
(722,224,o),
(744,230,o),
(744,249,cs),
(744,273,o),
(682,302,o),
(637,319,c),
(635,294,o),
(612,278,o),
(589,278,cs),
(356,278,l),
(357,256,o),
(370,242,o),
(386,242,cs),
(626,242,l)
);
},
{
closed = 1;
nodes = (
(624,116,o),
(707,247,c),
(633,272,l),
(565,166,o),
(369,34,o),
(75,-30,cs),
(45,-36,o),
(50,-57,o),
(73,-55,cs),
(404,-26,o)
);
},
{
closed = 1;
nodes = (
(830,-58,o),
(899,-48,o),
(922,-42,cs),
(949,-35,o),
(950,-17,o),
(923,-13,cs),
(788,7,o),
(459,113,o),
(344,244,c),
(305,230,l),
(434,66,o),
(701,-32,o),
(776,-57,cs),
(792,-62,o),
(797,-62,o),
(815,-60,cs)
);
}
);
width = 1000;
}
);
},
{
glyphname = uni5915;
lastChange = "2023-09-21 14:49:36 +0000";
layers = (
{
layerId = m01;
shapes = (
{
closed = 1;
nodes = (
(350,350,o),
(462,494,o),
(524,652,cs),
(526,658,o),
(525,664,o),
(519,666,cs),
(456,691,ls),
(450,693,o),
(443,690,o),
(441,683,cs),
(397,524,o),
(315,391,o),
(181,267,cs),
(163,251,o),
(184,236,o),
(201,248,cs)
);
},
{
closed = 1;
nodes = (
(744,443,l),
(806,450,o),
(828,456,o),
(828,475,cs),
(828,499,o),
(766,528,o),
(721,545,c),
(719,520,o),
(696,504,o),
(673,504,cs),
(380,504,l),
(381,482,o),
(394,468,o),
(410,468,cs),
(710,468,l)
);
},
{
closed = 1;
nodes = (
(664,201,o),
(787,472,c),
(713,497,l),
(605,251,o),
(433,82,o),
(87,-32,cs),
(58,-42,o),
(70,-62,o),
(93,-57,cs),
(476,22,o)
);
},
{
closed = 1;
nodes = (
(387,328,o),
(415,300,o),
(444,236,cs),
(451,222,o),
(451,213,o),
(466,212,cs),
(492,211,o),
(510,240,o),
(511,264,cs),
(514,307,o),
(421,364,o),
(340,391,cs),
(326,396,o),
(321,400,o),
(315,391,cs),
(309,383,o),
(314,378,o),
(326,370,cs)
);
}
);
width = 1000;
}
);
unicode = 22805;
},
{
glyphname = uni5927;
lastChange = "2023-09-21 14:49:36 +0000";
layers = (
{
layerId = m01;
shapes = (
{
closed = 1;
nodes = (
(315,14,o),
(495,148,o),
(524,429,cs),
(529,477,o),
(530,575,o),
(529,675,cs),
(529,680,o),
(524,685,o),
(521,686,cs),
(500,693,o),
(478,697,o),
(455,698,c),
(457,628,o),
(458,516,o),
(455,454,cs),
(444,214,o),
(304,61,o),
(97,-42,cs),
(80,-50,o),
(76,-53,o),
(80,-61,cs),
(83,-69,o),
(93,-71,o),
(106,-66,cs)
);
},
{
closed = 1;
nodes = (
(709,70,o),
(566,265,o),
(498,476,c),
(491,392,l),
(548,189,o),
(696,17,o),
(800,-55,c),
(832,-55,o),
(863,-51,o),
(909,-46,cs),
(923,-44,o),
(929,-40,o),
(929,-32,cs),
(929,-25,o),
(922,-22,o),
(910,-17,cs)
);
},
{
closed = 1;
nodes = (
(878,423,ls),
(902,423,o),
(911,429,o),
(911,443,cs),
(911,464,o),
(827,507,o),
(791,520,c),
(783,479,o),
(764,457,o),
(732,457,cs),
(93,457,l),
(93,438,o),
(98,423,o),
(122,423,cs)
);
}
);
width = 1000;
}
);
unicode = 22823;
},
{
glyphname = uni5929;
lastChange = "2023-09-21 14:49:36 +0000";
layers = (
{
layerId = m01;
shapes = (
{
closed = 1;
nodes = (
(310,18,o),
(486,131,o),
(515,412,cs),
(520,460,o),
(521,495,o),
(520,595,cs),
(520,600,o),
(515,605,o),
(512,606,cs),
(491,613,o),
(469,617,o),
(446,618,c),
(448,548,o),
(448,508,o),
(445,446,cs),
(434,206,o),
(299,68,o),
(92,-35,cs),
(75,-43,o),
(71,-49,o),
(75,-57,cs),
(78,-65,o),
(88,-67,o),
(101,-62,cs)
);
},
{
closed = 1;
nodes = (
(709,70,o),
(586,188,o),
(488,396,c),
(493,322,l),
(540,157,o),
(686,14,o),
(790,-58,c),
(822,-58,o),
(863,-51,o),
(909,-46,cs),
(923,-44,o),
(929,-40,o),
(929,-32,cs),
(929,-25,o),
(922,-22,o),
(910,-17,cs)
);
},
{
closed = 1;
nodes = (
(878,323,ls),
(902,323,o),
(911,329,o),
(911,343,cs),
(911,364,o),
(827,407,o),
(791,420,c),
(783,379,o),
(764,357,o),
(732,357,cs),
(93,357,l),
(93,338,o),
(98,323,o),
(122,323,cs)
);
},
{
closed = 1;
nodes = (
(778,593,ls),
(802,593,o),
(811,599,o),
(811,613,cs),
(811,634,o),
(727,677,o),
(691,690,c),
(683,649,o),
(664,627,o),
(632,627,cs),
(203,627,l),
(203,608,o),
(208,593,o),
(232,593,cs)
);
}
);
width = 1000;
}
);
unicode = 22825;
},
{
glyphname = uni592C;
lastChange = "2023-09-21 14:49:36 +0000";
layers = (
{
layerId = m01;
shapes = (
{
closed = 1;
nodes = (
(300,-9,o),
(475,84,o),
(504,355,cs),
(509,403,o),
(510,575,o),
(509,675,cs),
(509,680,o),
(504,685,o),
(501,686,cs),
(480,693,o),
(458,697,o),
(435,698,c),
(437,628,o),
(438,456,o),
(435,394,cs),
(424,154,o),
(292,54,o),
(97,-36,cs),
(80,-44,o),
(76,-51,o),
(80,-59,cs),
(83,-67,o),
(93,-68,o),
(106,-64,cs)
);
},
{
closed = 1;
nodes = (
(717,52,o),
(564,132,o),
(462,320,c),
(460,267,l),
(526,107,o),
(690,-16,o),
(805,-61,c),
(837,-61,o),
(873,-54,o),
(919,-49,cs),
(933,-47,o),
(939,-43,o),
(939,-35,cs),
(939,-28,o),
(932,-24,o),
(920,-20,cs)
);
},
{
closed = 1;
nodes = (
(207,499,o),
(211,484,o),
(240,484,cs),
(677,484,l),
(677,249,l),
(749,253,l),
(750,469,l),
(772,473,o),
(782,480,o),
(782,492,cs),
(782,510,o),
(735,541,o),
(687,554,c),
(683,531,o),
(675,516,o),
(652,516,cs),
(207,516,l)
);
},
{
closed = 1;
nodes = (
(916,233,ls),
(940,233,o),
(949,239,o),
(949,253,cs),
(949,274,o),
(865,317,o),
(829,330,c),
(821,289,o),
(802,267,o),
(770,267,cs),
(73,267,l),
(73,248,o),
(78,233,o),
(102,233,cs)
);
}
);
width = 1000;
}
);
unicode = 22828;
},
{
glyphname = uni592E;
lastChange = "2023-09-21 14:49:36 +0000";
layers = (
{
layerId = m01;
shapes = (
{
closed = 1;
nodes = (
(300,-9,o),
(495,84,o),
(524,355,cs),
(529,403,o),
(530,575,o),
(529,675,cs),
(529,680,o),
(524,685,o),
(521,686,cs),
(500,693,o),
(478,697,o),
(455,698,c),
(457,628,o),
(458,456,o),
(455,394,cs),
(444,154,o),
(292,54,o),
(97,-36,cs),
(80,-44,o),
(76,-51,o),
(80,-59,cs),
(83,-67,o),
(93,-68,o),
(106,-64,cs)
);
},
{
closed = 1;
nodes = (
(723,58,o),
(604,142,o),
(502,330,c),
(490,272,l),
(544,132,o),
(695,-13,o),
(810,-58,c),
(842,-58,o),
(873,-54,o),
(919,-49,cs),
(933,-47,o),
(939,-43,o),
(939,-35,cs),
(939,-28,o),
(932,-25,o),
(920,-20,cs)
);
},
{
closed = 1;
nodes = (
(707,484,l),
(707,249,l),
(779,253,l),
(780,469,l),
(802,473,o),
(812,480,o),
(812,492,cs),
(812,510,o),
(765,541,o),
(717,554,c),
(713,531,o),
(705,516,o),
(682,516,cs),
(277,516,l),
(255,532,o),
(229,547,o),
(199,558,c),
(199,248,l),
(271,256,l),
(271,484,l)
);
},
{
closed = 1;
nodes = (
(916,233,ls),
(940,233,o),
(949,239,o),
(949,253,cs),
(949,274,o),
(865,317,o),
(829,330,c),
(821,289,o),
(802,267,o),
(770,267,cs),
(73,267,l),
(73,248,o),
(78,233,o),
(102,233,cs)
);
}
);
width = 1000;
}
);
unicode = 22830;
},
{
glyphname = uni5939;
lastChange = "2023-09-21 14:49:36 +0000";
layers = (
{
layerId = m01;
shapes = (
{
closed = 1;
nodes = (
(796,515,ls),
(819,515,o),
(835,521,o),
(835,535,cs),
(835,558,o),
(767,595,o),
(704,611,c),
(715,571,o),
(699,545,o),
(654,545,cs),
(168,545,l),
(167,531,o),
(171,515,o),
(188,515,cs)
);
},
{
closed = 1;
nodes = (
(897,257,ls),
(920,257,o),
(936,263,o),
(936,277,cs),
(936,300,o),
(868,337,o),
(805,353,c),
(816,313,o),
(800,287,o),
(755,287,cs),
(69,287,l),
(68,273,o),
(72,257,o),
(89,257,cs)
);
},
{
closed = 1;
nodes = (
(491,81,o),
(531,260,o),
(527,665,cs),
(527,670,o),
(522,675,o),
(519,676,cs),
(453,688,l),
(464,315,o),
(451,153,o),
(95,-31,cs),
(58,-50,o),
(84,-62,o),
(104,-55,cs)
);
},
{
closed = 1;
nodes = (
(354,324,o),
(366,362,o),
(363,379,cs),
(359,405,o),
(313,449,o),
(235,469,cs),
(215,475,o),
(211,467,o),
(227,456,cs),
(282,419,o),
(308,349,o),
(312,334,cs),
(315,326,o),
(319,319,o),
(331,321,cs)
);
},
{
closed = 1;
nodes = (
(693,484,ls),
(686,488,o),
(679,488,o),
(675,480,cs),
(649,430,o),
(615,386,o),
(574,355,cs),
(540,330,o),
(550,319,o),
(588,333,cs),
(639,352,o),
(696,390,o),
(742,436,cs),
(748,442,o),
(746,452,o),
(739,456,cs)
);
},
{
closed = 1;
nodes = (
(499,261,l),
(569,141,o),
(668,36,o),
(784,-35,cs),
(790,-39,o),
(798,-42,o),
(807,-42,cs),
(835,-41,o),
(886,-35,o),
(926,-31,cs),
(954,-27,o),
(955,-12,o),
(930,-2,cs),
(762,62,o),
(644,163,o),
(566,267,c)
);
}
);
width = 1000;
}
);
unicode = 22841;
},
{
glyphname = uni5944;
lastChange = "2023-09-21 14:49:36 +0000";
layers = (
{
layerId = m01;
shapes = (
{
closed = 1;
nodes = (
(894,528,ls),
(911,528,o),
(921,534,o),
(921,543,cs),
(921,558,o),
(855,601,o),
(805,613,c),
(812,578,o),
(797,557,o),
(757,557,cs),
(83,557,l),
(83,542,o),
(88,528,o),
(104,528,cs)
);
},
{
closed = 1;
nodes = (
(294,340,o),
(418,457,o),
(537,649,cs),
(540,654,o),
(540,660,o),
(534,663,cs),
(475,694,ls),
(469,697,o),
(463,697,o),
(460,690,cs),
(376,499,o),
(263,380,o),
(63,298,cs),
(48,292,o),
(44,284,o),
(46,278,cs),
(49,269,o),
(59,269,o),
(74,274,cs)
);
},
{
closed = 1;
nodes = (
(511,545,l),
(640,419,o),
(751,345,o),
(827,301,cs),
(844,291,o),
(840,290,o),
(861,293,cs),
(879,295,o),
(902,299,o),
(931,309,cs),
(946,315,o),
(952,318,o),
(952,325,cs),
(952,332,o),
(937,337,o),
(922,342,cs),
(859,363,o),
(712,434,o),
(572,545,c)
);
},
{
closed = 1;
nodes = (
(701,93,l),
(701,125,l),
(273,125,l),
(273,93,l)
);
},
{
closed = 1;
nodes = (
(670,342,l),
(670,87,ls),
(670,75,o),
(674,69,o),
(692,69,cs),
(726,69,o),
(744,91,o),
(744,105,cs),
(744,327,l),
(767,331,o),
(777,338,o),
(777,350,cs),
(777,368,o),
(728,399,o),
(680,412,c),
(676,389,o),
(668,374,o),
(645,374,cs),
(310,374,l),
(230,389,l),
(230,86,ls),
(230,74,o),
(234,68,o),
(252,68,cs),
(285,68,o),
(304,90,o),
(304,104,cs),
(304,342,l)
);
},
{
closed = 1;
nodes = (
(701,221,l),
(701,253,l),
(273,253,l),
(273,221,l)
);
},
{
closed = 1;
nodes = (
(449,69,ls),
(449,-20,o),
(464,-50,o),
(588,-57,cs),
(658,-61,o),
(753,-63,o),
(830,-53,cs),
(872,-48,o),
(901,-40,o),
(919,-30,cs),
(928,-25,o),
(929,-8,o),
(920,-1,cs),
(911,6,o),
(905,18,o),
(905,32,cs),
(905,54,o),
(911,111,o),
(921,173,cs),
(925,202,o),
(894,205,o),
(888,176,cs),
(863,49,o),
(858,20,o),
(809,15,cs),
(741,8,o),
(638,6,o),
(571,11,cs),
(538,13,o),
(519,27,o),
(519,81,cs),
(519,434,ls),
(519,438,o),
(515,443,o),
(511,444,cs),
(492,449,o),
(468,452,o),
(449,455,c)
);
}
);
width = 1000;
}
);
unicode = 22852;
},
{
glyphname = uni5973;
lastChange = "2023-09-21 14:49:36 +0000";
layers = (
{
background = {
shapes = (
{
closed = 1;
nodes = (
(376,420,l),
(210,420,l),
(171,420,o),
(131,423,o),
(117,458,c),
(204,447,o),
(288,443,o),
(385,443,c)
);
},
{
closed = 1;
nodes = (
(601,152,l),
(503,34,o),
(339,-16,o),
(164,-33,c),
(151,-34,o),
(138,-34,o),
(138,-21,c),
(138,-10,o),
(148,-8,o),
(161,-7,c),
(285,12,o),
(457,54,o),
(547,174,c),
(548,176,l),
(591,245,o),
(616,321,o),
(631,440,c),
(693,438,l),
(687,326,o),
(652,225,o),
(607,157,c)
);
},
{
closed = 1;
nodes = (
(438,426,l),
(414,356,o),
(388,286,o),
(362,222,c),
(359,210,l),
(348,188,o),
(341,170,o),
(332,150,c),
(325,132,o),
(307,122,o),
(280,122,c),
(266,122,o),
(262,129,o),
(266,140,c),
(302,227,o),
(337,325,o),
(372,426,cs),
(376,437,ls),
(405,520,o),
(432,604,o),
(456,684,c),
(506,674,o),
(547,657,o),
(547,641,c),
(547,630,o),
(529,625,o),
(508,626,c),
(488,565,o),
(466,501,o),
(443,437,c)
);
},
{
closed = 1;
nodes = (
(430,420,l),
(439,443,l),
(761,443,l),
(774,464,o),
(788,484,o),
(805,501,c),
(844,487,o),
(903,455,o),
(903,436,c),
(903,425,o),
(892,420,o),
(872,420,c)
);
},
{
closed = 1;
nodes = (
(549,157,l),
(493,177,o),
(430,191,o),
(349,205,c),
(358,228,l),
(434,216,o),
(507,203,o),
(570,185,cs),
(600,176,ls),
(660,158,o),
(717,135,o),
(760,113,c),
(830,76,o),
(867,43,o),
(867,15,c),
(867,-5,o),
(846,-23,o),
(829,-23,c),
(815,-23,o),
(809,-15,o),
(802,-7,c),
(761,39,o),
(681,105,o),
(573,146,c)
);
}
);
};
layerId = m01;
shapes = (
{
closed = 1;
nodes = (
(878,423,ls),
(902,423,o),
(911,429,o),
(911,443,cs),
(911,464,o),
(827,507,o),
(791,520,c),
(783,479,o),
(764,457,o),
(732,457,cs),
(93,457,l),
(93,438,o),
(98,423,o),
(122,423,cs)
);
},
{
closed = 1;
nodes = (
(466,698,ls),
(459,701,o),
(451,698,o),
(450,691,cs),
(419,533,o),
(320,276,o),
(260,140,cs),
(255,129,o),
(260,122,o),
(274,122,cs),
(301,122,o),
(326,132,o),
(333,150,cs),
(342,170,o),
(456,464,o),
(524,665,cs),
(526,670,o),
(523,675,o),
(519,677,cs)
);
},
{
closed = 1;
nodes = (
(676,83,o),
(752,-47,cs),
(757,-56,o),
(765,-63,o),
(779,-63,cs),
(796,-63,o),
(829,-39,o),
(823,-9,cs),
(798,116,o),
(516,210,o),
(348,248,c),
(339,225,l),
(500,173,o)
);
},
{
closed = 1;
nodes = (
(656,158,o),
(693,438,c),
(631,440,l),
(573,175,o),
(434,32,o),
(130,-25,cs),
(117,-27,o),
(107,-31,o),
(108,-45,cs),
(109,-58,o),
(121,-59,o),
(134,-57,cs),
(453,-16,o)
);
}
);
width = 1000;
}
);
unicode = 22899;
},
{
glyphname = uni5A04;
lastChange = "2023-09-21 14:49:36 +0000";
layers = (
{
background = {
shapes = (
{
closed = 1;
nodes = (
(378,339,ls),
(371,342,o),
(363,339,o),
(362,332,cs),
(348,257,o),
(312,157,o),
(272,81,cs),
(265,68,o),
(272,63,o),
(286,63,cs),
(313,63,o),
(338,73,o),
(345,91,cs),
(354,111,o),
(392,196,o),
(436,306,cs),
(438,311,o),
(435,316,o),
(431,318,cs)
);
},
{
closed = 1;
nodes = (
(466,93,o),
(677,3,o),
(780,-68,cs),
(788,-73,o),
(796,-80,o),
(809,-77,cs),
(826,-74,o),
(862,-34,o),
(841,-15,cs),
(769,52,o),
(473,132,o),
(301,133,c),
(297,109,l)
);
},
{
closed = 1;
nodes = (
(577,225,l),
(524,99,o),
(391,28,o),
(111,-25,cs),
(78,-31,o),
(81,-62,o),
(115,-57,cs),
(413,-19,o),
(592,74,o),
(645,225,c)
);
}
);
};
layerId = m01;
shapes = (
{
closed = 1;
nodes = (
(901,464,ls),
(925,464,o),
(934,470,o),
(934,484,cs),
(934,504,o),
(851,542,o),
(815,555,c),
(807,514,o),
(788,498,o),
(756,498,cs),
(95,498,l),
(95,479,o),
(100,464,o),
(124,464,cs)
);
},
{
closed = 1;
nodes = (
(534,669,ls),
(534,673,o),
(530,677,o),
(526,678,cs),
(509,685,o),
(489,689,o),
(465,690,c),
(465,316,ls),
(465,305,o),
(471,297,o),
(487,297,cs),
(512,297,o),
(536,316,o),
(536,335,cs)
);
},
{
closed = 1;
nodes = (
(363,519,o),
(375,557,o),
(372,574,cs),
(368,600,o),
(327,643,o),
(249,663,cs),
(229,669,o),
(221,660,o),
(237,649,cs),
(292,612,o),
(317,544,o),
(321,529,cs),
(324,521,o),
(328,514,o),
(340,516,cs)
);
},
{
closed = 1;
nodes = (
(731,673,ls),
(723,677,o),
(715,677,o),
(712,669,cs),
(688,609,o),
(643,567,o),
(601,541,cs),
(566,520,o),
(573,507,o),
(612,518,cs),
(671,534,o),
(736,569,o),
(780,627,cs),
(785,634,o),
(786,643,o),
(778,647,cs)
);
},
{
closed = 1;
nodes = (
(339,477,l),
(289,393,o),
(206,345,o),
(69,297,cs),
(39,287,o),
(50,267,o),
(75,273,cs),
(225,307,o),
(344,369,o),
(416,477,c)
);
},
{
closed = 1;
nodes = (
(870,301,o),
(906,308,o),
(929,314,cs),
(956,321,o),
(956,337,o),
(928,342,cs),
(828,360,o),
(667,402,o),
(582,493,c),
(553,471,l),
(642,378,o),
(741,327,o),
(816,302,cs),
(832,297,o),
(837,297,o),
(855,299,cs)
);
},
{
closed = 1;
nodes = (
(897,211,ls),
(921,211,o),
(930,217,o),
(930,231,cs),
(930,247,o),
(847,279,o),
(811,292,c),
(803,251,o),
(783,245,o),
(751,245,cs),
(82,245,l),
(82,226,o),
(87,211,o),
(111,211,cs)
);
},
{
closed = 1;
nodes = (
(390,360,ls),
(383,363,o),
(375,361,o),
(374,354,cs),
(358,280,o),
(318,181,o),
(275,106,cs),
(268,94,o),
(275,88,o),
(289,88,cs),
(316,87,o),
(341,96,o),
(349,114,cs),
(358,133,o),
(399,217,o),
(447,325,cs),
(449,330,o),
(447,336,o),
(443,338,cs)
);
},
{
closed = 1;
nodes = (
(466,93,o),
(697,11,o),
(800,-60,cs),
(808,-65,o),
(816,-72,o),
(829,-69,cs),
(846,-66,o),
(872,-26,o),
(851,-7,cs),
(779,60,o),
(473,132,o),
(301,133,c),
(297,109,l)
);
},
{
closed = 1;
nodes = (
(608,225,l),
(555,99,o),
(432,17,o),
(122,-25,cs),
(89,-29,o),
(92,-60,o),
(126,-57,cs),
(454,-30,o),
(623,74,o),
(676,225,c)
);
}
);
width = 1000;
}
);
unicode = 23044;
},
{
glyphname = uni5B50;
lastChange = "2023-09-21 14:49:36 +0000";
layers = (
{
layerId = m01;
shapes = (
{
closed = 1;
nodes = (
(538,449,ls),
(538,453,o),
(534,457,o),
(530,458,cs),
(513,465,o),
(494,469,o),
(470,470,c),
(470,66,ls),
(470,37,o),
(457,23,o),
(396,23,cs),
(372,23,o),
(357,27,o),
(316,27,cs),
(285,29,o),
(275,1,o),
(314,-3,cs),
(440,-17,o),
(390,-49,o),
(445,-49,cs),
(495,-49,o),
(538,-2,o),
(538,46,cs)
);
},
{
closed = 1;
nodes = (
(878,333,ls),
(902,333,o),
(911,339,o),
(911,353,cs),
(911,374,o),
(827,417,o),
(791,430,c),
(783,389,o),
(764,367,o),
(732,367,cs),
(93,367,l),
(93,348,o),
(98,333,o),
(122,333,cs)
);
},
{
closed = 1;
nodes = (
(215,630,o),
(228,616,o),
(244,616,cs),
(651,616,l),
(608,566,o),
(549,511,o),
(505,471,cs),
(487,455,o),
(502,440,o),
(537,459,cs),
(561,472,o),
(668,537,o),
(734,595,c),
(771,601,o),
(785,608,o),
(785,623,cs),
(785,647,o),
(723,676,o),
(678,693,c),
(676,668,o),
(653,652,o),
(630,652,cs),
(214,652,l)
);
}
);
width = 1000;
}
);
unicode = 23376;
},
{
glyphname = uni5B5A;
lastChange = "2023-09-21 14:49:36 +0000";
layers = (
{
layerId = m01;
shapes = (
{
closed = 1;
nodes = (
(771,679,ls),
(767,685,o),
(765,690,o),
(758,687,cs),
(610,632,o),
(373,599,o),
(187,584,cs),
(170,583,o),
(163,561,o),
(190,561,cs),
(377,562,o),
(636,583,o),
(799,616,cs),
(805,617,o),
(811,625,o),
(807,631,cs)
);
},
{
closed = 1;
nodes = (
(347,382,o),
(365,418,o),
(365,435,cs),
(365,463,o),
(335,493,o),
(256,527,cs),
(235,536,o),
(226,529,o),
(240,513,cs),
(293,466,o),
(302,413,o),
(304,398,cs),
(305,388,o),
(309,378,o),
(323,380,cs)
);
},
{
closed = 1;
nodes = (
(529,399,o),
(549,437,o),
(549,454,cs),
(550,482,o),
(521,513,o),
(444,549,cs),
(423,559,o),
(414,552,o),
(427,536,cs),
(478,487,o),
(486,434,o),
(487,419,cs),
(488,409,o),
(491,401,o),
(505,400,cs)
);
},
{
closed = 1;
nodes = (
(722,575,ls),
(715,579,o),
(707,580,o),
(703,572,cs),
(676,498,o),
(641,455,o),
(605,418,cs),
(578,391,o),
(592,371,o),
(622,390,cs),
(678,425,o),
(721,464,o),
(778,525,cs),
(785,531,o),
(786,540,o),
(777,545,cs)
);
},
{
closed = 1;
nodes = (
(226,348,o),
(239,334,o),
(255,334,cs),
(662,334,l),
(629,305,o),
(589,279,o),
(525,239,cs),
(505,226,o),
(520,213,o),
(557,227,cs),
(591,240,o),
(689,278,o),
(745,313,c),
(782,319,o),
(796,326,o),
(796,341,cs),
(796,365,o),
(734,394,o),
(689,411,c),
(687,386,o),
(664,370,o),
(641,370,cs),
(225,370,l)
);
},
{
closed = 1;
nodes = (
(548,238,ls),
(548,242,o),
(544,246,o),
(540,247,cs),
(523,254,o),
(504,258,o),
(480,259,c),
(480,57,ls),
(480,28,o),
(467,14,o),
(406,14,cs),
(382,14,o),
(367,18,o),
(326,18,cs),
(295,20,o),
(285,-8,o),
(324,-12,cs),
(450,-26,o),
(400,-58,o),
(455,-58,cs),
(505,-58,o),
(548,-11,o),
(548,37,cs)
);
},
{
closed = 1;
nodes = (
(898,167,ls),
(922,167,o),
(931,173,o),
(931,187,cs),
(931,208,o),
(847,251,o),
(811,264,c),
(803,223,o),
(784,201,o),
(752,201,cs),
(83,201,l),
(83,182,o),
(88,167,o),
(112,167,cs)
);
}
);
width = 1000;
}
);
unicode = 23386;
},
{
glyphname = uni5B80;
lastChange = "2023-09-21 14:49:36 +0000";
layers = (
{
layerId = m01;
shapes = (
{
closed = 1;
nodes = (
(174,484,l),
(799,484,l),
(789,462,o),
(775,437,o),
(765,413,c),
(752,395,o),
(762,369,o),
(793,392,cs),
(815,409,o),
(849,438,o),
(875,463,c),
(911,469,o),
(924,477,o),
(924,491,cs),
(924,515,o),
(860,547,o),
(819,564,c),
(817,538,o),
(807,521,o),
(785,521,cs),
(169,521,l)
);
},
{
closed = 1;
nodes = (
(187,468,o),
(184,515,o),
(169,557,cs),
(153,592,o),
(134,575,o),
(138,556,cs),
(148,481,o),
(125,445,o),
(80,414,c),
(54,392,o),
(67,351,o),
(107,351,cs),
(153,351,o),
(181,391,o),
(185,439,cs)
);
},
{
closed = 1;
nodes = (
(523,513,o),
(550,545,o),
(550,569,cs),
(550,602,o),
(487,654,o),
(417,682,cs),
(394,690,o),
(382,671,o),
(399,655,cs),
(452,607,o),
(466,563,o),
(471,541,cs),
(473,530,o),
(478,513,o),
(499,513,cs)
);
}
);
width = 1000;
}
);
unicode = 23424;
},
{
glyphname = uni5B83;
lastChange = "2023-09-21 14:49:36 +0000";
layers = (
{
layerId = m01;
shapes = (
{
closed = 1;
nodes = (
(174,484,l),
(799,484,l),
(789,462,o),
(775,437,o),
(765,413,c),
(752,395,o),
(762,369,o),
(793,392,cs),
(815,409,o),
(849,438,o),
(875,463,c),
(911,469,o),
(924,477,o),
(924,491,cs),
(924,515,o),
(860,547,o),
(819,564,c),
(817,538,o),
(807,521,o),
(785,521,cs),
(169,521,l)
);
},
{
closed = 1;
nodes = (
(187,468,o),
(184,515,o),
(169,557,cs),
(153,592,o),
(134,575,o),
(138,556,cs),
(148,481,o),
(125,445,o),
(80,414,c),
(54,392,o),
(67,351,o),
(107,351,cs),
(153,351,o),
(181,391,o),
(185,439,cs)
);
},
{
closed = 1;
nodes = (
(523,513,o),
(550,545,o),
(550,569,cs),
(550,602,o),
(487,654,o),
(417,682,cs),
(394,690,o),
(382,671,o),
(399,655,cs),
(452,607,o),
(466,563,o),
(471,541,cs),
(473,530,o),
(478,513,o),
(499,513,cs)
);
},
{
closed = 1;
nodes = (
(472,173,o),
(632,247,o),
(703,303,cs),
(709,308,o),
(711,316,o),
(705,321,cs),
(659,361,ls),
(651,368,o),
(644,367,o),
(637,359,cs),
(566,271,o),
(412,208,o),
(339,179,c),
(340,145,l)
);
},
{
closed = 1;
nodes = (
(356,383,ls),
(356,387,o),
(352,391,o),
(348,393,cs),
(331,400,o),
(310,404,o),
(289,405,c),
(289,56,ls),
(289,8,o),
(311,-35,o),
(395,-44,cs),
(458,-51,o),
(561,-51,o),
(588,-49,cs),
(699,-42,o),
(748,-29,o),
(785,2,cs),
(793,8,o),
(795,17,o),
(792,26,cs),
(788,37,o),
(785,51,o),
(788,65,cs),
(792,92,o),
(802,140,o),
(804,159,cs),
(809,200,o),
(783,199,o),
(772,169,cs),
(739,75,o),
(706,16,o),
(586,6,cs),
(556,4,o),
(437,3,o),
(402,10,cs),
(377,15,o),
(356,31,o),
(356,57,cs)
);
}
);
width = 1000;
}
);
unicode = 23427;
},
{
glyphname = uni5BF8;
lastChange = "2023-09-21 14:49:36 +0000";
layers = (
{
layerId = m01;
shapes = (
{
closed = 1;
nodes = (
(658,669,ls),
(658,673,o),
(654,677,o),
(650,678,cs),
(633,685,o),
(614,689,o),
(590,690,c),
(590,56,ls),
(590,27,o),
(577,13,o),
(516,13,cs),
(492,13,o),
(477,17,o),
(436,17,cs),
(405,19,o),
(395,-9,o),
(434,-13,cs),
(560,-27,o),
(510,-59,o),
(565,-59,cs),
(615,-59,o),
(658,-12,o),
(658,36,cs)
);
},
{
closed = 1;
nodes = (
(879,456,ls),
(903,456,o),
(912,462,o),
(912,476,cs),
(912,497,o),
(828,540,o),
(792,553,c),
(784,512,o),
(765,490,o),
(733,490,cs),
(94,490,l),
(94,471,o),
(99,456,o),
(123,456,cs)
);
},
{
closed = 1;
nodes = (
(427,166,o),
(451,198,o),
(450,225,cs),
(449,259,o),
(358,329,o),
(282,353,cs),
(257,360,o),
(247,344,o),
(267,329,cs),
(326,282,o),
(363,213,o),
(370,192,cs),
(374,179,o),
(380,162,o),
(402,164,cs)
);
}
);
width = 1000;
}
);
unicode = 23544;
},
{
glyphname = uni5C0F;
lastChange = "2023-09-21 14:49:36 +0000";
layers = (
{
layerId = m01;
shapes = (
{
closed = 1;
nodes = (
(543,668,ls),
(543,673,o),
(542,677,o),
(538,678,cs),
(521,685,o),
(490,688,o),
(466,689,c),
(466,78,ls),
(466,43,o),
(447,24,o),
(397,24,cs),
(349,24,o),
(305,25,o),
(279,25,cs),
(241,25,o),
(251,4,o),
(275,2,cs),
(378,-9,o),
(382,-48,o),
(421,-48,cs),
(506,-48,o),
(543,4,o),
(543,48,cs)
);
},
{
closed = 1;
nodes = (
(206,181,o),
(297,293,o),
(349,421,cs),
(351,427,o),
(350,433,o),
(344,435,cs),
(281,460,ls),
(275,462,o),
(268,459,o),
(266,452,cs),
(232,323,o),
(168,223,o),
(56,116,cs),
(39,99,o),
(57,85,o),
(76,97,cs)
);
},
{
closed = 1;
nodes = (
(820,188,o),
(838,108,cs),
(841,94,o),
(850,82,o),
(869,83,cs),
(903,85,o),
(918,122,o),
(917,152,cs),
(914,219,o),
(807,360,o),
(668,458,cs),
(644,475,o),
(629,456,o),
(654,431,cs),
(741,343,o)
);
}
);
width = 1000;
}
);
unicode = 23567;
},
{
glyphname = uni5C11;
lastChange = "2023-09-21 14:49:36 +0000";
layers = (
{
layerId = m01;
shapes = (
{
closed = 1;
nodes = (
(549,666,ls),
(549,670,o),
(545,674,o),
(541,675,cs),
(524,682,o),
(504,686,o),
(480,687,c),
(480,253,ls),
(480,242,o),
(486,234,o),
(502,234,cs),
(527,234,o),
(551,253,o),
(551,272,cs)
);
},
{
closed = 1;
nodes = (
(742,459,o),
(810,374,o),
(838,310,cs),
(844,295,o),
(853,287,o),
(870,290,cs),
(896,295,o),
(908,330,o),
(904,357,cs),
(897,406,o),
(776,494,o),
(679,541,cs),
(656,552,o),
(646,533,o),
(665,518,cs)
);
},
{
closed = 1;
nodes = (
(238,314,o),
(316,384,o),
(383,493,cs),
(387,500,o),
(386,505,o),
(381,508,cs),
(318,541,ls),
(315,543,o),
(309,541,o),
(308,537,cs),
(266,429,o),
(199,350,o),
(109,275,cs),
(101,268,o),
(111,257,o),
(120,261,cs)
);
},
{
closed = 1;
nodes = (
(742,309,ls),
(737,313,o),
(733,313,o),
(728,308,cs),
(544,110,o),
(351,26,o),
(93,-35,cs),
(78,-39,o),
(79,-65,o),
(104,-62,cs),
(365,-27,o),
(595,59,o),
(791,250,cs),
(795,253,o),
(799,261,o),
(792,267,cs)
);
}
);
width = 1000;
}
);
unicode = 23569;
},
{
glyphname = uni5C1A;
lastChange = "2023-09-21 14:49:36 +0000";
layers = (
{
layerId = m01;
shapes = (
{
closed = 1;
nodes = (
(527,670,ls),
(527,675,o),
(526,679,o),
(522,680,cs),
(505,687,o),
(482,690,o),
(458,691,c),
(458,387,l),
(527,387,l)
);
},
{
closed = 1;
nodes = (
(348,460,o),
(363,501,o),
(359,521,cs),
(353,554,o),
(296,585,o),
(200,615,cs),
(174,623,o),
(161,610,o),
(182,596,cs),
(262,543,o),
(292,484,o),
(297,467,cs),
(299,456,o),
(305,449,o),
(322,454,cs)
);
},
{
closed = 1;
nodes = (
(712,491,o),
(761,529,o),
(816,600,cs),
(822,607,o),
(819,612,o),
(814,615,cs),
(751,648,ls),
(748,650,o),
(743,648,o),
(741,644,cs),
(711,574,o),
(673,527,o),
(600,460,cs),
(592,453,o),
(603,441,o),
(612,445,cs)
);
},
{
closed = 1;
nodes = (
(823,-81,o),
(859,-28,o),
(859,16,cs),
(859,358,l),
(880,360,o),
(891,367,o),
(891,377,cs),
(891,394,o),
(846,420,o),
(810,433,c),
(802,416,o),
(794,401,o),
(775,401,cs),
(164,402,l),
(165,391,o),
(168,370,o),
(188,370,cs),
(791,369,l),
(792,52,ls),
(792,16,o),
(774,-3,o),
(713,-3,cs),
(692,-3,o),
(662,-2,o),
(574,-2,cs),
(563,-2,o),
(549,-2,o),
(549,-14,cs),
(549,-23,o),
(558,-29,o),
(570,-30,cs),
(747,-40,o),
(698,-81,o),
(738,-81,cs)
);
},
{
closed = 1;
nodes = (
(215,395,l),
(191,414,o),
(166,426,o),
(133,434,c),
(133,-41,ls),
(133,-53,o),
(137,-59,o),
(155,-59,cs),
(188,-59,o),
(203,-37,o),
(203,-23,cs),
(203,378,l)
);
},
{
closed = 1;
nodes = (
(591,94,l),
(591,124,l),
(392,124,l),
(392,94,l)
);
},
{
closed = 1;
nodes = (
(422,280,l),
(398,299,o),
(373,311,o),
(340,319,c),
(340,62,ls),
(340,50,o),
(344,44,o),
(362,44,cs),
(395,44,o),
(407,66,o),
(407,80,cs),
(407,263,l)
);
},
{
closed = 1;
nodes = (
(395,255,l),
(583,255,l),
(583,62,ls),
(583,50,o),
(585,43,o),
(603,43,cs),
(637,43,o),
(653,66,o),
(653,80,cs),
(654,248,l),
(676,252,o),
(686,259,o),
(686,271,cs),
(686,289,o),
(641,312,o),
(593,325,c),
(589,302,o),
(581,285,o),
(558,285,cs),
(401,285,l)
);
}
);
width = 1000;
}
);
unicode = 23578;
},
{
glyphname = uni5C1E.001;
lastChange = "2023-09-21 14:49:36 +0000";
layers = (
{
layerId = m01;
shapes = (
{
closed = 1;
nodes = (
(884,562,ls),
(901,562,o),
(911,568,o),
(911,577,cs),
(911,592,o),
(853,627,o),
(803,639,c),
(810,604,o),
(797,591,o),
(757,591,cs),
(93,591,l),
(93,576,o),
(98,562,o),
(114,562,cs)
);
},
{
closed = 1;
nodes = (
(323,364,o),
(529,488,o),
(529,661,cs),
(529,665,o),
(527,668,o),
(524,669,cs),
(506,677,o),
(479,683,o),
(455,687,c),
(446,516,o),
(295,413,o),
(75,347,cs),
(47,339,o),
(49,315,o),
(83,321,cs)
);
},
{
closed = 1;
nodes = (
(839,331,o),
(898,341,o),
(921,347,cs),
(948,354,o),
(948,369,o),
(920,373,cs),
(782,391,o),
(621,470,o),
(498,572,c),
(469,550,l),
(596,434,o),
(702,357,o),
(785,332,cs),
(801,327,o),
(806,327,o),
(824,329,cs)
);
},
{
closed = 1;
nodes = (
(300,428,o),
(319,453,o),
(318,469,cs),
(318,494,o),
(279,521,o),
(220,539,cs),
(200,545,o),
(192,539,o),
(206,527,cs),
(245,491,o),
(260,455,o),
(262,441,cs),
(263,432,o),
(266,423,o),
(278,425,cs)
);
},
{
closed = 1;
nodes = (
(715,546,ls),
(707,550,o),
(698,550,o),
(696,542,cs),
(687,511,o),
(659,467,o),
(642,450,cs),
(624,432,o),
(633,421,o),
(662,429,cs),
(701,440,o),
(735,473,o),
(764,501,cs),
(770,506,o),
(770,517,o),
(762,521,cs)
);
},
{
closed = 1;
nodes = (
(699,167,l),
(699,199,l),
(269,199,l),
(269,167,l)
);
},
{
closed = 1;
nodes = (
(699,276,l),
(699,308,l),
(269,308,l),
(269,276,l)
);
},
{
closed = 1;
nodes = (
(226,384,l),
(226,160,ls),
(226,148,o),
(250,142,o),
(268,142,cs),
(301,142,o),
(300,164,o),
(300,178,cs),
(300,380,l),
(668,380,l),
(668,161,ls),
(668,149,o),
(672,143,o),
(690,143,cs),
(724,143,o),
(742,165,o),
(742,179,cs),
(743,365,l),
(765,369,o),
(765,376,o),
(765,388,cs),
(765,406,o),
(726,437,o),
(678,450,c),
(674,427,o),
(666,412,o),
(643,412,cs),
(309,412,l)
);
},
{
closed = 1;
nodes = (
(533,164,ls),
(533,169,o),
(532,173,o),
(528,174,cs),
(511,181,o),
(480,184,o),
(456,185,c),
(456,58,ls),
(456,23,o),
(437,8,o),
(387,8,cs),
(339,8,o),
(315,9,o),
(289,9,cs),
(251,9,o),
(261,-12,o),
(285,-14,cs),
(388,-25,o),
(372,-64,o),
(411,-64,cs),
(496,-64,o),
(533,-12,o),
(533,32,cs)
);
},
{
closed = 1;
nodes = (
(341,139,ls),
(334,147,o),
(328,145,o),
(321,139,cs),
(255,76,o),
(143,18,o),
(74,-8,cs),
(36,-22,o),
(40,-39,o),
(79,-33,cs),
(163,-20,o),
(291,34,o),
(366,90,cs),
(373,96,o),
(376,102,o),
(369,110,cs)
);
},
{
closed = 1;
nodes = (
(686,77,o),
(780,12,o),
(820,-41,cs),
(830,-54,o),
(840,-60,o),
(856,-54,cs),
(880,-43,o),
(883,-6,o),
(875,19,cs),
(860,65,o),
(702,120,o),
(597,138,cs),
(572,142,o),
(564,121,o),
(588,112,cs)
);
}
);
width = 1000;
}
);
},
{
glyphname = uni5C27;
lastChange = "2023-09-21 14:49:36 +0000";
layers = (
{
layerId = m01;
shapes = (
{
closed = 1;
nodes = (
(784,584,ls),
(801,586,o),
(811,590,o),
(811,599,cs),
(811,614,o),
(754,641,o),
(724,653,c),
(730,628,o),
(719,608,o),
(689,605,cs),
(117,545,l),
(117,530,o),
(122,514,o),
(138,516,cs)
);
},
{
closed = 1;
nodes = (
(406,687,l),
(434,456,o),
(545,336,o),
(810,323,cs),
(851,321,o),
(878,331,o),
(890,352,cs),
(894,358,o),
(893,365,o),
(888,368,cs),
(876,375,o),
(871,384,o),
(871,399,cs),
(871,417,o),
(890,478,o),
(898,511,cs),
(905,539,o),
(878,544,o),
(868,519,cs),
(852,479,o),
(822,391,o),
(765,395,cs),
(588,406,o),
(503,480,o),
(475,660,cs),
(474,668,o),
(472,676,o),
(464,677,cs)
);
},
{
closed = 1;
nodes = (
(753,555,ls),
(749,560,o),
(744,559,o),
(739,555,cs),
(566,409,o),
(364,374,o),
(128,317,cs),
(112,313,o),
(112,294,o),
(137,297,cs),
(386,329,o),
(592,366,o),
(785,505,cs),
(789,508,o),
(792,513,o),
(788,518,cs)
);
},
{
closed = 1;
nodes = (
(848,218,ls),
(872,218,o),
(881,224,o),
(881,238,cs),
(881,259,o),
(799,301,o),
(761,315,c),
(753,274,o),
(734,252,o),
(702,252,cs),
(113,252,l),
(113,233,o),
(118,218,o),
(142,218,cs)
);
},
{
closed = 1;
nodes = (
(338,236,l),
(333,109,o),
(296,45,o),
(78,-36,cs),
(55,-45,o),
(65,-67,o),
(86,-62,cs),
(346,5,o),
(397,90,o),
(402,236,c)
);
},
{
closed = 1;
nodes = (
(551,233,l),
(551,71,ls),
(551,-18,o),
(563,-47,o),
(778,-47,cs),
(847,-47,o),
(899,-42,o),
(944,-25,cs),
(954,-21,o),
(956,-2,o),
(947,4,cs),
(938,10,o),
(932,22,o),
(932,36,cs),
(932,58,o),
(934,101,o),
(938,135,cs),
(942,165,o),
(907,168,o),
(903,138,cs),
(888,23,o),
(874,13,o),
(774,11,cs),
(652,9,o),
(615,18,o),
(615,72,cs),
(615,233,l)
);
}
);
width = 1000;
}
);
unicode = 23591;
},
{
glyphname = uni5C38;
lastChange = "2023-09-21 14:49:36 +0000";
layers = (
{
layerId = m01;
shapes = (
{
closed = 1;
nodes = (
(69,-65,o),
(80,-60,o),
(94,-50,cs),
(234,52,o),
(280,248,o),
(290,400,cs),
(294,455,o),
(295,596,o),
(293,656,cs),
(293,662,o),
(291,670,o),
(283,674,cs),
(264,684,o),
(243,690,o),
(220,693,c),
(225,628,o),
(225,493,o),
(223,430,cs),
(218,260,o),
(175,91,o),
(75,-28,cs),
(67,-38,o),
(58,-48,o),
(62,-54,cs)
);
},
{
closed = 1;
nodes = (
(801,374,l),
(801,406,l),
(281,406,l),
(281,374,l)
);
},
{
closed = 1;
nodes = (
(793,634,l),
(793,346,ls),
(793,334,o),
(795,327,o),
(813,327,cs),
(847,327,o),
(861,350,o),
(861,364,cs),
(862,619,l),
(884,623,o),
(894,630,o),
(894,642,cs),
(894,660,o),
(851,691,o),
(803,704,c),
(799,681,o),
(787,666,o),
(764,666,cs),
(265,666,l),
(265,634,l)
);
}
);
width = 1000;
}
);
unicode = 23608;
},
{
glyphname = uni5C6F;
lastChange = "2023-09-21 14:49:36 +0000";
layers = (
{
layerId = m01;
shapes = (
{
closed = 1;
nodes = (
(898,512,ls),
(918,512,o),
(928,519,o),
(928,531,cs),
(928,550,o),
(859,587,o),
(815,601,c),
(807,567,o),
(781,546,o),
(757,546,cs),
(92,546,l),
(92,528,o),
(95,512,o),
(124,512,cs)
);
},
{
closed = 1;
nodes = (
(261,424,ls),
(261,427,o),
(258,431,o),
(254,432,cs),
(240,438,o),
(220,443,o),
(197,444,c),
(197,147,ls),
(197,138,o),
(202,131,o),
(216,131,cs),
(242,131,o),
(263,148,o),
(263,165,cs)
);
},
{
closed = 1;
nodes = (
(739,197,l),
(739,229,l),
(234,229,l),
(234,197,l)
);
},
{
closed = 1;
nodes = (
(785,424,ls),
(785,428,o),
(781,432,o),
(776,434,cs),
(759,441,o),
(738,445,o),
(717,446,c),
(717,159,ls),
(717,150,o),
(719,140,o),
(737,140,cs),
(766,140,o),
(785,157,o),
(785,169,cs)
);
},
{
closed = 1;
nodes = (
(461,76,ls),
(461,-15,o),
(473,-50,o),
(611,-55,cs),
(673,-57,o),
(779,-57,o),
(850,-50,cs),
(894,-46,o),
(923,-38,o),
(941,-27,cs),
(950,-22,o),
(951,-5,o),
(942,2,cs),
(933,9,o),
(927,22,o),
(927,36,cs),
(927,58,o),
(935,163,o),
(941,205,cs),
(945,236,o),
(908,239,o),
(904,209,cs),
(889,89,o),
(865,23,o),
(817,12,cs),
(759,-1,o),
(656,1,o),
(587,5,cs),
(553,7,o),
(527,22,o),
(527,77,cs),
(527,666,ls),
(527,670,o),
(523,675,o),
(519,676,cs),
(499,681,o),
(481,684,o),
(461,687,c)
);
}
);
width = 1000;
}
);
unicode = 23663;
},
{
glyphname = uni5C71;
lastChange = "2023-09-21 14:49:36 +0000";
layers = (
{
layerId = m01;
shapes = (
{
closed = 1;
nodes = (
(825,4,l),
(825,36,l),
(165,36,l),
(165,4,l)
);
},
{
closed = 1;
nodes = (
(199,493,ls),
(199,496,o),
(196,500,o),
(191,501,cs),
(176,507,o),
(153,512,o),
(130,513,c),
(130,-40,ls),
(130,-49,o),
(136,-56,o),
(151,-56,cs),
(178,-56,o),
(201,-39,o),
(201,-22,cs)
);
},
{
closed = 1;
nodes = (
(540,673,ls),
(540,676,o),
(536,680,o),
(532,681,cs),
(516,687,o),
(494,692,o),
(471,693,c),
(471,30,l),
(542,28,l)
);
},
{
closed = 1;
nodes = (
(865,493,ls),
(865,496,o),
(862,500,o),
(857,501,cs),
(843,507,o),
(819,512,o),
(797,513,c),
(797,-40,ls),
(797,-49,o),
(805,-56,o),
(820,-56,cs),
(845,-56,o),
(867,-39,o),
(867,-22,cs)
);
}
);
width = 1000;
}
);
unicode = 23665;
},
{
glyphname = uni5DE5;
lastChange = "2023-09-21 14:49:36 +0000";
layers = (
{
layerId = m01;
shapes = (
{
closed = 1;
nodes = (
(907,3,ls),
(931,3,o),
(940,9,o),
(940,23,cs),
(940,44,o),
(856,87,o),
(820,100,c),
(812,59,o),
(793,37,o),
(761,37,cs),
(73,37,l),
(73,18,o),
(78,3,o),
(102,3,cs)
);
},
{
closed = 1;
nodes = (
(828,543,ls),
(852,543,o),
(861,549,o),
(861,563,cs),
(861,584,o),
(781,624,o),
(745,637,c),
(737,601,o),
(714,577,o),
(682,577,cs),
(123,577,l),
(123,558,o),
(128,543,o),
(152,543,cs)
);
},
{
closed = 1;
nodes = (
(526,34,l),
(524,539,ls),
(524,543,o),
(520,547,o),
(516,548,cs),
(499,555,o),
(479,559,o),
(455,560,c),
(455,34,l)
);
}
);
width = 1000;
}
);
unicode = 24037;
},
{
glyphname = uni5DF1;
lastChange = "2023-09-21 14:49:36 +0000";
layers = (
{
layerId = m01;
shapes = (
{
closed = 1;
nodes = (
(769,572,l),
(801,579,o),
(828,584,o),
(828,601,cs),
(828,624,o),
(770,649,o),
(743,658,c),
(738,643,o),
(728,632,o),
(714,632,cs),
(152,633,l),
(152,614,o),
(158,603,o),
(182,603,cs),
(743,602,l)
);
},
{
closed = 1;
nodes = (
(758,287,o),
(778,299,o),
(778,313,cs),
(778,611,l),
(706,611,l),
(706,299,ls),
(706,287,o),
(711,287,o),
(728,287,cs)
);
},
{
closed = 1;
nodes = (
(739,349,l),
(739,381,l),
(234,381,l),
(234,349,l)
);
},
{
closed = 1;
nodes = (
(197,77,ls),
(197,-12,o),
(208,-46,o),
(344,-51,cs),
(404,-53,o),
(694,-50,o),
(764,-46,cs),
(838,-42,o),
(885,-34,o),
(903,-24,cs),
(912,-19,o),
(913,-2,o),
(904,5,cs),
(895,12,o),
(889,24,o),
(889,38,cs),
(889,60,o),
(889,121,o),
(903,243,cs),
(906,273,o),
(875,276,o),
(869,244,cs),
(837,60,o),
(800,26,o),
(731,17,cs),
(654,6,o),
(388,4,o),
(320,8,cs),
(287,10,o),
(261,24,o),
(261,78,cs),
(261,391,ls),
(261,395,o),
(257,400,o),
(253,401,cs),
(234,406,o),
(216,409,o),
(197,412,c)
);
}
);
width = 1000;
}
);
unicode = 24049;
},
{
glyphname = uni5DF4;
lastChange = "2023-09-21 14:49:36 +0000";
layers = (
{
layerId = m01;
shapes = (
{
closed = 1;
nodes = (
(226,592,l),
(738,592,l),
(738,296,ls),
(738,284,o),
(740,277,o),
(758,277,cs),
(793,277,o),
(812,290,o),
(812,304,cs),
(813,579,l),
(835,583,o),
(845,590,o),
(845,602,cs),
(845,620,o),
(796,651,o),
(748,664,c),
(744,641,o),
(736,626,o),
(713,626,cs),
(226,626,l)
);
},
{
closed = 1;
nodes = (
(780,317,l),
(780,351,l),
(228,351,l),
(228,317,l)
);
},
{
closed = 1;
nodes = (
(175,79,ls),
(175,-10,o),
(186,-46,o),
(422,-48,cs),
(652,-50,o),
(774,-47,o),
(844,-36,cs),
(887,-29,o),
(913,-23,o),
(931,-13,cs),
(940,-8,o),
(941,10,o),
(932,16,cs),
(923,22,o),
(917,34,o),
(917,48,cs),
(917,70,o),
(918,151,o),
(923,213,cs),
(925,243,o),
(890,246,o),
(888,216,cs),
(879,78,o),
(868,55,o),
(799,38,cs),
(730,21,o),
(626,10,o),
(398,10,cs),
(265,10,o),
(239,26,o),
(239,80,cs),
(239,597,l),
(249,614,l),
(233,627,o),
(212,641,o),
(175,651,c)
);
},
{
closed = 1;
nodes = (
(458,341,l),
(525,341,l),
(525,613,l),
(458,613,l)
);
}
);
width = 1000;
}
);
unicode = 24052;
},
{
glyphname = uni5E72;
lastChange = "2023-09-21 14:49:36 +0000";
layers = (
{
layerId = m01;
shapes = (
{
closed = 1;
nodes = (
(907,303,ls),
(931,303,o),
(940,309,o),
(940,323,cs),
(940,344,o),
(856,387,o),
(820,400,c),
(812,359,o),
(793,337,o),
(761,337,cs),
(73,337,l),
(73,318,o),
(78,303,o),
(102,303,cs)
);
},
{
closed = 1;
nodes = (
(799,603,ls),
(823,603,o),
(832,609,o),
(832,623,cs),
(832,644,o),
(763,680,o),
(727,693,c),
(719,657,o),
(696,637,o),
(664,637,cs),
(156,637,l),
(156,618,o),
(161,603,o),
(185,603,cs)
);
},
{
closed = 1;
nodes = (
(533,593,ls),
(533,596,o),
(529,600,o),
(525,601,cs),
(509,607,o),
(487,612,o),
(464,613,c),
(464,-40,ls),
(464,-49,o),
(470,-56,o),
(485,-56,cs),
(512,-56,o),
(535,-39,o),
(535,-22,cs)
);
}
);
width = 1000;
}
);
unicode = 24178;
},
{
glyphname = uni5E7F;
lastChange = "2023-09-21 14:49:36 +0000";
layers = (
{
layerId = m01;
shapes = (
{
closed = 1;
nodes = (
(908,519,ls),
(928,519,o),
(938,526,o),
(938,538,cs),
(938,559,o),
(869,601,o),
(836,614,c),
(829,581,o),
(790,553,o),
(746,553,cs),
(263,553,l),
(263,535,o),
(266,519,o),
(295,519,cs)
);
},
{
closed = 1;
nodes = (
(70,-62,o),
(80,-60,o),
(94,-50,cs),
(234,52,o),
(280,218,o),
(290,370,cs),
(294,425,o),
(295,502,o),
(293,562,cs),
(293,568,o),
(291,577,o),
(283,580,cs),
(264,587,o),
(245,591,o),
(222,592,c),
(227,527,o),
(227,471,o),
(226,408,cs),
(222,238,o),
(181,84,o),
(76,-27,cs),
(67,-37,o),
(54,-45,o),
(62,-54,cs)
);
},
{
closed = 1;
nodes = (
(609,549,o),
(631,584,o),
(629,607,cs),
(626,640,o),
(565,673,o),
(492,693,cs),
(469,699,o),
(461,683,o),
(479,668,cs),
(514,639,o),
(545,593,o),
(553,571,cs),
(557,561,o),
(564,544,o),
(585,546,cs)
);
}
);
width = 1000;
}
);
unicode = 24191;
},
{
glyphname = uni5EFE;
lastChange = "2023-09-21 14:49:36 +0000";
layers = (
{
layerId = m01;
shapes = (
{
closed = 1;
nodes = (
(907,343,ls),
(931,343,o),
(940,349,o),
(940,363,cs),
(940,384,o),
(856,427,o),
(820,440,c),
(812,399,o),
(793,377,o),
(761,377,cs),
(73,377,l),
(73,358,o),
(78,343,o),
(102,343,cs)
);
},
{
closed = 1;
nodes = (
(683,663,ls),
(683,666,o),
(679,670,o),
(675,671,cs),
(659,677,o),
(639,682,o),
(616,683,c),
(616,-40,ls),
(616,-49,o),
(620,-56,o),
(635,-56,cs),
(662,-56,o),
(685,-39,o),
(685,-22,cs)
);
},
{
closed = 1;
nodes = (
(99,-62,o),
(109,-57,o),
(122,-50,cs),
(316,58,o),
(352,223,o),
(365,447,cs),
(368,500,o),
(367,590,o),
(365,648,cs),
(365,657,o),
(364,668,o),
(353,673,cs),
(329,683,o),
(316,685,o),
(290,686,c),
(295,623,o),
(298,544,o),
(297,483,cs),
(293,258,o),
(257,96,o),
(105,-28,cs),
(95,-36,o),
(84,-45,o),
(92,-54,cs)
);
}
);
width = 1000;
}
);
unicode = 24318;
},
{
glyphname = uni5F0B;
lastChange = "2023-09-21 14:49:36 +0000";
layers = (
{
layerId = m01;
shapes = (
{
closed = 1;
nodes = (
(835,395,ls),
(852,397,o),
(862,401,o),
(862,410,cs),
(862,431,o),
(793,475,o),
(763,487,c),
(769,462,o),
(750,422,o),
(680,414,cs),
(149,356,l),
(149,341,o),
(163,321,o),
(179,323,cs)
);
},
{
closed = 1;
nodes = (
(437,687,l),
(415,326,o),
(491,30,o),
(846,-52,cs),
(887,-61,o),
(914,-38,o),
(926,-17,cs),
(930,-11,o),
(929,-4,o),
(924,-1,cs),
(912,6,o),
(907,15,o),
(907,30,cs),
(907,48,o),
(928,146,o),
(943,201,cs),
(950,228,o),
(919,236,o),
(911,210,cs),
(888,133,o),
(855,22,o),
(801,36,cs),
(534,106,o),
(496,370,o),
(506,650,cs),
(506,658,o),
(503,664,o),
(495,667,cs)
);
},
{
closed = 1;
nodes = (
(724,515,o),
(740,538,o),
(739,561,cs),
(738,595,o),
(669,631,o),
(589,652,cs),
(562,659,o),
(552,648,o),
(574,635,cs),
(621,607,o),
(667,562,o),
(671,531,cs),
(672,520,o),
(678,509,o),
(693,511,cs)
);
}
);
width = 1000;
}
);
unicode = 24331;
},
{
glyphname = uni5F13;
lastChange = "2023-09-21 14:49:36 +0000";
layers = (
{
layerId = m01;
shapes = (
{
closed = 1;
nodes = (
(753,-57,o),
(786,-1,o),
(789,47,cs),
(803,255,l),
(826,258,o),
(838,265,o),
(838,276,cs),
(838,294,o),
(789,329,o),
(752,343,c),
(745,317,o),
(729,302,o),
(709,302,cs),
(218,303,l),
(219,291,o),
(212,268,o),
(234,268,cs),
(731,267,l),
(720,77,ls),
(718,39,o),
(700,21,o),
(635,21,cs),
(612,21,o),
(581,22,o),
(562,22,cs),
(550,22,o),
(538,22,o),
(536,14,cs),
(533,5,o),
(544,-2,o),
(557,-3,cs),
(681,-14,o),
(619,-57,o),
(661,-57,cs)
);
},
{
closed = 1;
nodes = (
(728,400,o),
(748,412,o),
(748,426,cs),
(748,591,l),
(776,597,o),
(792,599,o),
(792,614,cs),
(792,637,o),
(740,665,o),
(713,674,c),
(708,659,o),
(698,645,o),
(680,645,cs),
(152,646,l),
(152,627,o),
(158,616,o),
(182,616,cs),
(676,615,l),
(676,412,ls),
(676,400,o),
(681,400,o),
(698,400,cs)
);
},
{
closed = 1;
nodes = (
(709,452,l),
(709,484,l),
(234,484,l),
(234,452,l)
);
},
{
closed = 1;
nodes = (
(273,477,ls),
(274,485,o),
(275,494,o),
(270,499,cs),
(259,509,o),
(238,516,o),
(214,523,c),
(172,257,ls),
(170,246,o),
(173,239,o),
(189,238,cs),
(214,236,o),
(236,239,o),
(239,260,cs)
);
}
);
width = 1000;
}
);
unicode = 24339;
},
{
glyphname = uni5F17;
lastChange = "2023-09-21 14:49:36 +0000";
layers = (
{
layerId = m01;
shapes = (
{
closed = 1;
nodes = (
(818,38,o),
(844,89,o),
(847,137,cs),
(853,225,l),
(876,228,o),
(888,235,o),
(888,246,cs),
(888,264,o),
(839,299,o),
(802,313,c),
(795,287,o),
(779,272,o),
(759,272,cs),
(228,273,l),
(229,261,o),
(222,238,o),
(244,238,cs),
(781,237,l),
(778,167,ls),
(776,129,o),
(758,111,o),
(693,111,cs),
(670,111,o),
(679,112,o),
(660,112,cs),
(648,112,o),
(636,112,o),
(634,104,cs),
(631,95,o),
(642,89,o),
(655,87,cs),
(745,75,o),
(697,30,o),
(739,33,cs)
);
},
{
closed = 1;
nodes = (
(777,340,o),
(797,352,o),
(797,366,cs),
(797,511,l),
(825,517,o),
(841,519,o),
(841,534,cs),
(841,557,o),
(789,585,o),
(762,594,c),
(757,579,o),
(747,565,o),
(729,565,cs),
(161,566,l),
(161,547,o),
(167,536,o),
(191,536,cs),
(725,535,l),
(725,352,ls),
(725,340,o),
(730,340,o),
(747,340,cs)
);
},
{
closed = 1;
nodes = (
(758,392,l),
(758,424,l),
(243,424,l),
(243,392,l)
);
},
{
closed = 1;
nodes = (
(282,417,ls),
(283,425,o),
(284,434,o),
(279,439,cs),
(268,449,o),
(247,456,o),
(223,463,c),
(182,227,ls),
(180,216,o),
(183,209,o),
(199,208,cs),
(224,206,o),
(245,209,o),
(249,230,cs)
);
},
{
closed = 1;
nodes = (
(618,669,ls),
(618,673,o),
(614,677,o),
(610,678,cs),
(593,685,o),
(573,689,o),
(549,690,c),
(549,-37,ls),
(549,-48,o),
(555,-56,o),
(571,-56,cs),
(596,-56,o),
(620,-36,o),
(620,-17,cs)
);
},
{
closed = 1;
nodes = (
(183,-62,o),
(197,-63,o),
(210,-55,cs),
(392,52,o),
(436,146,o),
(449,370,cs),
(452,423,o),
(451,594,o),
(449,652,cs),
(449,661,o),
(448,672,o),
(437,677,cs),
(413,687,o),
(402,689,o),
(376,690,c),
(381,627,o),
(382,467,o),
(381,406,cs),
(377,181,o),
(321,68,o),
(189,-28,cs),
(179,-35,o),
(168,-45,o),
(176,-54,cs)
);
}
);
width = 1000;
}
);
unicode = 24343;
},
{
glyphname = uni5F1F;
lastChange = "2023-09-21 14:49:36 +0000";
layers = (
{
layerId = m01;
shapes = (
{
closed = 1;
nodes = (
(812,-7,o),
(846,49,o),
(848,97,cs),
(854,225,l),
(877,228,o),
(889,235,o),
(889,246,cs),
(889,264,o),
(840,299,o),
(803,313,c),
(796,287,o),
(780,272,o),
(760,272,cs),
(239,273,l),
(240,261,o),
(233,238,o),
(255,238,cs),
(782,237,l),
(779,127,ls),
(778,89,o),
(759,71,o),
(694,71,cs),
(671,71,o),
(640,72,o),
(621,72,cs),
(609,72,o),
(597,72,o),
(595,64,cs),
(592,55,o),
(603,48,o),
(616,47,cs),
(740,36,o),
(678,-7,o),
(720,-7,cs)
);
},
{
closed = 1;
nodes = (
(778,340,o),
(798,352,o),
(798,366,cs),
(798,511,l),
(826,517,o),
(842,519,o),
(842,534,cs),
(842,557,o),
(790,585,o),
(763,594,c),
(758,579,o),
(748,565,o),
(730,565,cs),
(172,566,l),
(172,547,o),
(178,536,o),
(202,536,cs),
(726,535,l),
(726,352,ls),
(726,340,o),
(731,340,o),
(748,340,cs)
);
},
{
closed = 1;
nodes = (
(759,392,l),
(759,424,l),
(254,424,l),
(254,392,l)
);
},
{
closed = 1;
nodes = (
(293,417,ls),
(294,425,o),
(295,434,o),
(290,439,cs),
(279,449,o),
(258,456,o),
(234,463,c),
(193,227,ls),
(191,216,o),
(194,209,o),
(210,208,cs),
(235,206,o),
(256,209,o),
(260,230,cs)
);
},
{
closed = 1;
nodes = (
(538,539,ls),
(538,543,o),
(534,547,o),
(530,548,cs),
(513,555,o),
(493,559,o),
(469,560,c),
(469,-37,ls),
(469,-48,o),
(475,-56,o),
(491,-56,cs),
(516,-56,o),
(540,-36,o),
(540,-17,cs)
);
},
{
closed = 1;
nodes = (
(405,555,o),
(427,569,o),
(427,594,cs),
(427,630,o),
(374,672,o),
(321,682,cs),
(296,687,o),
(287,675,o),
(307,658,cs),
(336,634,o),
(356,602,o),
(362,580,cs),
(365,567,o),
(370,555,o),
(385,555,cs)
);
},
{
closed = 1;
nodes = (
(640,696,ls),
(629,701,o),
(626,697,o),
(623,687,cs),
(611,637,o),
(584,583,o),
(546,548,c),
(575,544,l),
(617,567,o),
(678,605,o),
(710,647,cs),
(715,655,o),
(712,662,o),
(704,666,cs)
);
},
{
closed = 1;
nodes = (
(453,271,l),
(366,146,o),
(223,44,o),
(87,-15,cs),
(73,-20,o),
(72,-40,o),
(93,-37,cs),
(237,-13,o),
(410,105,o),
(504,216,c)
);
}
);
width = 1000;
}
);
unicode = 24351;
},
{
glyphname = uni5F50;
lastChange = "2023-09-21 14:49:36 +0000";
layers = (
{
layerId = m01;
shapes = (
{
closed = 1;
nodes = (
(778,210,o),
(798,222,o),
(798,236,cs),
(798,511,l),
(826,517,o),
(842,519,o),
(842,534,cs),
(842,557,o),
(780,603,o),
(753,612,c),
(746,583,o),
(721,565,o),
(693,565,cs),
(172,566,l),
(172,547,o),
(178,536,o),
(202,536,cs),
(726,535,l),
(726,222,ls),
(726,210,o),
(731,210,o),
(748,210,cs)
);
},
{
closed = 1;
nodes = (
(777,385,l),
(751,419,l),
(213,419,l),
(213,400,o),
(218,385,o),
(242,385,cs)
);
},
{
closed = 1;
nodes = (
(777,243,l),
(751,277,l),
(173,277,l),
(173,258,o),
(178,243,o),
(202,243,cs)
);
}
);
width = 1000;
}
);
unicode = 24400;
},
{
glyphname = uni5F61;
lastChange = "2023-09-21 14:49:36 +0000";
layers = (
{
layerId = m01;
shapes = (
{
closed = 1;
nodes = (
(729,241,ls),
(724,246,o),
(717,249,o),
(712,244,cs),
(595,124,o),
(392,43,o),
(204,-5,cs),
(186,-9,o),
(183,-30,o),
(212,-28,cs),
(410,-14,o),
(628,69,o),
(772,170,cs),
(778,175,o),
(779,183,o),
(775,188,cs)
);
},
{
closed = 1;
nodes = (
(629,672,ls),
(624,678,o),
(616,680,o),
(612,675,cs),
(515,574,o),
(403,523,o),
(245,471,cs),
(228,465,o),
(224,444,o),
(254,447,cs),
(421,466,o),
(538,508,o),
(672,601,cs),
(678,605,o),
(679,614,o),
(674,619,cs)
);
},
{
closed = 1;
nodes = (
(669,462,ls),
(664,468,o),
(656,470,o),
(652,465,cs),
(545,354,o),
(403,293,o),
(225,241,cs),
(208,236,o),
(204,214,o),
(234,217,cs),
(421,236,o),
(578,298,o),
(712,391,cs),
(718,395,o),
(719,404,o),
(714,409,cs)
);
}
);
width = 1000;
}
);
unicode = 24417;
},
{
glyphname = uni5F73;
lastChange = "2023-09-21 14:49:36 +0000";
layers = (
{
layerId = m01;
shapes = (
{
closed = 1;
nodes = (
(444,235,o),
(579,361,o),
(696,510,cs),
(701,516,o),
(699,522,o),
(693,526,cs),
(631,567,ls),
(626,571,o),
(619,569,o),
(616,564,cs),
(526,415,o),
(385,264,o),
(222,153,cs),
(211,145,o),
(219,131,o),
(231,137,cs)
);
},
{
closed = 1;
nodes = (
(522,-64,o),
(550,-47,o),
(550,-31,cs),
(549,302,ls),
(549,306,o),
(545,312,o),
(541,313,cs),
(516,319,o),
(495,322,o),
(471,323,c),
(471,-48,ls),
(471,-57,o),
(481,-64,o),
(497,-64,cs)
);
},
{
closed = 1;
nodes = (
(457,485,o),
(526,556,o),
(597,650,cs),
(602,656,o),
(599,663,o),
(593,666,cs),
(547,694,ls),
(542,697,o),
(536,695,o),
(532,689,cs),
(472,588,o),
(380,491,o),
(276,413,cs),
(265,404,o),
(273,391,o),
(285,397,cs)
);
}
);
width = 1000;
}
);
unicode = 24435;
},
{
glyphname = uni5FC3;
lastChange = "2023-09-21 14:49:36 +0000";
layers = (
{
layerId = m01;
shapes = (
{
closed = 1;
nodes = (
(426,526,ls),
(426,530,o),
(422,535,o),
(417,537,cs),
(398,545,o),
(374,549,o),
(350,551,c),
(350,69,ls),
(350,-59,o),
(481,-60,o),
(565,-57,cs),
(680,-53,o),
(717,-42,o),
(759,-7,cs),
(769,0,o),
(771,10,o),
(767,20,cs),
(763,33,o),
(759,49,o),
(763,65,cs),
(767,96,o),
(779,150,o),
(781,172,cs),
(787,219,o),
(757,218,o),
(745,183,cs),
(707,76,o),
(670,11,o),
(555,6,cs),
(505,4,o),
(426,12,o),
(426,70,cs)
);
},
{
closed = 1;
nodes = (
(594,441,o),
(625,460,o),
(633,482,cs),
(648,526,o),
(570,619,o),
(480,680,cs),
(469,687,o),
(461,691,o),
(454,684,cs),
(445,675,o),
(449,667,o),
(457,657,cs),
(524,586,o),
(546,511,o),
(549,488,c),
(549,472,o),
(552,456,o),
(569,450,cs)
);
},
{
closed = 1;
nodes = (
(914,141,o),
(945,160,o),
(953,182,cs),
(968,226,o),
(890,319,o),
(800,380,cs),
(789,387,o),
(781,391,o),
(774,384,cs),
(765,375,o),
(769,367,o),
(777,357,cs),
(844,286,o),
(866,211,o),
(869,188,c),
(869,172,o),
(872,156,o),
(889,150,cs)
);
},
{
closed = 1;
nodes = (
(231,141,o),
(245,298,o),
(223,399,cs),
(220,411,o),
(214,418,o),
(206,417,cs),
(199,416,o),
(197,409,o),
(195,395,cs),
(185,288,o),
(164,253,o),
(122,226,cs),
(109,217,o),
(86,203,o),
(86,179,cs),
(86,160,o),
(111,138,o),
(137,139,cs)
);
}
);
width = 1000;
}
);
unicode = 24515;
},
{
glyphname = uni5FC4;
lastChange = "2023-09-21 14:49:36 +0000";
layers = (
{
background = {
shapes = (
{
closed = 1;
nodes = (
(324,523,l),
(366,487,o),
(384,467,o),
(402,441,c),
(414,423,o),
(421,408,o),
(421,398,c),
(421,376,o),
(400,344,o),
(383,344,c),
(373,344,o),
(369,352,o),
(364,382,c),
(356,425,o),
(342,466,o),
(314,516,c)
);
},
{
closed = 1;
nodes = (
(323,640,o),
(316,636,o),
(290,629,c),
(287,489,o),
(286,391,o),
(286,334,c),
(286,283,o),
(286,241,o),
(290,-35,c),
(290,-41,o),
(289,-43,o),
(286,-45,c),
(281,-48,o),
(261,-50,o),
(241,-50,c),
(225,-50,o),
(222,-48,o),
(222,-42,c),
(226,130,o),
(229,346,o),
(229,449,c),
(229,603,o),
(228,630,o),
(222,666,c),
(309,659,o),
(323,657,o),
(323,648,c)
);
},
{
closed = 1;
nodes = (
(186,519,l),
(186,486,l),
(186,426,o),
(174,376,o),
(152,342,c),
(138,321,o),
(121,308,o),
(109,308,c),
(94,308,o),
(80,333,o),
(80,358,c),
(80,369,o),
(86,376,o),
(104,390,c),
(146,420,o),
(159,449,o),
(171,519,c)
);
}
);
};
layerId = m01;
shapes = (
{
closed = 1;
nodes = (
(345,679,ls),
(345,683,o),
(341,687,o),
(337,688,cs),
(320,695,o),
(300,699,o),
(276,700,c),
(276,-53,ls),
(276,-64,o),
(282,-72,o),
(298,-72,cs),
(323,-72,o),
(347,-52,o),
(347,-33,cs)
);
},
{
closed = 1;
nodes = (
(461,328,o),
(489,359,o),
(490,380,cs),
(492,426,o),
(456,479,o),
(382,528,cs),
(367,534,o),
(356,525,o),
(369,507,cs),
(412,451,o),
(417,375,o),
(416,354,cs),
(415,342,o),
(422,330,o),
(436,329,cs)
);
},
{
closed = 1;
nodes = (
(113,239,o),
(129,258,cs),
(167,302,o),
(214,382,o),
(248,469,cs),
(251,476,o),
(249,482,o),
(241,485,cs),
(193,506,ls),
(184,510,o),
(178,504,o),
(177,496,cs),
(171,412,o),
(140,321,o),
(109,274,cs),
(94,251,o)
);
}
);
width = 1000;
}
);
unicode = 24516;
},
{
glyphname = uni6208;
lastChange = "2023-09-21 14:49:36 +0000";
layers = (
{
layerId = m01;
shapes = (
{
closed = 1;
nodes = (
(437,687,l),
(415,326,o),
(491,30,o),
(846,-52,cs),
(887,-61,o),
(914,-38,o),
(926,-17,cs),
(930,-11,o),
(929,-4,o),
(924,-1,cs),
(912,6,o),
(907,15,o),
(907,30,cs),
(907,48,o),
(928,146,o),
(943,201,cs),
(950,228,o),
(919,236,o),
(911,210,cs),
(888,133,o),
(855,22,o),
(801,36,cs),
(534,106,o),
(496,370,o),
(506,650,cs),
(506,658,o),
(503,664,o),
(495,667,cs)
);
},
{
closed = 1;
nodes = (
(728,379,ls),
(723,383,o),
(717,389,o),
(714,383,cs),
(595,144,o),
(331,47,o),
(113,-23,cs),
(98,-28,o),
(99,-47,o),
(124,-42,cs),
(358,4,o),
(636,99,o),
(776,333,cs),
(779,338,o),
(777,346,o),
(772,350,cs)
);
},
{
closed = 1;
nodes = (
(724,517,o),
(740,540,o),
(739,563,cs),
(738,597,o),
(669,633,o),
(589,654,cs),
(562,661,o),
(552,650,o),
(574,637,cs),
(621,609,o),
(667,564,o),
(671,533,cs),
(672,522,o),
(678,511,o),
(693,513,cs)
);
},
{
closed = 1;
nodes = (
(835,423,ls),
(852,425,o),
(862,429,o),
(862,438,cs),
(862,459,o),
(793,503,o),
(763,515,c),
(769,490,o),
(750,450,o),
(680,442,cs),
(149,384,l),
(149,369,o),
(163,349,o),
(179,351,cs)
);
}
);
width = 1000;
}
);
unicode = 25096;
},
{
glyphname = uni620B;
lastChange = "2023-09-21 14:49:36 +0000";
layers = (
{
layerId = m01;
shapes = (
{
closed = 1;
nodes = (
(823,343,ls),
(840,345,o),
(850,349,o),
(850,358,cs),
(850,373,o),
(794,407,o),
(753,417,c),
(759,392,o),
(740,370,o),
(700,365,cs),
(136,288,l),
(136,273,o),
(147,254,o),
(163,256,cs)
);
},
{
closed = 1;
nodes = (
(437,687,l),
(415,326,o),
(491,30,o),
(846,-52,cs),
(887,-61,o),
(914,-38,o),
(926,-17,cs),
(930,-11,o),
(929,-4,o),
(924,-1,cs),
(912,6,o),
(907,15,o),
(907,30,cs),
(907,48,o),
(928,146,o),
(943,201,cs),
(950,228,o),
(919,236,o),
(911,210,cs),
(888,133,o),
(855,22,o),
(801,36,cs),
(534,106,o),
(496,370,o),
(506,650,cs),
(506,658,o),
(503,664,o),
(495,667,cs)
);
},
{
closed = 1;
nodes = (
(783,308,ls),
(778,312,o),
(774,312,o),
(769,307,cs),
(584,97,o),
(381,47,o),
(163,-23,cs),
(148,-28,o),
(149,-47,o),
(174,-42,cs),
(405,0,o),
(625,59,o),
(821,260,cs),
(825,263,o),
(828,272,o),
(822,277,cs)
);
},
{
closed = 1;
nodes = (
(684,545,o),
(700,568,o),
(699,591,cs),
(698,625,o),
(649,657,o),
(575,671,cs),
(548,676,o),
(543,667,o),
(560,654,cs),
(594,629,o),
(625,592,o),
(631,561,cs),
(633,550,o),
(638,539,o),
(653,541,cs)
);
},
{
closed = 1;
nodes = (
(733,455,ls),
(750,457,o),
(760,461,o),
(760,470,cs),
(760,485,o),
(703,515,o),
(673,527,c),
(679,502,o),
(658,483,o),
(618,479,cs),
(195,436,l),
(195,421,o),
(201,406,o),
(217,407,cs)
);
}
);
width = 1000;
}
);
unicode = 25099;
},
{
glyphname = uni6211;
lastChange = "2023-09-21 14:49:36 +0000";
layers = (
{
layerId = m01;
shapes = (
{
closed = 1;
nodes = (
(444,658,ls),
(439,666,o),
(426,665,o),
(417,659,cs),
(347,619,o),
(234,585,o),
(143,565,cs),
(107,557,o),
(104,536,o),
(153,537,cs),
(267,540,o),
(373,560,o),
(471,585,cs),
(483,588,o),
(479,596,o),
(474,605,cs)
);
},
{
closed = 1;
nodes = (
(898,386,ls),
(918,386,o),
(928,393,o),
(928,405,cs),
(928,426,o),
(860,458,o),
(827,471,c),
(819,444,o),
(803,420,o),
(779,420,cs),
(63,420,l),
(63,402,o),
(66,386,o),
(95,386,cs)
);
},
{
closed = 1;
nodes = (
(299,592,l),
(300,78,ls),
(300,42,o),
(282,23,o),
(221,23,cs),
(200,23,o),
(161,24,o),
(113,24,cs),
(102,24,o),
(88,24,o),
(88,12,cs),
(88,3,o),
(97,-3,o),
(109,-4,cs),
(225,-14,o),
(206,-55,o),
(246,-55,cs),
(331,-55,o),
(367,-2,o),
(367,42,cs),
(367,600,l)
);
},
{
closed = 1;
nodes = (
(516,285,o),
(513,306,o),
(500,302,cs),
(377,259,o),
(224,223,o),
(72,209,c),
(90,140,ls),
(91,136,o),
(95,134,o),
(100,135,cs),
(230,165,o),
(392,227,o),
(507,281,cs)
);
},
{
closed = 1;
nodes = (
(540,677,l),
(524,316,o),
(547,21,o),
(812,-62,cs),
(844,-72,o),
(876,-55,o),
(885,-34,cs),
(888,-28,o),
(885,-18,o),
(881,-15,cs),
(873,-8,o),
(869,5,o),
(869,20,cs),
(869,38,o),
(884,136,o),
(895,191,cs),
(900,218,o),
(868,226,o),
(862,200,cs),
(845,123,o),
(820,9,o),
(783,26,cs),
(610,106,o),
(596,347,o),
(604,647,cs),
(604,655,o),
(602,663,o),
(596,664,cs)
);
},
{
closed = 1;
nodes = (
(753,338,ls),
(746,343,o),
(741,339,o),
(736,330,cs),
(666,218,o),
(569,128,o),
(425,53,cs),
(396,38,o),
(406,17,o),
(444,33,cs),
(609,100,o),
(700,162,o),
(813,284,cs),
(819,291,o),
(813,298,o),
(806,303,cs)
);
},
{
closed = 1;
nodes = (
(795,480,o),
(810,525,o),
(806,545,cs),
(800,578,o),
(753,619,o),
(667,640,cs),
(640,647,o),
(632,638,o),
(649,621,cs),
(719,577,o),
(739,508,o),
(744,491,cs),
(746,480,o),
(752,469,o),
(769,474,cs)
);
}
);
width = 1000;
}
);
unicode = 25105;
},
{
glyphname = uni6237;
lastChange = "2023-09-21 14:49:36 +0000";
layers = (
{
layerId = m01;
shapes = (
{
closed = 1;
nodes = (
(548,537,o),
(573,563,o),
(572,586,cs),
(571,620,o),
(527,650,o),
(427,683,cs),
(401,693,o),
(390,680,o),
(412,666,cs),
(469,628,o),
(491,575,o),
(495,554,cs),
(497,543,o),
(502,533,o),
(517,534,cs)
);
},
{
closed = 1;
nodes = (
(777,289,l),
(777,321,l),
(239,321,l),
(239,289,l)
);
},
{
closed = 1;
nodes = (
(239,478,l),
(746,478,l),
(746,283,ls),
(746,271,o),
(750,265,o),
(768,265,cs),
(802,265,o),
(820,287,o),
(820,301,cs),
(821,463,l),
(843,467,o),
(853,474,o),
(853,486,cs),
(853,504,o),
(804,535,o),
(756,548,c),
(752,525,o),
(744,510,o),
(721,510,cs),
(239,510,l)
);
},
{
closed = 1;
nodes = (
(250,519,o),
(228,526,o),
(205,531,c),
(208,245,o),
(196,110,o),
(59,-29,cs),
(39,-49,o),
(55,-68,o),
(81,-49,cs),
(258,82,o),
(269,212,o),
(269,508,c)
);
}
);
width = 1000;
}
);
unicode = 25143;
},
{
glyphname = uni6241;
lastChange = "2023-09-21 14:49:36 +0000";
layers = (
{
layerId = m01;
shapes = (
{
closed = 1;
nodes = (
(69,-65,o),
(80,-60,o),
(94,-50,cs),
(234,52,o),
(280,248,o),
(290,400,cs),
(294,455,o),
(295,506,o),
(293,566,cs),
(293,572,o),
(291,580,o),
(283,584,cs),
(264,594,o),
(243,600,o),
(220,603,c),
(225,538,o),
(225,493,o),
(223,430,cs),
(218,260,o),
(175,91,o),
(75,-28,cs),
(67,-38,o),
(58,-48,o),
(62,-54,cs)
);
},
{
closed = 1;
nodes = (
(801,402,l),
(801,434,l),
(281,434,l),
(281,402,l)
);
},
{
closed = 1;
nodes = (
(793,544,l),
(793,386,ls),
(793,374,o),
(795,367,o),
(813,367,cs),
(847,367,o),
(861,390,o),
(861,404,cs),
(862,529,l),
(884,533,o),
(894,540,o),
(894,552,cs),
(894,570,o),
(851,601,o),
(803,614,c),
(799,591,o),
(787,576,o),
(764,576,cs),
(265,576,l),
(265,544,l)
);
},
{
closed = 1;
nodes = (
(581,555,o),
(607,585,o),
(607,607,cs),
(607,639,o),
(543,683,o),
(490,700,cs),
(468,708,o),
(457,690,o),
(473,675,cs),
(511,641,o),
(527,602,o),
(532,581,cs),
(534,570,o),
(539,555,o),
(559,555,cs)
);
},
{
closed = 1;
nodes = (
(349,-68,o),
(361,-46,o),
(361,-32,cs),
(361,303,l),
(349,320,o),
(329,326,o),
(297,333,c),
(297,-46,ls),
(297,-58,o),
(302,-68,o),
(319,-68,cs)
);
},
{
closed = 1;
nodes = (
(848,-64,o),
(887,-27,o),
(887,28,cs),
(887,250,l),
(911,254,o),
(925,260,o),
(925,275,cs),
(925,294,o),
(871,321,o),
(841,332,c),
(838,315,o),
(819,302,o),
(798,302,cs),
(335,302,l),
(335,271,l),
(823,271,l),
(823,45,ls),
(823,16,o),
(815,9,o),
(775,9,cs),
(751,9,o),
(732,10,o),
(722,11,cs),
(691,13,o),
(691,-13,o),
(721,-16,cs),
(786,-23,o),
(769,-64,o),
(796,-64,cs)
);
},
{
closed = 1;
nodes = (
(848,152,l),
(335,152,l),
(335,121,l),
(848,121,l)
);
},
{
closed = 1;
nodes = (
(538,274,ls),
(538,279,o),
(537,283,o),
(533,284,cs),
(519,290,o),
(499,293,o),
(478,294,c),
(478,-16,ls),
(478,-26,o),
(484,-34,o),
(498,-34,cs),
(519,-34,o),
(538,-15,o),
(538,1,cs)
);
},
{
closed = 1;
nodes = (
(706,268,ls),
(706,273,o),
(705,277,o),
(701,278,cs),
(687,284,o),
(667,287,o),
(646,288,c),
(646,-16,ls),
(646,-26,o),
(652,-34,o),
(666,-34,cs),
(687,-34,o),
(706,-15,o),
(706,1,cs)
);
}
);
width = 1000;
}
);
unicode = 25153;
},
{
glyphname = uni624B;
lastChange = "2023-09-21 14:49:36 +0000";
layers = (
{
layerId = m01;
shapes = (
{
closed = 1;
nodes = (
(741,659,ls),
(738,665,o),
(735,670,o),
(728,667,cs),
(580,605,o),
(413,570,o),
(207,552,cs),
(190,551,o),
(183,530,o),
(210,530,cs),
(417,533,o),
(596,552,o),
(759,592,cs),
(765,593,o),
(770,601,o),
(767,607,cs)
);
},
{
closed = 1;
nodes = (
(798,385,ls),
(815,385,o),
(825,391,o),
(825,400,cs),
(825,415,o),
(768,447,o),
(738,459,c),
(744,434,o),
(733,414,o),
(703,414,cs),
(168,414,l),
(168,399,o),
(173,385,o),
(189,385,cs)
);
},
{
closed = 1;
nodes = (
(885,211,ls),
(902,211,o),
(912,217,o),
(912,226,cs),
(912,241,o),
(856,282,o),
(806,294,c),
(813,259,o),
(798,240,o),
(758,240,cs),
(84,240,l),
(84,225,o),
(89,211,o),
(105,211,cs)
);
},
{
closed = 1;
nodes = (
(479,578,l),
(479,56,ls),
(479,27,o),
(466,13,o),
(405,13,cs),
(381,13,o),
(305,18,o),
(275,20,cs),
(244,22,o),
(235,-4,o),
(273,-10,cs),
(305,-15,o),
(376,-24,o),
(390,-29,cs),
(430,-45,o),
(413,-59,o),
(454,-59,cs),
(504,-59,o),
(547,-12,o),
(547,36,cs),
(547,578,l)
);
}
);
width = 1000;
}
);
unicode = 25163;
},
{
glyphname = uni624C;
lastChange = "2023-09-21 14:49:36 +0000";
layers = (
{
background = {
shapes = (
{
closed = 1;
nodes = (
(377,491,l),
(397,512,o),
(403,519,o),
(422,539,c),
(451,515,o),
(461,508,o),
(491,485,c),
(494,481,o),
(495,479,o),
(495,478,c),
(495,475,o),
(492,473,o),
(485,473,c),
(322,473,l),
(322,311,l),
(381,325,o),
(425,336,o),
(497,357,c),
(501,346,l),
(427,313,o),
(381,294,o),
(322,274,c),
(322,212,l),
(322,163,o),
(322,100,o),
(323,21,c),
(323,-4,o),
(317,-15,o),
(298,-26,c),
(284,-34,o),
(267,-39,o),
(232,-43,c),
(227,-15,o),
(219,-6,o),
(186,2,c),
(168,7,o),
(140,11,o),
(102,15,c),
(103,28,l),
(201,22,o),
(201,22,o),
(249,21,c),
(258,21,o),
(260,22,o),
(260,32,c),
(260,254,l),
(233,246,o),
(216,241,o),
(143,221,c),
(141,193,o),
(138,186,o),
(130,186,c),
(120,186,o),
(112,204,o),
(92,271,c),
(132,275,o),
(163,280,o),
(260,298,c),
(260,473,l),
(181,473,l),
(157,473,o),
(138,471,o),
(108,468,c),
(103,499,l),
(132,493,o),
(151,491,o),
(181,491,c),
(260,491,l),
(260,568,l),
(260,618,o),
(259,632,o),
(255,661,c),
(342,652,o),
(358,649,o),
(358,639,c),
(358,632,o),
(349,628,o),
(322,620,c),
(322,491,l)
);
}
);
};
layerId = m01;
shapes = (
{
closed = 1;
nodes = (
(493,466,ls),
(510,466,o),
(520,472,o),
(520,481,cs),
(520,496,o),
(474,523,o),
(444,535,c),
(450,510,o),
(439,495,o),
(409,495,cs),
(92,495,l),
(92,480,o),
(97,466,o),
(113,466,cs)
);
},
{
closed = 1;
nodes = (
(348,679,ls),
(348,683,o),
(344,687,o),
(340,688,cs),
(323,695,o),
(304,699,o),
(280,700,c),
(280,66,ls),
(280,37,o),
(267,23,o),
(206,23,cs),
(182,23,o),
(167,27,o),
(126,27,cs),
(95,29,o),
(85,1,o),
(124,-3,cs),
(250,-17,o),
(200,-49,o),
(255,-49,cs),
(305,-49,o),
(348,-2,o),
(348,46,cs)
);
},
{
closed = 1;
nodes = (
(523,343,o),
(519,364,o),
(506,360,cs),
(383,319,o),
(204,278,o),
(72,264,c),
(90,198,ls),
(91,194,o),
(95,192,o),
(100,193,cs),
(210,223,o),
(398,287,o),
(513,339,cs)
);
}
);
width = 1000;
}
);
unicode = 25164;
},
{
glyphname = uni6267.001;
lastChange = "2023-09-21 14:49:36 +0000";
layers = (
{
layerId = m01;
shapes = (
{
closed = 1;
nodes = (
(300,668,ls),
(300,673,o),
(299,677,o),
(295,678,cs),
(278,685,o),
(254,688,o),
(230,689,c),
(230,78,ls),
(230,43,o),
(211,24,o),
(161,24,cs),
(126,24,o),
(99,25,o),
(73,25,cs),
(44,25,o),
(45,4,o),
(69,2,cs),
(172,-9,o),
(146,-48,o),
(185,-48,cs),
(270,-48,o),
(300,4,o),
(300,48,cs)
);
},
{
closed = 1;
nodes = (
(400,476,ls),
(417,476,o),
(427,482,o),
(427,491,cs),
(427,506,o),
(381,533,o),
(351,545,c),
(357,520,o),
(346,505,o),
(316,505,cs),
(73,505,l),
(73,490,o),
(78,476,o),
(94,476,cs)
);
},
{
closed = 1;
nodes = (
(711,500,l),
(711,90,ls),
(711,1,o),
(719,-37,o),
(811,-37,cs),
(853,-37,o),
(902,-33,o),
(938,-22,cs),
(947,-19,o),
(948,3,o),
(939,10,cs),
(929,17,o),
(924,33,o),
(924,47,cs),
(924,69,o),
(925,129,o),
(928,171,cs),
(930,201,o),
(894,204,o),
(892,174,cs),
(886,71,o),
(883,31,o),
(846,22,cs),
(839,20,o),
(816,20,o),
(799,24,cs),
(782,28,o),
(775,38,o),
(775,91,cs),
(775,500,l)
);
},
{
closed = 1;
nodes = (
(737,460,l),
(769,467,o),
(796,472,o),
(796,489,cs),
(796,512,o),
(738,537,o),
(711,546,c),
(706,531,o),
(696,520,o),
(682,520,cs),
(449,520,l),
(449,501,o),
(455,490,o),
(479,490,cs),
(716,490,l)
);
},
{
closed = 1;
nodes = (
(413,316,o),
(410,336,o),
(397,333,cs),
(284,307,o),
(182,283,o),
(50,269,c),
(68,200,ls),
(69,196,o),
(73,194,o),
(78,195,cs),
(188,225,o),
(289,258,o),
(404,312,cs)
);
},
{
closed = 1;
nodes = (
(315,-67,o),
(341,-50,cs),
(576,103,o),
(604,275,o),
(613,653,cs),
(613,662,o),
(612,673,o),
(601,678,cs),
(583,686,o),
(568,689,o),
(547,690,c),
(547,293,o),
(496,125,o),
(320,-27,cs),
(289,-54,o)
);
},
{
closed = 1;
nodes = (
(513,278,o),
(559,242,o),
(595,171,cs),
(603,156,o),
(603,146,o),
(620,146,cs),
(650,146,o),
(665,175,o),
(666,203,cs),
(668,252,o),
(559,311,o),
(457,346,cs),
(443,351,o),
(436,354,o),
(431,345,cs),
(426,337,o),
(429,330,o),
(442,323,cs)
);
}
);
width = 1000;
}
);
},
{
glyphname = uni652F;
lastChange = "2023-09-21 14:49:36 +0000";
layers = (
{
layerId = m01;
shapes = (
{
closed = 1;
nodes = (
(534,669,ls),
(534,673,o),
(530,677,o),
(526,678,cs),
(509,685,o),
(489,689,o),
(465,690,c),
(465,325,l),
(536,325,l)
);
},
{
closed = 1;
nodes = (
(898,478,ls),
(922,478,o),
(931,484,o),
(931,498,cs),
(931,519,o),
(847,562,o),
(811,575,c),
(803,534,o),
(784,512,o),
(752,512,cs),
(103,512,l),
(103,493,o),
(108,478,o),
(132,478,cs)
);
},
{
closed = 1;
nodes = (
(390,-24,o),
(629,98,o),
(724,285,c),
(777,290,o),
(793,302,o),
(793,318,cs),
(793,338,o),
(733,376,o),
(683,390,c),
(681,369,o),
(660,341,o),
(627,341,cs),
(204,341,l),
(205,322,o),
(220,308,o),
(237,308,cs),
(644,308,l),
(562,134,o),
(357,50,o),
(100,-24,cs),
(68,-34,o),
(84,-58,o),
(109,-55,cs)
);
},
{
closed = 1;
nodes = (
(282,319,l),
(388,124,o),
(612,-24,o),
(744,-53,cs),
(751,-55,o),
(758,-56,o),
(767,-56,cs),
(798,-55,o),
(874,-45,o),
(918,-42,cs),
(949,-39,o),
(949,-21,o),
(921,-15,cs),
(718,20,o),
(462,145,o),
(336,320,c)
);
}
);
width = 1000;
}
);
unicode = 25903;
},
{
glyphname = uni6535;
lastChange = "2023-09-21 14:49:36 +0000";
layers = (
{
layerId = m01;
shapes = (
{
closed = 1;
nodes = (
(347,390,o),
(421,518,o),
(458,656,cs),
(460,660,o),
(458,669,o),
(454,670,cs),
(397,687,ls),
(393,688,o),
(390,688,o),
(389,684,cs),
(367,563,o),
(302,416,o),
(237,325,cs),
(231,316,o),
(243,307,o),
(250,312,cs)
);
},
{
closed = 1;
nodes = (
(668,479,ls),
(685,479,o),
(695,485,o),
(695,494,cs),
(695,509,o),
(628,552,o),
(598,564,c),
(604,539,o),
(584,508,o),
(554,508,cs),
(342,508,l),
(342,493,o),
(347,479,o),
(363,479,cs)
);
},
{
closed = 1;
nodes = (
(528,492,l),
(514,246,o),
(407,84,o),
(229,-30,cs),
(204,-46,o),
(217,-68,o),
(241,-57,cs),
(468,40,o),
(573,227,o),
(592,492,c)
);
},
{
closed = 1;
nodes = (
(342,468,l),
(388,222,o),
(492,42,o),
(598,-47,cs),
(601,-49,o),
(607,-51,o),
(614,-49,cs),
(645,-41,o),
(700,-36,o),
(720,-34,cs),
(737,-32,o),
(739,-15,o),
(718,-7,cs),
(563,53,o),
(417,261,o),
(373,476,c)
);
}
);
width = 1000;
}
);
unicode = 25909;
},
{
glyphname = uni6556;
lastChange = "2023-09-21 14:49:36 +0000";
layers = (
{
layerId = m01;
shapes = (
{
closed = 1;
nodes = (
(515,560,ls),
(532,560,o),
(542,566,o),
(542,575,cs),
(542,590,o),
(487,615,o),
(457,627,c),
(463,602,o),
(451,589,o),
(421,589,cs),
(111,589,l),
(111,574,o),
(116,560,o),
(132,560,cs)
);
},
{
closed = 1;
nodes = (
(475,465,ls),
(492,465,o),
(502,471,o),
(502,480,cs),
(502,495,o),
(450,521,o),
(420,533,c),
(426,508,o),
(411,494,o),
(381,494,cs),
(120,494,l),
(120,479,o),
(125,465,o),
(141,465,cs)
);
},
{
closed = 1;
nodes = (
(345,381,l),
(344,667,ls),
(344,671,o),
(340,675,o),
(336,676,cs),
(319,683,o),
(299,687,o),
(275,688,c),
(275,381,l)
);
},
{
closed = 1;
nodes = (
(513,369,ls),
(530,369,o),
(540,375,o),
(540,384,cs),
(540,399,o),
(484,423,o),
(454,435,c),
(460,410,o),
(448,398,o),
(418,398,cs),
(71,398,l),
(71,383,o),
(76,369,o),
(92,369,cs)
);
},
{
closed = 1;
nodes = (
(326,275,o),
(343,307,o),
(344,323,cs),
(345,347,o),
(321,363,o),
(274,376,cs),
(253,382,o),
(249,380,o),
(260,366,cs),
(284,336,o),
(289,306,o),
(290,291,cs),
(292,283,o),
(293,276,o),
(305,276,cs)
);
},
{
closed = 1;
nodes = (
(534,269,ls),
(551,269,o),
(561,275,o),
(561,284,cs),
(561,299,o),
(506,324,o),
(476,336,c),
(482,311,o),
(470,298,o),
(440,298,cs),
(59,298,l),
(59,283,o),
(64,269,o),
(80,269,cs)
);
},
{
closed = 1;
nodes = (
(223,274,l),
(205,138,o),
(161,56,o),
(50,-26,cs),
(27,-43,o),
(44,-63,o),
(69,-50,cs),
(201,20,o),
(268,128,o),
(286,268,c)
);
},
{
closed = 1;
nodes = (
(412,-56,o),
(442,-5,o),
(448,39,cs),
(464,156,l),
(485,158,o),
(496,165,o),
(496,175,cs),
(496,192,o),
(451,218,o),
(415,231,c),
(407,214,o),
(399,199,o),
(380,199,cs),
(249,200,l),
(250,189,o),
(253,168,o),
(273,168,cs),
(396,167,l),
(381,77,ls),
(375,41,o),
(363,22,o),
(302,22,cs),
(281,22,o),
(258,23,o),
(245,23,cs),
(215,23,o),
(219,-5,o),
(241,-5,cs),
(316,-5,o),
(287,-56,o),
(327,-56,cs)
);
},
{
closed = 1;
nodes = (
(613,412,o),
(661,518,o),
(698,656,cs),
(700,660,o),
(698,669,o),
(694,670,cs),
(637,687,ls),
(633,688,o),
(630,688,o),
(629,684,cs),
(607,563,o),
(565,428,o),
(504,347,cs),
(497,338,o),
(509,329,o),
(516,334,cs)
);
},
{
closed = 1;
nodes = (
(908,479,ls),
(925,479,o),
(935,485,o),
(935,494,cs),
(935,509,o),
(873,543,o),
(843,555,c),
(849,530,o),
(834,508,o),
(804,508,cs),
(582,508,l),
(582,493,o),
(587,479,o),
(603,479,cs)
);
},
{
closed = 1;
nodes = (
(768,492,l),
(754,246,o),
(666,91,o),
(488,-23,cs),
(463,-39,o),
(474,-59,o),
(498,-48,cs),
(725,49,o),
(813,227,o),
(832,492,c)
);
},
{
closed = 1;
nodes = (
(582,468,l),
(628,222,o),
(733,12,o),
(834,-47,cs),
(837,-49,o),
(843,-50,o),
(850,-49,cs),
(881,-45,o),
(922,-31,o),
(941,-22,cs),
(958,-14,o),
(960,-3,o),
(939,5,cs),
(784,65,o),
(657,261,o),
(613,476,c)
);
}
);
width = 1000;
}
);
unicode = 25942;
},
{
glyphname = uni6587;
lastChange = "2023-09-21 14:49:36 +0000";
layers = (
{
layerId = m01;
shapes = (
{
closed = 1;
nodes = (
(871,462,ls),
(894,462,o),
(910,468,o),
(910,482,cs),
(910,505,o),
(842,542,o),
(779,558,c),
(790,518,o),
(774,492,o),
(729,492,cs),
(93,492,l),
(92,478,o),
(96,462,o),
(113,462,cs)
);
},
{
closed = 1;
nodes = (
(537,518,o),
(562,544,o),
(561,567,cs),
(560,601,o),
(507,650,o),
(407,683,cs),
(381,693,o),
(372,683,o),
(392,666,cs),
(460,608,o),
(480,556,o),
(484,535,cs),
(486,524,o),
(491,514,o),
(506,515,cs)
);
},
{
closed = 1;
nodes = (
(608,483,l),
(547,225,o),
(355,75,o),
(104,-29,cs),
(64,-46,o),
(77,-69,o),
(110,-59,cs),
(395,26,o),
(608,197,o),
(697,483,c)
);
},
{
closed = 1;
nodes = (
(296,475,l),
(380,229,o),
(570,12,o),
(755,-47,cs),
(761,-49,o),
(767,-48,o),
(773,-47,cs),
(811,-40,o),
(867,-28,o),
(902,-19,cs),
(933,-11,o),
(937,2,o),
(899,10,cs),
(615,70,o),
(425,258,o),
(344,473,c)
);
}
);
width = 1000;
}
);
unicode = 25991;
},
{
glyphname = uni65A4;
lastChange = "2023-09-21 14:49:36 +0000";
layers = (
{
layerId = m01;
shapes = (
{
closed = 1;
nodes = (
(811,669,ls),
(808,675,o),
(805,680,o),
(798,677,cs),
(650,625,o),
(473,588,o),
(277,572,cs),
(260,571,o),
(253,542,o),
(280,542,cs),
(477,543,o),
(666,569,o),
(829,607,cs),
(835,608,o),
(840,616,o),
(837,622,cs)
);
},
{
closed = 1;
nodes = (
(302,599,o),
(292,604,o),
(286,606,cs),
(269,613,o),
(247,618,o),
(230,622,c),
(240,270,o),
(211,99,o),
(62,-43,cs),
(42,-63,o),
(58,-82,o),
(85,-63,cs),
(273,70,o),
(309,230,o),
(302,589,c)
);
},
{
closed = 1;
nodes = (
(898,342,ls),
(918,342,o),
(928,349,o),
(928,361,cs),
(928,380,o),
(859,418,o),
(815,432,c),
(817,388,o),
(781,376,o),
(757,376,cs),
(252,376,l),
(252,358,o),
(255,342,o),
(284,342,cs)
);
},
{
closed = 1;
nodes = (
(636,353,ls),
(636,356,o),
(633,360,o),
(628,361,cs),
(614,367,o),
(590,372,o),
(567,373,c),
(567,-43,ls),
(567,-52,o),
(576,-59,o),
(591,-59,cs),
(616,-59,o),
(638,-42,o),
(638,-24,cs)
);
}
);
width = 1000;
}
);
unicode = 26020;
},
{
glyphname = uni65B9;
lastChange = "2023-09-21 14:49:36 +0000";
layers = (
{
layerId = m01;
shapes = (
{
closed = 1;
nodes = (
(871,471,ls),
(894,471,o),
(910,477,o),
(910,491,cs),
(910,514,o),
(842,551,o),
(779,567,c),
(790,527,o),
(774,501,o),
(729,501,cs),
(93,501,l),
(92,487,o),
(96,471,o),
(113,471,cs)
);
},
{
closed = 1;
nodes = (
(537,528,o),
(562,554,o),
(561,577,cs),
(560,611,o),
(506,657,o),
(407,686,cs),
(380,694,o),
(371,681,o),
(392,666,cs),
(449,624,o),
(480,566,o),
(484,545,cs),
(486,534,o),
(491,524,o),
(506,525,cs)
);
},
{
closed = 1;
nodes = (
(372,477,l),
(358,221,o),
(272,92,o),
(87,-27,cs),
(61,-44,o),
(71,-66,o),
(96,-55,cs),
(333,46,o),
(423,201,o),
(443,477,c)
);
},
{
closed = 1;
nodes = (
(586,-77,o),
(611,-70,o),
(653,-20,cs),
(714,52,o),
(736,142,o),
(742,284,c),
(763,289,o),
(778,296,o),
(778,309,cs),
(778,332,o),
(720,357,o),
(693,366,c),
(688,351,o),
(678,340,o),
(664,340,cs),
(377,340,l),
(377,307,l),
(670,307,l),
(664,152,o),
(641,72,o),
(584,17,cs),
(570,3,o),
(560,2,o),
(551,3,cs),
(494,7,o),
(464,13,o),
(396,21,cs),
(363,25,o),
(359,-2,o),
(391,-7,cs),
(461,-17,o),
(507,-32,o),
(524,-44,cs),
(544,-58,o),
(547,-74,o),
(562,-75,cs)
);
}
);
width = 1000;
}
);
unicode = 26041;
},
{
glyphname = uni65E5.001;
lastChange = "2023-09-21 14:49:36 +0000";
layers = (
{
layerId = m01;
shapes = (
{
closed = 1;
nodes = (
(657,-18,ls),
(657,-29,o),
(659,-36,o),
(677,-36,cs),
(711,-36,o),
(727,-13,o),
(727,1,cs),
(727,572,l),
(750,575,o),
(765,582,o),
(765,594,cs),
(765,610,o),
(724,638,o),
(688,653,c),
(676,631,o),
(654,618,o),
(642,618,cs),
(315,618,l),
(310,586,l),
(657,586,l)
);
},
{
closed = 1;
nodes = (
(311,315,l),
(664,315,l),
(664,346,l),
(311,346,l)
);
},
{
closed = 1;
nodes = (
(317,599,l),
(327,614,l),
(304,632,o),
(274,649,o),
(247,660,c),
(247,-21,l),
(247,-32,o),
(247,-40,o),
(265,-40,cs),
(296,-40,o),
(317,-21,o),
(317,-6,cs)
);
},
{
closed = 1;
nodes = (
(309,27,l),
(665,27,l),
(665,59,l),
(309,59,l)
);
}
);
width = 1000;
}
);
},
{
glyphname = uni65E6;
lastChange = "2023-09-21 14:49:36 +0000";
layers = (
{
layerId = m01;
shapes = (
{
closed = 1;
nodes = (
(719,162,ls),
(719,151,o),
(721,144,o),
(739,144,cs),
(773,144,o),
(789,167,o),
(789,181,cs),
(789,532,l),
(812,535,o),
(827,542,o),
(827,554,cs),
(827,570,o),
(786,600,o),
(750,615,c),
(738,593,o),
(716,578,o),
(694,578,cs),
(247,578,l),
(242,546,l),
(719,546,l)
);
},
{
closed = 1;
nodes = (
(243,365,l),
(726,365,l),
(726,396,l),
(243,396,l)
);
},
{
closed = 1;
nodes = (
(249,559,l),
(259,574,l),
(236,592,o),
(206,609,o),
(179,620,c),
(179,159,l),
(179,148,o),
(179,140,o),
(197,140,cs),
(228,140,o),
(249,159,o),
(249,174,cs)
);
},
{
closed = 1;
nodes = (
(241,187,l),
(727,187,l),
(727,219,l),
(241,219,l)
);
},
{
closed = 1;
nodes = (
(898,-19,ls),
(922,-19,o),
(931,-13,o),
(931,1,cs),
(931,22,o),
(847,65,o),
(811,78,c),
(803,37,o),
(784,15,o),
(752,15,cs),
(73,15,l),
(73,-4,o),
(78,-19,o),
(102,-19,cs)
);
}
);
width = 1000;
}
);
unicode = 26086;
},
{
glyphname = uni6614;
lastChange = "2023-09-21 14:49:36 +0000";
layers = (
{
layerId = m01;
shapes = (
{
closed = 1;
nodes = (
(880,381,ls),
(904,381,o),
(913,387,o),
(913,401,cs),
(913,422,o),
(829,465,o),
(793,478,c),
(785,437,o),
(766,415,o),
(734,415,cs),
(93,415,l),
(93,396,o),
(98,381,o),
(122,381,cs)
);
},
{
closed = 1;
nodes = (
(778,551,ls),
(802,551,o),
(811,557,o),
(811,571,cs),
(811,592,o),
(747,631,o),
(711,644,c),
(703,603,o),
(684,585,o),
(652,585,cs),
(163,585,l),
(163,566,o),
(168,551,o),
(192,551,cs)
);
},
{
closed = 1;
nodes = (
(641,-45,ls),
(641,-56,o),
(643,-63,o),
(661,-63,cs),
(695,-63,o),
(711,-40,o),
(711,-26,cs),
(711,252,l),
(734,255,o),
(749,262,o),
(749,274,cs),
(749,290,o),
(708,320,o),
(672,335,c),
(660,313,o),
(638,298,o),
(616,298,cs),
(309,298,l),
(304,266,l),
(641,266,l)
);
},
{
closed = 1;
nodes = (
(305,135,l),
(648,135,l),
(648,166,l),
(305,166,l)
);
},
{
closed = 1;
nodes = (
(311,279,l),
(321,294,l),
(298,312,o),
(268,326,o),
(241,337,c),
(241,-41,l),
(241,-52,o),
(241,-60,o),
(259,-60,cs),
(290,-60,o),
(311,-41,o),
(311,-26,cs)
);
},
{
closed = 1;
nodes = (
(303,-13,l),
(649,-13,l),
(649,19,l),
(303,19,l)
);
},
{
closed = 1;
nodes = (
(395,666,ls),
(395,670,o),
(391,674,o),
(388,675,cs),
(371,682,o),
(351,685,o),
(327,686,c),
(327,395,l),
(397,395,l)
);
},
{
closed = 1;
nodes = (
(624,666,ls),
(624,670,o),
(620,674,o),
(616,675,cs),
(600,682,o),
(580,685,o),
(556,686,c),
(556,395,l),
(626,395,l)
);
}
);
width = 1000;
}
);
unicode = 26132;
},
{
glyphname = uni66F4;
lastChange = "2023-09-21 14:49:36 +0000";
layers = (
{
layerId = m01;
shapes = (
{
closed = 1;
nodes = (
(880,581,ls),
(904,581,o),
(913,587,o),
(913,601,cs),
(913,622,o),
(829,665,o),
(793,678,c),
(785,637,o),
(766,615,o),
(734,615,cs),
(93,615,l),
(93,596,o),
(98,581,o),
(122,581,cs)
);
},
{
closed = 1;
nodes = (
(720,186,ls),
(720,175,o),
(722,168,o),
(740,168,cs),
(774,168,o),
(790,191,o),
(790,205,cs),
(790,452,l),
(813,455,o),
(828,462,o),
(828,474,cs),
(828,490,o),
(787,520,o),
(751,535,c),
(739,513,o),
(717,498,o),
(695,498,cs),
(269,498,l),
(264,466,l),
(720,466,l)
);
},
{
closed = 1;
nodes = (
(265,338,l),
(727,338,l),
(727,369,l),
(265,369,l)
);
},
{
closed = 1;
nodes = (
(271,479,l),
(281,494,l),
(258,512,o),
(228,526,o),
(201,537,c),
(201,199,l),
(201,188,o),
(201,180,o),
(219,180,cs),
(250,180,o),
(271,199,o),
(271,214,cs)
);
},
{
closed = 1;
nodes = (
(263,220,l),
(728,220,l),
(728,252,l),
(263,252,l)
);
},
{
closed = 1;
nodes = (
(100,-66,o),
(115,-62,o),
(128,-59,cs),
(334,-16,o),
(516,77,o),
(533,301,cs),
(537,354,o),
(541,506,o),
(539,564,cs),
(539,573,o),
(538,584,o),
(527,589,cs),
(503,599,o),
(492,601,o),
(466,602,c),
(471,539,o),
(470,398,o),
(467,337,cs),
(455,92,o),
(281,31,o),
(107,-32,cs),
(97,-36,o),
(87,-49,o),
(94,-58,cs)
);
},
{
closed = 1;
nodes = (
(262,181,o),
(263,166,o),
(277,154,cs),
(398,50,o),
(533,-19,o),
(741,-61,c),
(778,-56,o),
(837,-39,o),
(878,-34,cs),
(891,-33,o),
(902,-31,o),
(902,-22,cs),
(902,-14,o),
(893,-11,o),
(881,-10,cs),
(600,20,o),
(488,68,o),
(291,167,cs)
);
}
);
width = 1000;
}
);
unicode = 26356;
},
{
glyphname = uni66F7;
lastChange = "2023-09-21 14:49:36 +0000";
layers = (
{
layerId = m01;
shapes = (
{
closed = 1;
nodes = (
(699,381,ls),
(699,370,o),
(701,363,o),
(719,363,cs),
(753,363,o),
(769,386,o),
(769,400,cs),
(769,592,l),
(792,595,o),
(807,602,o),
(807,614,cs),
(807,630,o),
(766,660,o),
(730,675,c),
(718,653,o),
(696,638,o),
(674,638,cs),
(317,638,l),
(312,606,l),
(699,606,l)
);
},
{
closed = 1;
nodes = (
(313,505,l),
(706,505,l),
(706,536,l),
(313,536,l)
);
},
{
closed = 1;
nodes = (
(319,619,l),
(329,634,l),
(306,652,o),
(276,669,o),
(249,680,c),
(249,378,l),
(249,367,o),
(249,359,o),
(267,359,cs),
(298,359,o),
(319,378,o),
(319,393,cs)
);
},
{
closed = 1;
nodes = (
(311,406,l),
(707,406,l),
(707,438,l),
(311,438,l)
);
}
);
width = 1000;
}
);
unicode = 26359;
},
